<?xml version="1.0" encoding="utf-8"?>
<!-- Generator: Adobe Illustrator 19.2.1, SVG Export Plug-In . SVG Version: 6.00 Build 0)  -->
<svg version="1.1" id="Layer_1" xmlns="http://www.w3.org/2000/svg" xmlns:xlink="http://www.w3.org/1999/xlink" x="0px" y="0px"
	 viewBox="0 0 99.7 99.7" style="enable-background:new 0 0 99.7 99.7;" xml:space="preserve">
<path d="M36.7,36.7v-3.9c0-9.4,0-18.8,0-28.3c-0.2-2.4,1.6-4.4,4-4.6c0.2,0,0.3,0,0.5,0C47,0.1,52.7,0.1,58.5,0
	c2.3-0.1,4.3,1.7,4.5,4c0,0.1,0,0.3,0,0.4c0,10.3,0,20.5,0,30.8v1.4h1.3c10.3,0,20.5,0,30.8,0c2.4-0.2,4.4,1.6,4.6,3.9
	c0,0.2,0,0.4,0,0.6c-0.1,5.8-0.1,11.5,0,17.3c0.1,2.4-1.6,4.4-4,4.5c-0.2,0-0.4,0-0.5,0c-10.3,0-20.5,0-30.8,0H63v1.3
	c0,10.2,0,20.5,0,30.7c0,3.1-1.5,4.7-4.7,4.7h-17c-3.1,0-4.7-1.5-4.7-4.7c0-10.2,0-20.4,0-30.6V63h-32C1.5,63,0,61.5,0,58.4
	c0-5.7,0-11.4,0-17c0-3.1,1.5-4.6,4.6-4.6C4.6,36.7,36.7,36.7,36.7,36.7z"/>
</svg>
