<?xml version="1.0" encoding="utf-8"?>
<!-- Generator: Adobe Illustrator 23.0.6, SVG Export Plug-In . SVG Version: 6.00 Build 0)  -->
<svg version="1.1" id="Layer_1" xmlns:serif="http://www.serif.com/"
	 xmlns="http://www.w3.org/2000/svg" xmlns:xlink="http://www.w3.org/1999/xlink" x="0px" y="0px" viewBox="0 0 100 100"
	 style="enable-background:new 0 0 100 100;" xml:space="preserve">
<style type="text/css">
	.st0{fill-rule:evenodd;clip-rule:evenodd;}
</style>
<g transform="matrix(1,0,0,1,-0.3796,-8.89815)">
	<g id="Fill-367" transform="matrix(1,0,0,1,0,-8.72995)">
		<path class="st0" d="M52.7,79.6c-1.5-2.1-3.9-2.1-5.4,0l-18.8,21.5c-1.5,2.1-0.6,3.8,2,3.8h39.1c2.6,0,3.5-1.7,2-3.8L52.7,79.6z
			 M91,30.4c5.2,0,9.4,4.2,9.4,9.4v47.1c0,5.2-4.2,9.4-9.4,9.4H76.7l-4.3-4.7H91c2.6,0,4.7-2.1,4.7-4.7V39.7c0-2.6-2.1-4.7-4.7-4.7
			H9.7c-2.6,0-4.7,2.1-4.7,4.7v47.1c0,2.6,2.1,4.7,4.7,4.7h18.8l-4.3,4.7H9.7c-5.2,0-9.4-4.2-9.4-9.4V39.7c0-5.2,4.2-9.4,9.4-9.4H91
			z"/>
	</g>
</g>
</svg>
