<?xml version="1.0" encoding="utf-8"?>
<!-- Generator: Adobe Illustrator 19.2.1, SVG Export Plug-In . SVG Version: 6.00 Build 0)  -->
<svg version="1.1" id="Layer_1" xmlns="http://www.w3.org/2000/svg" xmlns:xlink="http://www.w3.org/1999/xlink" x="0px" y="0px"
	 viewBox="0 0 98.8 100" style="enable-background:new 0 0 98.8 100;" xml:space="preserve">
<title>applause</title>
<path d="M20.2,46l5.7,1.4l9.9-20.6c0.6-1.2,1.1-2.4,1.7-3.6c1.3-2.6,2.9-4.7,6.1-3.1c3,1.5,2.4,4,1.2,6.5c-2.5,5.2-5,10.4-7.5,15.6
	c-1.3,2.7-2.6,5.5-4.1,8.7l5.1,2.6c3.1-6.4,6-12.5,8.9-18.6c1.3-2.6,2.5-5.2,3.7-7.8s3-5.1,6.3-3.5s2.2,4.3,1,6.8
	c-3.6,7.5-7.1,15-10.7,22.5c-0.6,1.3-1.2,2.6-1.8,4l4.6,3.4C53.7,53,57,46,60.4,39.1c1.3-2.7,2.2-6.5,6.6-5.1c3,1,3.1,3.4,0.7,8.4
	C62.8,52.5,58,62.6,53.2,72.7c-0.7,1.3-1,2.7-1,4.1c2.4-1.5,4.7-3,7.1-4.4c3.7-2.2,7.3-1.7,9.1,1.2s0.8,6.3-3,8.6
	c-8.3,5.1-16.4,10.5-25,15.1c-8.9,4.8-18,2.6-26.5-1.7C0.9,89-3.2,78.6,2.5,65.1c5.9-13.9,12.8-27.4,19.3-41c1.1-2.4,3-3.8,5.7-2.4
	s2.5,3.7,1.4,6.1C26,33.7,23.2,39.6,20.2,46z M85.3,33.7c-0.4-4-0.7-7.1-0.9-10.1c-0.2-3.4,1.2-6,4.8-6.6c2.8-0.6,5.7,1.2,6.3,4
	c0.1,0.3,0.1,0.6,0.1,0.9c1.3,10.5,2.5,21.1,3.1,31.7c0.4,6.5-2.7,11.9-7.3,16.5c-4.6,4.7-10.1,8.6-16.1,11.3
	c-0.7-3.7-0.4-7.9-2.2-10.8s-5.7-4.5-9.2-7.1c2.8-5.8,6-12.6,9.3-19.5c3.4-7.2,2.7-10.1-3.4-15.4c-1.3-1.1-1.9-3.1-3-4.6
	C62.3,18.6,57.6,13,53,7.5C51.2,5.3,50.2,3,52.8,1s4.6-0.7,6.4,1.5c7.6,9.2,15.2,18.5,22.8,27.7C82.9,31.1,83.8,32,85.3,33.7z
	 M52.9,18.1c-1.4-0.4-2.8-0.8-4.1-1.3c-2.1-0.9-4.2-1.9-6.2-3c-1.5-0.6-2.8-1.5-4-2.5c-1.8-1.8-2-4,0-5.9s4.2-1.2,5.9,0.7
	c3.1,3.6,6,7.2,9,10.8L52.9,18.1z"/>
</svg>
