<?xml version="1.0" encoding="utf-8"?>
<!-- Generator: Adobe Illustrator 24.0.0, SVG Export Plug-In . SVG Version: 6.00 Build 0)  -->
<svg version="1.1" id="Layer_1" xmlns="http://www.w3.org/2000/svg" xmlns:xlink="http://www.w3.org/1999/xlink" x="0px" y="0px"
	 viewBox="0 0 100 100" style="enable-background:new 0 0 100 100;" xml:space="preserve">
<title>archive2</title>
<path d="M0.2,90.2V18.5c0.5-2.3,1.5-4.5,3-6.3c1.6-2,3.2-4.1,4.8-6.2c0.9-1.2,1.9-2.4,2.9-3.5c1.4-1.2,3.1-2,5-2.3h68.7
	c0.1,0.1,0.3,0.1,0.4,0.2c1.8,0.2,3.5,1.1,4.6,2.6c1.2,1.5,2.5,3,3.7,4.5c2.7,3.4,6.1,6.4,6.9,11.1v71.7c-0.1,0.1-0.1,0.2-0.2,0.3
	c-0.5,4.1-3.3,7.6-7.2,8.9c-0.8,0.3-1.7,0.5-2.6,0.7H10.1c-0.1-0.1-0.2-0.1-0.3-0.2c-4.1-0.5-7.6-3.3-8.9-7.2
	C0.6,91.9,0.3,91.1,0.2,90.2z M50,38.8c-7.4,0-14.8,0-22.3,0c-0.8,0-1.7,0.2-2.4,0.5c-1,0.3-1.5,1.4-1.1,2.3
	c0.1,0.2,0.1,0.3,0.2,0.4c0.3,0.5,0.6,1,1,1.4L38,59.9c2.8,3.6,5.7,7.3,8.5,10.9c2.1,2.7,4.8,2.7,6.9,0l0.2-0.3L71.9,47
	c1.1-1.4,2.2-2.8,3.3-4.2c1.2-1.7,0.7-3.2-1.2-3.7c-0.6-0.2-1.2-0.2-1.8-0.2C64.7,38.8,57.4,38.8,50,38.8z M11.8,11.2h76.1
	c-1.5-1.7-3-3.3-4.4-4.9c-0.4-0.5-1-0.7-1.6-0.7c-12.4,0-24.8,0-37.2,0c-9.2,0-18.4,0-27.5,0c-0.4,0-0.8,0.1-1.1,0.3
	C14.6,7.6,13.3,9.4,11.8,11.2z"/>
</svg>
