<?xml version="1.0" encoding="utf-8"?>
<!-- Generator: Adobe Illustrator 19.2.1, SVG Export Plug-In . SVG Version: 6.00 Build 0)  -->
<svg version="1.1" id="Layer_1" xmlns="http://www.w3.org/2000/svg" xmlns:xlink="http://www.w3.org/1999/xlink" x="0px" y="0px"
	 viewBox="0 0 100 100" style="enable-background:new 0 0 100 100;" xml:space="preserve">
<title>background-check</title>
<path d="M50,0C22.4,0,0,22.4,0,50s22.4,50,50,50s50-22.4,50-50S77.6,0,50,0z M81,77.2c-0.2,0.4-0.3,0.9-0.5,1.3
	c-0.7,1.3-1.9,2.3-3.4,2.5h-0.7c-1.4-0.4-2.6-1.2-3.5-2.3c-4.8-4.8-9.6-9.7-14.4-14.4c-0.2-0.2-0.4-0.4-0.7-0.6
	c-5.5,3.7-11.5,5.3-18,4.2C29.6,66,23,60,20,50.1c-0.4-1.6-0.8-3.3-1-4.9V42c0.1-0.7,0.2-1.4,0.3-2.1C21.2,29.6,27.2,23,37,20
	c1.6-0.4,3.3-0.8,4.9-1h3.3c1.1,0.2,2.1,0.3,3.2,0.5C61.6,22.2,70.2,35,67.6,48.3c-0.2,1.1-0.5,2.2-0.9,3.3c-0.8,2.2-1.9,4.2-3,6.6
	c0.2,0.1,0.4,0.3,0.6,0.4c4.8,4.8,9.6,9.6,14.4,14.4c1.1,0.9,1.9,2.2,2.3,3.6V77.2z M43.8,24.8C33.5,24.7,25,33,24.8,43.3
	c0,0.1,0,0.1,0,0.2c0,10.4,8.4,18.8,18.8,18.8S62.4,54,62.4,43.6C62.4,33.3,54.2,24.9,43.8,24.8z"/>
</svg>
