<?xml version="1.0" encoding="utf-8"?>
<!-- Generator: Adobe Illustrator 23.0.6, SVG Export Plug-In . SVG Version: 6.00 Build 0)  -->
<svg version="1.1" id="Layer_1" xmlns:serif="http://www.serif.com/"
	 xmlns="http://www.w3.org/2000/svg" xmlns:xlink="http://www.w3.org/1999/xlink" x="0px" y="0px" viewBox="0 0 100 100"
	 style="enable-background:new 0 0 100 100;" xml:space="preserve">
<path d="M99.7,12.6c-0.8,2.6-2.8,4.5-5.5,5L91.9,18l-6.4,7.8c-1.6,2-4.1,3.2-6.7,3.2c-0.2,0-0.3,0-0.5,0L54.1,53.2
	c3.7,0.5,7.5,1.3,9.3,4c1,1.5,1.3,3.3,0.9,5.5c-0.6,3-3.8,4.6-7.2,6.2c-3.2,1.5-6.4,3.1-7.2,5.6L47,87c-1.7,7.7-6.4,11.3-14.8,11.3
	l0,0c-0.4,0-0.8,0-1.3,0C11.5,96.9,3.1,77.8,1,72c-2.8-8.2,0.7-15.9,8.5-18.8l13.3-4.9c2.2-1,3.4-3.8,4.8-7.1
	c1.6-3.8,3.3-8,7.3-11.2c2.5-2,4.9-3,7-3c4.4,0,6.8,4,7.2,7.7c0.2,1.7-0.2,4.4-0.6,7.5c-0.1,0.5-0.1,0.9-0.2,1.4l21.9-21.9
	c-0.1-0.8-0.2-1.6-0.1-2.4c0.3-2.7,1.8-5,4.1-6.4l0.2-0.1l-0.3-0.3c-0.7-0.7-0.7-1.8,0-2.5c0.7-0.7,1.8-0.7,2.5,0l0.9,0.9L81,9
	l-0.3-0.3c-0.7-0.7-0.7-1.8,0-2.5c0.7-0.7,1.8-0.7,2.5,0l0.9,1l3.3-2l-0.3-0.3c-0.7-0.7-0.7-1.8,0-2.5c0.7-0.7,1.8-0.7,2.5,0
	l1.2,1.2c2.4-0.6,5.2,0,7,1.8C99.8,7.3,100.5,10,99.7,12.6L99.7,12.6z M74.3,27.7c-0.6-0.3-1.1-0.7-1.6-1.2c0,0,0,0,0,0
	c-0.4-0.4-0.7-0.8-1-1.2L47.3,49.7l0,0L36,61l2.6,2.6l8-8l27.8-27.8C74.4,27.8,74.3,27.8,74.3,27.7z M45,41.7
	c0.4-2.6,0.7-5.4,0.6-6.6c-0.2-1.7-1.1-4.5-3.7-4.5c-1.3,0-3,0.8-4.8,2.2c-3.2,2.6-4.8,6.2-6.2,9.7c-1.6,3.9-3.1,7.5-6.7,9l-13.4,5
	c-6,2.2-8.6,8-6.4,14.3c1.9,5.3,9.5,22.7,26.9,23.9c0.3,0,0.7,0,1.1,0c7.8,0,10.1-3.4,11.3-8.5l2.9-12.7c1.3-4.1,5.4-6.1,9.1-7.9
	c2.4-1.1,5-2.5,5.3-3.7c0.2-1.2,0.2-2-0.3-2.7c-1.2-1.7-4.9-2.2-8.2-2.7c-0.4-0.1-0.9-0.1-1.3-0.2l-5.1,5.1l-6,6
	c-0.2,0.2-0.4,0.3-0.6,0.4c-0.1,0-0.2,0-0.3,0.1c-0.1,0-0.2,0.1-0.4,0.1c-0.1,0-0.3-0.1-0.4-0.1c-0.1,0-0.2,0-0.3-0.1
	c-0.2-0.1-0.4-0.2-0.6-0.4l-5.2-5.2c-0.2-0.2-0.3-0.4-0.4-0.6c-0.2-0.4-0.2-0.9,0-1.4c0.1-0.2,0.2-0.4,0.4-0.6l12.1-12.1
	C44.4,45.8,44.7,43.7,45,41.7L45,41.7z M95.3,7.9c-0.8-0.8-1.7-1.1-2.7-1.1c-0.7,0-1.3,0.2-1.9,0.5L76.2,16
	c-1.4,0.8-2.2,2.2-2.4,3.7c-0.1,0.7,0,1.4,0.2,2c0,0,0,0,0,0c0.2,0.9,0.7,1.6,1.3,2.2c0.3,0.3,0.7,0.5,1.1,0.8
	c0.2,0.1,0.4,0.2,0.5,0.3c0.2,0.1,0.4,0.1,0.5,0.2c1.9,0.5,4.1,0,5.4-1.6l6.8-8.3c0.3-0.3,0.6-0.5,1-0.6l2.9-0.6
	c1.4-0.3,2.4-1.2,2.8-2.5S96.3,8.8,95.3,7.9L95.3,7.9z M34.7,72.6c-0.4,0.4-0.8,0.5-1.3,0.5c-0.5,0-0.9-0.2-1.3-0.5L27,67.4
	c-0.7-0.7-0.7-1.8,0-2.5c0.7-0.7,1.8-0.7,2.5,0l5.2,5.2C35.4,70.8,35.4,71.9,34.7,72.6L34.7,72.6z M29.5,77.8
	c-0.3,0.3-0.8,0.5-1.3,0.5c-0.5,0-0.9-0.2-1.3-0.5l-5.2-5.2c-0.7-0.7-0.7-1.8,0-2.5c0.7-0.7,1.8-0.7,2.5,0l5.2,5.2
	C30.2,75.9,30.2,77.1,29.5,77.8z M29.9,88.1c0.3,0.3,0.5,0.8,0.5,1.3s-0.2,0.9-0.5,1.3c-0.3,0.3-0.8,0.5-1.3,0.5
	c-0.5,0-0.9-0.2-1.3-0.5c-0.3-0.3-0.5-0.8-0.5-1.3s0.2-0.9,0.5-1.3C28.1,87.4,29.3,87.4,29.9,88.1z M35.3,84.5
	c0.3,0.3,0.5,0.8,0.5,1.3c0,0.5-0.2,0.9-0.5,1.3c-0.3,0.3-0.8,0.5-1.3,0.5c-0.5,0-0.9-0.2-1.3-0.5c-0.3-0.3-0.5-0.8-0.5-1.2
	c0-0.5,0.2-0.9,0.5-1.3C33.4,83.9,34.6,83.9,35.3,84.5z M40.6,81c0.3,0.3,0.5,0.8,0.5,1.3c0,0.5-0.2,0.9-0.5,1.3
	c-0.3,0.3-0.8,0.5-1.3,0.5c-0.5,0-0.9-0.2-1.3-0.5c-0.3-0.3-0.5-0.8-0.5-1.3c0-0.5,0.2-0.9,0.5-1.3C38.8,80.3,40,80.3,40.6,81z"/>
</svg>
