<?xml version="1.0" encoding="utf-8"?>
<!-- Generator: Adobe Illustrator 23.0.6, SVG Export Plug-In . SVG Version: 6.00 Build 0)  -->
<svg version="1.1" id="Layer_1" xmlns:serif="http://www.serif.com/"
	 xmlns="http://www.w3.org/2000/svg" xmlns:xlink="http://www.w3.org/1999/xlink" x="0px" y="0px" viewBox="0 0 100 100"
	 style="enable-background:new 0 0 100 100;" xml:space="preserve">
<path d="M85.7,74.6V2.9c0.1-1.7,1.4-3,3.2-2.9c1.5,0.2,2.5,1.4,2.6,2.9v78.8c0.7,2.5,0.4,5.3-1.3,8.5c-8.7,16.3-53.6,11.6-44.6-9.4
	c3.5-8.2,12.7-11.2,23.1-11.1C74.4,69.8,81,71.5,85.7,74.6L85.7,74.6z M85.7,84.8c0-0.1,0-0.2,0-0.2c-0.6-6.6-9.4-9.2-18.1-9.1
	c-10,0.2-24.4,7.2-13.6,15.1c9.9,7.3,32,5.5,31.8-5.4c0-0.1,0-0.1,0-0.2L85.7,84.8L85.7,84.8z M35.6,88.2c2.9,0.2,3.2,5.5,0,5.8
	c-8.2,0.2-16.5,0-24.7,0c-3-0.1-3.8-5.5-0.2-5.8C19,87.9,27.3,87.9,35.6,88.2z M35.6,72c2.9,0.3,3.2,5.5,0,5.8
	c-8.2,0.2-16.5,0-24.7,0c-3-0.1-3.8-5.5-0.2-5.8C19,71.7,27.3,71.7,35.6,72z M76.5,61.3H10.8c-3-0.1-4.1-5.6,0-5.8c22,0,44-1,65.9,0
	C79.7,55.9,80.4,61.1,76.5,61.3z M76.5,44.8H10.8c-3.2-0.2-3.7-5.6,0-5.8c22,0,44-1,65.9,0C82.3,39.8,79.2,44.7,76.5,44.8z
	 M76.5,28.3H10.8c-3.1-0.1-3.9-5.6,0-5.8c22,0,44-1,65.9,0C82.2,23.3,79.1,28.2,76.5,28.3L76.5,28.3z M76.5,12.1H10.8
	c-3.1-0.1-3.9-5.6,0-5.8c22,0,44-1,65.9,0C79.7,6.8,80.4,12,76.5,12.1z"/>
</svg>
