<?xml version="1.0" encoding="utf-8"?>
<!-- Generator: Adobe Illustrator 23.0.6, SVG Export Plug-In . SVG Version: 6.00 Build 0)  -->
<svg version="1.1" id="Layer_1" xmlns:serif="http://www.serif.com/"
	 xmlns="http://www.w3.org/2000/svg" xmlns:xlink="http://www.w3.org/1999/xlink" x="0px" y="0px" viewBox="0 0 100 100"
	 style="enable-background:new 0 0 100 100;" xml:space="preserve">
<path d="M73,16.1l16.1,16.1v63.1c0,2.4-2.1,4.6-4.6,4.7c-22.9,0.1-45.8,0-68.8,0c-2.4,0-4.6-2.1-4.7-4.6c-0.2-30.2,0-60.4,0-90.6
	C11,2.2,13.1,0,15.7,0h41.2C62.3,5.4,67.7,10.7,73,16.1L73,16.1z M56.1,3.6l-0.5-0.5H15.7c-0.8,0-1.6,0.7-1.6,1.5
	c-0.2,30.2-0.6,60.4,0,90.6c0,0.8,0.7,1.5,1.5,1.5c22.9,0.4,45.9,0.4,68.8,0c0.8,0,1.5-0.7,1.5-1.6V34.4c-8.7,0-17.3,0.1-26,0
	c-2,0-3.8-1.8-3.9-3.9V3.6L56.1,3.6z M67.2,89c0,0.9-0.5,1.6-1.4,2.2c-0.9,0.6-2,0.9-3.3,0.9s-2.5-0.3-3.3-0.9
	c-0.9-0.6-1.4-1.3-1.4-2.2c0-0.9,0.5-1.6,1.4-2.2c0.8-0.6,2-0.9,3.3-0.9c0.3,0,0.5,0,0.8,0.1c0.3,0,0.5,0.1,0.8,0.1V71.6
	c0-0.4,0.1-0.7,0.4-1c0.2-0.3,0.6-0.5,0.9-0.5l7.8-1.3l7.8-1.3c0.5-0.1,0.9,0.1,1.3,0.3c0.3,0.3,0.6,0.7,0.6,1.2v16.9
	c0,0.9-0.5,1.6-1.4,2.2c-0.9,0.6-2,0.9-3.3,0.9c-1.3,0-2.5-0.3-3.3-0.9c-0.8-0.6-1.4-1.4-1.4-2.2c0-0.9,0.5-1.6,1.4-2.2
	c0.8-0.6,2-0.9,3.3-0.9c0.3,0,0.5,0,0.8,0.1c0.3,0,0.5,0.1,0.8,0.1v-9l-6.2,1l-6.2,1L67.2,89L67.2,89z M50.7,89H19.4v-1.6h31.2V89z
	 M50.7,76.5H19.4V75h31.2V76.5z M81.9,64H19.4v-1.6h62.5V64z M81.9,51.5H19.4V50h62.5V51.5z M81.9,39H19.4v-1.6h62.5V39z M57.7,5.2
	v25.3c0,1.2,1.1,2.3,2.3,2.3h25.3L70.8,18.3L57.7,5.2z M50.7,26.5H19.4V25h31.2V26.5z M50.7,14.1H19.4v-1.6h31.2V14.1z"/>
</svg>
