<?xml version="1.0" encoding="utf-8"?>
<!-- Generator: Adobe Illustrator 23.0.6, SVG Export Plug-In . SVG Version: 6.00 Build 0)  -->
<svg version="1.1" id="Layer_1" xmlns:serif="http://www.serif.com/"
	 xmlns="http://www.w3.org/2000/svg" xmlns:xlink="http://www.w3.org/1999/xlink" x="0px" y="0px" viewBox="0 0 100 100"
	 style="enable-background:new 0 0 100 100;" xml:space="preserve">
<style type="text/css">
	.st0{fill-rule:evenodd;clip-rule:evenodd;}
</style>
<path class="st0" d="M90.6,0c5.2,0,9.4,4.2,9.4,9.4v78.1c0,6.9-5.6,12.5-12.5,12.5h-75C5.6,100,0,94.4,0,87.5V25
	c0-5.2,4.2-9.4,9.4-9.4h3.1V9.4c0-5.2,4.2-9.4,9.4-9.4H90.6z M87.5,93.7c3.4,0,6.2-2.8,6.2-6.2V9.4c0-1.7-1.4-3.1-3.1-3.1H21.9
	c-1.7,0-3.1,1.4-3.1,3.1v75c0,1.7-1.4,3.1-3.1,3.1s-3.1-1.4-3.1-3.1V21.9H9.4c-1.7,0-3.1,1.4-3.1,3.1v62.5c0,3.4,2.8,6.2,6.3,6.2
	L87.5,93.7L87.5,93.7z M51.6,84.4c0.9,0,1.6,0.7,1.6,1.6s-0.7,1.6-1.6,1.6h-25c-0.9,0-1.6-0.7-1.6-1.6s0.7-1.6,1.6-1.6H51.6
	L51.6,84.4z M85.9,84.4c0.9,0,1.6,0.7,1.6,1.6s-0.7,1.6-1.6,1.6h-25c-0.9,0-1.6-0.7-1.6-1.6s0.7-1.6,1.6-1.6H85.9z M51.6,75
	c0.9,0,1.6,0.7,1.6,1.6s-0.7,1.6-1.6,1.6h-25c-0.9,0-1.6-0.7-1.6-1.6s0.7-1.6,1.6-1.6H51.6L51.6,75z M85.9,75c0.9,0,1.6,0.7,1.6,1.6
	s-0.7,1.6-1.6,1.6h-25c-0.9,0-1.6-0.7-1.6-1.6s0.7-1.6,1.6-1.6H85.9z M51.6,65.6c0.9,0,1.6,0.7,1.6,1.6s-0.7,1.6-1.6,1.6h-25
	c-0.9,0-1.6-0.7-1.6-1.6s0.7-1.6,1.6-1.6H51.6L51.6,65.6z M85.9,65.6c0.9,0,1.6,0.7,1.6,1.6s-0.7,1.6-1.6,1.6h-25
	c-0.9,0-1.6-0.7-1.6-1.6s0.7-1.6,1.6-1.6H85.9z M85.9,56.3c0.9,0,1.6,0.7,1.6,1.6s-0.7,1.6-1.6,1.6H26.6c-0.9,0-1.6-0.7-1.6-1.6
	s0.7-1.6,1.6-1.6H85.9z M85.9,46.9c0.9,0,1.6,0.7,1.6,1.6S86.8,50,85.9,50H26.6c-0.9,0-1.6-0.7-1.6-1.6s0.7-1.6,1.6-1.6H85.9z
	 M85.9,37.5c0.9,0,1.6,0.7,1.6,1.6s-0.7,1.6-1.6,1.6h-25c-0.9,0-1.6-0.7-1.6-1.6s0.7-1.6,1.6-1.6H85.9z M50,12.5
	c1.7,0,3.1,1.4,3.1,3.1v21.9c0,1.7-1.4,3.1-3.1,3.1H28.1c-1.7,0-3.1-1.4-3.1-3.1V15.6c0-1.7,1.4-3.1,3.1-3.1H50L50,12.5z M46.9,34.4
	V18.7H31.3v15.6H46.9z M85.9,28.1c0.9,0,1.6,0.7,1.6,1.6s-0.7,1.6-1.6,1.6h-25c-0.9,0-1.6-0.7-1.6-1.6s0.7-1.6,1.6-1.6H85.9z
	 M85.9,18.8c0.9,0,1.6,0.7,1.6,1.6c0,0.9-0.7,1.6-1.6,1.6h-25c-0.9,0-1.6-0.7-1.6-1.6c0-0.9,0.7-1.6,1.6-1.6H85.9z"/>
</svg>
