<?xml version="1.0" encoding="utf-8"?>
<!-- Generator: Adobe Illustrator 24.0.0, SVG Export Plug-In . SVG Version: 6.00 Build 0)  -->
<svg version="1.1" id="Layer_1" xmlns="http://www.w3.org/2000/svg" xmlns:xlink="http://www.w3.org/1999/xlink" x="0px" y="0px"
	 viewBox="0 0 100 100" style="enable-background:new 0 0 100 100;" xml:space="preserve">
<title>CD</title>
<path d="M47.3,0h5.5C53,0,53.1,0.1,53.3,0.1c2.6,0.4,5.2,0.6,7.8,1.1C88,7.5,104.7,34.4,98.4,61.3c-5.1,21.8-24,37.5-46.4,38.6
	c-10.1,0.5-20.2-2.2-28.7-7.7c-12.4-7.7-20.7-20.5-22.7-35c-0.2-1.5-0.4-3-0.6-4.5c0-1.8,0-3.6,0-5.5c0.1-0.3,0.1-0.6,0.2-0.9
	C0.7,38.6,3,31.1,7.1,24.5C15.3,11.1,27.2,3.1,42.8,0.6C44.3,0.3,45.8,0.2,47.3,0z M62.6,49.9c0-6.9-5.6-12.4-12.4-12.4
	S37.7,43,37.7,49.9c0,6.8,5.5,12.4,12.4,12.4C57,62.4,62.5,56.8,62.6,49.9C62.6,50,62.6,49.9,62.6,49.9z"/>
</svg>
