<svg id="Layer_1" data-name="Layer 1" xmlns="http://www.w3.org/2000/svg" viewBox="0 0 89.95 89.97"><title>CD</title><path d="M57.57,15h4.92a3.69,3.69,0,0,0,.5.14c2.34,0.34,4.72.5,7,1a45,45,0,0,1-8.15,88.77A43.6,43.6,0,0,1,36,98,44.21,44.21,0,0,1,15.56,66.55c-0.21-1.35-.35-2.72-0.53-4.08q0-2.46,0-4.92a6.65,6.65,0,0,0,.17-0.85,42.82,42.82,0,0,1,6.18-19.63C28.77,25,39.48,17.79,53.49,15.54,54.84,15.33,56.21,15.19,57.57,15ZM71.31,59.93A11.19,11.19,0,1,0,60.07,71.12,11.19,11.19,0,0,0,71.31,59.93Z" transform="translate(-15.03 -15.02)"/></svg>