<?xml version="1.0" encoding="utf-8"?>
<!-- Generator: Adobe Illustrator 19.2.1, SVG Export Plug-In . SVG Version: 6.00 Build 0)  -->
<svg version="1.1" id="Layer_1" xmlns="http://www.w3.org/2000/svg" xmlns:xlink="http://www.w3.org/1999/xlink" x="0px" y="0px"
	 viewBox="0 0 100 100" style="enable-background:new 0 0 100 100;" xml:space="preserve">
<title>songs</title>
<path d="M49.9,100C22.3,99.9-0.1,77.5,0,49.9C0.1,22.3,22.5-0.1,50.1,0c27.8,0.2,50.1,22.6,49.9,50.2C99.9,77.7,77.5,100.1,49.9,100
	z M69.7,50c0-10.9-8.8-19.7-19.7-19.7S30.3,39.1,30.3,50S39.1,69.7,50,69.7C60.9,69.7,69.7,60.9,69.7,50C69.7,50,69.7,50,69.7,50z
	 M24.8,87.1l10.8-15.9l-6.8-6.8L13,75.3C16.2,79.9,20.2,83.9,24.8,87.1z M75.3,13L64.5,28.8l6.7,6.8l15.9-10.8
	C83.9,20.2,79.9,16.2,75.3,13z M59.9,50c0,5.5-4.4,9.9-9.9,9.9c-5.5,0-9.9-4.4-9.9-9.9s4.4-9.9,9.9-9.9C55.5,40.1,59.9,44.5,59.9,50
	C59.9,50,59.9,50,59.9,50z"/>
</svg>
