<?xml version="1.0" encoding="utf-8"?>
<!-- Generator: Adobe Illustrator 19.2.1, SVG Export Plug-In . SVG Version: 6.00 Build 0)  -->
<svg version="1.1" id="Layer_1" xmlns="http://www.w3.org/2000/svg" xmlns:xlink="http://www.w3.org/1999/xlink" x="0px" y="0px"
	 viewBox="0 0 101.5 100" style="enable-background:new 0 0 101.5 100;" xml:space="preserve">
<title>check</title>
<path d="M0,70.9v-2.4c0.1-0.3,0.3-0.6,0.4-0.9l9.4-16.3c1.1-1.9,3.6-2.7,5.6-1.7c1.4,0.7,2.7,1.5,4,2.2c3.9,2.2,7.7,4.4,11.5,6.6
	c3.4,2,6.9,3.9,10.3,5.9c1.2-2.1,2.5-4.2,3.7-6.3c2.5-4.4,5.1-8.9,7.6-13.3c2.2-3.9,4.5-7.7,6.7-11.6c2.6-4.5,5.1-8.9,7.7-13.4
	c2.9-5,5.7-9.9,8.6-14.8c1.1-2,2-4.1,4.4-5h2c0.5,0.2,0.9,0.4,1.4,0.7l13.9,8.1c1.7,1,3.4,1.8,4.2,3.7v2.4c-0.7,1.2-1.4,2.5-2.1,3.7
	c-2.3,3.9-4.5,7.9-6.8,11.8c-2.3,3.9-4.6,7.8-6.8,11.7c-2.6,4.4-5.2,8.8-7.7,13.3c-2.2,3.9-4.5,7.7-6.8,11.6
	c-2.6,4.4-5.1,8.9-7.7,13.4c-2.9,4.9-5.7,9.9-8.6,14.8c-1.1,2-2,4.2-4.4,5h-2c-1-0.6-2.1-1.1-3.1-1.7L33,91.2
	c-3.3-1.9-6.7-3.7-10-5.6c-6.4-3.7-12.8-7.4-19.2-11.1C2.3,73.6,0.7,72.8,0,70.9z"/>
</svg>
