<?xml version="1.0" encoding="utf-8"?>
<!-- Generator: Adobe Illustrator 24.0.0, SVG Export Plug-In . SVG Version: 6.00 Build 0)  -->
<svg version="1.1" id="Layer_1" xmlns="http://www.w3.org/2000/svg" xmlns:xlink="http://www.w3.org/1999/xlink" x="0px" y="0px"
	 viewBox="0 0 100 100" style="enable-background:new 0 0 100 100;" xml:space="preserve">
<title>check</title>
<path d="M0,70.6v-2.4c0.1-0.3,0.3-0.6,0.4-0.9l9.3-16.1c1.1-1.9,3.6-2.7,5.5-1.7c1.4,0.7,2.7,1.5,3.9,2.2c3.8,2.2,7.6,4.3,11.3,6.5
	c3.4,2,6.8,3.8,10.2,5.8c1.2-2.1,2.5-4.1,3.6-6.2c2.5-4.3,5-8.8,7.5-13.1c2.2-3.8,4.4-7.6,6.6-11.4c2.6-4.4,5-8.8,7.6-13.2
	c2.9-4.9,5.6-9.8,8.5-14.6c1.1-2,2-4,4.3-4.9h2c0.5,0.2,0.9,0.4,1.4,0.7l13.7,8c1.7,1,3.4,1.8,4.1,3.6v2.4c-0.7,1.2-1.4,2.5-2.1,3.6
	c-2.3,3.8-4.4,7.8-6.7,11.6c-2.3,3.8-4.5,7.7-6.7,11.5c-2.6,4.3-5.1,8.7-7.6,13.1c-2.2,3.8-4.4,7.6-6.7,11.4
	c-2.6,4.3-5,8.8-7.6,13.2c-2.9,4.8-5.6,9.8-8.5,14.6c-1.1,2-2,4.1-4.3,4.9h-2c-1-0.6-2.1-1.1-3.1-1.7l-12.2-7.1
	c-3.3-1.9-6.6-3.6-9.9-5.5C16.3,81.5,10,77.8,3.7,74.2C2.2,73.3,0.6,72.5,0,70.6z"/>
</svg>
