<?xml version="1.0" encoding="utf-8"?>
<!-- Generator: Adobe Illustrator 23.0.6, SVG Export Plug-In . SVG Version: 6.00 Build 0)  -->
<svg version="1.1" id="Layer_1" xmlns:serif="http://www.serif.com/"
	 xmlns="http://www.w3.org/2000/svg" xmlns:xlink="http://www.w3.org/1999/xlink" x="0px" y="0px" viewBox="0 0 100 100"
	 style="enable-background:new 0 0 100 100;" xml:space="preserve">
<style type="text/css">
	.st0{fill-rule:evenodd;clip-rule:evenodd;}
</style>
<path class="st0" d="M18,70v30h-6c-6.6,0-12-5.4-12-12V70H18L18,70z M38,100H22V70h16V100z M58,100H42V70h16V100z M78,100H62V70h16
	V100z M88,0c6.6,0,12,5.4,12,12v76c0,6.6-5.4,12-12,12h-6V70h18v-4H82V34h18v-4H82v-6.8c3.6-0.9,6.4-4.2,6.4-8.1
	c0-3.9-2.7-7.2-6.4-8.1V0L88,0L88,0z M0,34h18v32H0V34z M78,34v32H62v-7.9c3.6-0.9,6.4-4.2,6.4-8.1s-2.7-7.2-6.4-8.1V34L78,34L78,34
	z M58,34v7.9c-3.6,0.9-6.4,4.2-6.4,8.1s2.7,7.2,6.4,8.1V66H42v-7.9c3.7-0.9,6.4-4.2,6.4-8.1c0-3.9-2.7-7.2-6.4-8.1V34L58,34L58,34z
	 M38,34v7.9c-3.6,0.9-6.3,4.2-6.3,8.1s2.7,7.2,6.3,8.1V66H22V34L38,34L38,34z M18,30H0V12C0,5.4,5.4,0,12,0h6V30z M38,0v30H22V0H38z
	 M58,0v30H42V0H58z M78,0v7c-3.6,0.9-6.4,4.2-6.4,8.1c0,3.9,2.7,7.2,6.4,8.1V30H62V0H78z"/>
</svg>
