<?xml version="1.0" encoding="utf-8"?>
<!-- Generator: Adobe Illustrator 19.2.1, SVG Export Plug-In . SVG Version: 6.00 Build 0)  -->
<svg version="1.1" id="Layer_1" xmlns="http://www.w3.org/2000/svg" xmlns:xlink="http://www.w3.org/1999/xlink" x="0px" y="0px"
	 viewBox="0 0 100 100" style="enable-background:new 0 0 100 100;" xml:space="preserve">
<title>clock</title>
<path d="M100,48.3v3.4c-0.1,0.8-0.2,1.6-0.2,2.4c-0.2,2.7-0.6,5.5-1.3,8.1c-4.2,16.6-16.6,29.9-32.8,35.3c-3.7,1.2-7.6,2-11.6,2.3
	l-2.4,0.2h-3.4c-0.8-0.1-1.6-0.2-2.4-0.2c-2.7-0.2-5.5-0.6-8.1-1.3C21.2,94.3,7.9,81.9,2.5,65.7c-1.3-3.8-2-7.7-2.3-11.6
	c-0.1-0.8-0.1-1.6-0.2-2.4v-3.4c0.1-0.8,0.1-1.6,0.2-2.4c0.2-2.7,0.6-5.5,1.3-8.1C5.7,21.2,18.1,7.9,34.4,2.5
	c3.7-1.2,7.6-2,11.5-2.3L48.3,0h3.4c0.8,0.1,1.6,0.1,2.4,0.2c2.7,0.2,5.5,0.6,8.1,1.3C78,5.5,90.9,17,96.7,32.1
	c1.7,4.4,2.8,9.1,3.1,13.8C99.9,46.7,99.9,47.5,100,48.3z M89.4,50c0-21.8-17.7-39.4-39.4-39.4S10.6,28.3,10.6,50
	c0,21.5,17.3,39,38.8,39.4c21.8,0.3,39.7-17,40-38.8C89.4,50.4,89.4,50.2,89.4,50z M55.3,31.2c0,4.2,0,8.3,0,12.5
	c0,0.3,0.1,0.6,0.3,0.8c1.7,1.7,2.5,4.1,2.2,6.5c0,0.3,0.1,0.5,0.3,0.6l20.5,14.8c1,0.6,1.6,1.8,1.5,3c-0.2,1.7-1.8,3-3.5,2.8
	c-0.5-0.1-1.1-0.3-1.5-0.6l-9.9-7.2l-10.5-7.6c-0.2-0.2-0.5-0.2-0.8-0.1c-3.7,2.2-8.5,0.9-10.7-2.8c-0.4-0.7-0.7-1.5-0.9-2.3
	c-0.7-2.6,0.1-5.4,2-7.3c0.2-0.2,0.4-0.6,0.3-0.9c0-8.2,0-16.5,0-24.7c0-2.9,2.3-5.3,5.3-5.3c2.9,0,5.3,2.3,5.3,5.3
	C55.3,22.9,55.3,27,55.3,31.2z"/>
</svg>
