<?xml version="1.0" encoding="UTF-8" standalone="no"?>
<!DOCTYPE svg PUBLIC "-//W3C//DTD SVG 1.1//EN" "http://www.w3.org/Graphics/SVG/1.1/DTD/svg11.dtd">
<svg width="100%" height="100%" viewBox="0 0 100 100" version="1.1" xmlns="http://www.w3.org/2000/svg" xmlns:xlink="http://www.w3.org/1999/xlink" xml:space="preserve" xmlns:serif="http://www.serif.com/" style="fill-rule:evenodd;clip-rule:evenodd;stroke-linejoin:round;stroke-miterlimit:2;">
    <g transform="matrix(3.20877,0,0,3.20878,-2.35961,-0.631959)">
        <g>
            <g>
                <path d="M16.2,9.9L17.5,11.4L21,9.4L19.4,7.8L16.2,9.9Z" style="fill-rule:nonzero;"/>
                <path d="M31.9,17.4C31.4,16.9 23.6,8.1 20,5.2C16.5,2.5 10.2,2.7 4.3,7.5L3.5,8.3C0.1,11 -0.2,16.3 2.8,20.1C5.9,23.9 11.1,24.9 14.4,22.3C15.1,21.7 15.8,20.5 16.3,19.8L23.3,28.1L31.8,22.6L31.9,17.4ZM30,21.8L25.9,24.3L25.9,23.1L30,20.6L30,21.8ZM24.3,21.7L15.1,10.5L14.6,9.9C12.8,7.9 10.4,6.8 8,6.8C12.3,4.5 16.6,4.2 19.2,6.3C22.5,8.9 29.5,16.8 30.7,18.1L24.3,21.7Z" style="fill-rule:nonzero;"/>
            </g>
        </g>
    </g>
</svg>
