<?xml version="1.0" encoding="utf-8"?>
<!-- Generator: Adobe Illustrator 24.0.0, SVG Export Plug-In . SVG Version: 6.00 Build 0)  -->
<svg version="1.1" id="Layer_1" xmlns:serif="http://www.serif.com/"
	 xmlns="http://www.w3.org/2000/svg" xmlns:xlink="http://www.w3.org/1999/xlink" x="0px" y="0px" viewBox="0 0 100 100"
	 style="enable-background:new 0 0 100 100;" xml:space="preserve">
<style type="text/css">
	.st0{fill-rule:evenodd;clip-rule:evenodd;}
</style>
<g id="comments-liked" transform="matrix(0.24,0,0,0.24,-9.32587e-15,10.8458)" serif:id="comments liked">
	<path class="st0" d="M240.2,288c-1.2,0.3-2.3,0.5-3.4,0.7c-9.3,0.9-18.8,1.3-28.4,1.3c-22.7,0-44.6-2.7-65.8-8
		c-33.8,17.4-71.6,27.7-113.6,31.1c-6.3,0.5-12.1-0.8-17.4-4c-5.3-3.1-8.7-7.6-10.1-13.4c-2.4-6.8-1.4-12.8,2.9-18.1
		c2.4-3.4,6.8-7.2,13-11.6l1.4-1.4c7.2-4.8,12.3-8.7,15.2-11.6c4.8-5.3,8.7-11.8,11.6-19.5c-14.5-13-25.7-27.6-33.6-43.8
		C4,173.7,0,157,0,139.6C0,112.1,9.4,86.9,28.2,64s44.1-41.1,76-54.6C136-4.1,170.7-10.8,208.3-10.8c37.6,0,72.5,6.8,104.5,20.3
		s57.4,31.7,76,54.6c18.6,22.9,27.9,48.1,27.9,75.6c0,9.9-1.2,19.4-3.6,28.7c-16.1-40.1-57.1-69.2-100.6-69.6c-0.9,0-1.9,0-2.8,0
		c-78.9,1.8-126.9,92.2-95.5,156.3C220.4,267.8,229.4,279,240.2,288z M311.3,130.3c-43.4,0.4-81.8,43.1-75.8,87.3
		c4.8,36.2,38.9,66.5,75.8,66.7c51.5,0.3,94.9-61.8,69.1-112c-12.6-24.6-38.9-41.4-67.1-42C312.6,130.3,311.9,130.3,311.3,130.3z
		 M329.1,191.1l3.3-10c1-3,1.4-6.3,1-9.5c-0.7-5.9-3.8-11.4-8.5-14.9c-1.3-1-2.9-1.5-4.5-1.5c-4.1,0-7.5,3.4-7.5,7.5v2.9
		c0,4.2-1.4,8.4-4,11.7l-11,14.1v55.5l2,1c4.1,2.1,8.8,3.2,13.4,3.2h35.2c4.5,0,8.5-3.2,9.2-7.5c0.4-2.1,0-4.2-1.1-6
		c2.1-1.3,3.7-3.5,4.1-6c0.4-2.3-0.1-4.6-1.4-6.4c2-1.4,3.5-3.4,4.1-5.7c0.9-3.2,0.2-6.6-1.8-9.2c-0.3-0.4-0.6-0.8-1-1.1
		c0.4-0.3,0.7-0.7,1-1.1c2-2.6,2.7-6,1.8-9.2c-1.2-4.5-5.5-7.7-10.4-7.7H329.1z M290.5,251c0.5,0,1,0,1.5-0.1v-59.8h-16.4
		c-4.1,0-7.5,3.4-7.5,7.5v44.9c0,4.1,3.4,7.5,7.5,7.5H290.5z M283,233.1c1.7,0,3,1.3,3,3s-1.3,3-3,3c-1.7,0-3-1.3-3-3
		S281.3,233.1,283,233.1z"/>
</g>
</svg>
