<?xml version="1.0" encoding="utf-8"?>
<!-- Generator: Adobe Illustrator 19.2.1, SVG Export Plug-In . SVG Version: 6.00 Build 0)  -->
<svg version="1.1" id="Layer_1" xmlns="http://www.w3.org/2000/svg" xmlns:xlink="http://www.w3.org/1999/xlink" x="0px" y="0px"
	 viewBox="0 0 100 68.2" style="enable-background:new 0 0 100 68.2;" xml:space="preserve">
<title>courses</title>
<path d="M100,18.1c-0.4,0.7-1.1,1.2-1.9,1.4C82.7,24.7,67.3,29.8,51.8,35c-0.4,0.1-0.9,0.1-1.3,0c-8.5-2.7-17.2-5.5-25.9-8.3
	l2.4-0.9c8.2-3.2,16.4-6.4,24.6-9.6c0.8-0.2,1.4-0.9,1.5-1.7c0.1-0.9-0.4-1.8-1.2-2.3c-0.5-0.4-1.3-0.5-1.9-0.2
	c-9,3.5-17.9,6.8-26.9,10.4c-4.4,1.6-7.6,5.6-8.2,10.2c-0.2,1.1-0.4,2.2-0.5,3.4c0,0.3,0.1,0.6,0.3,0.8c1.8,0.8,2.6,3.6,2.1,5.3
	c-0.2,1-0.7,1.9-1.4,2.7c-0.4,0.4-0.5,0.9-0.5,1.4c0.2,1.7,0.4,3.3,0.5,5c0.1,3.2,0.7,6.4-0.2,9.6c-0.9,3.6-3.5,6.4-7,7.6
	c-0.3,0.1-0.6,0.1-0.8,0C5,66.9,2.5,65.6,0,64.3c0.7-0.8,1.4-1.6,2.1-2.3c2.9-2.7,5-6.1,6.3-9.9c0.6-1.8,0.9-3.7,1.4-5.6
	c0.1-0.4-0.1-0.9-0.4-1.2c-0.6-0.5-1.1-1.1-1.6-1.8c-1.4-2.2-0.9-5.1,1.3-6.6c0,0,0,0,0,0c0.7-0.4,1.1-1.2,1-2c-0.1-3,0.6-5.9,2-8.5
	c0.5-1,1.2-2,1.8-3.1c-0.2-0.1-0.5-0.2-0.7-0.3c-3.3-1.3-6.6-2.6-9.9-3.9c-0.7-0.2-1.1-1-0.8-1.7c0.1-0.2,0.2-0.4,0.3-0.5
	c0.6-0.6,1.4-1.1,2.2-1.5C19.1,10.7,33.1,6,47.2,1.3l4-1.3h0.3c0.4,0.1,0.8,0.3,1.2,0.5C68,5.7,83.3,11,98.6,16.3
	c0.6,0.2,1.1,0.6,1.4,1.2V18.1z M82.3,30.3c0,4.3,0,8.5,0,12.6c0,3.2-1.8,5.2-4.1,6.9c-3.1,2.3-6.7,3.5-10.4,4.6
	c-6.3,1.6-12.8,2.3-19.3,2C42,56.3,35.5,55.1,29.4,53c-2.8-1.2-5.5-2.8-7.8-4.9c0-0.1,0.1-0.2,0.1-0.2c2.1-2.5,2.1-5.3,1.3-8.3
	c-0.5-1.3-1.3-2.4-2.4-3.3c-0.3-0.3-0.5-0.7-0.5-1.2c0-1.5,0-3,0-4.7l3.2,1.1c8.6,2.8,17.3,5.7,25.9,8.5c1.2,0.4,2.5,0.4,3.7,0
	c9.2-3.1,18.4-6.2,27.7-9.2L82.3,30.3z"/>
</svg>
