<?xml version="1.0" encoding="utf-8"?>
<!-- Generator: Adobe Illustrator 24.0.0, SVG Export Plug-In . SVG Version: 6.00 Build 0)  -->
<svg version="1.1" id="Layer_1" xmlns:serif="http://www.serif.com/"
	 xmlns="http://www.w3.org/2000/svg" xmlns:xlink="http://www.w3.org/1999/xlink" x="0px" y="0px" viewBox="0 0 100 100"
	 style="enable-background:new 0 0 100 100;" xml:space="preserve">
<style type="text/css">
	.st0{fill-rule:evenodd;clip-rule:evenodd;}
</style>
<g transform="matrix(0.4,0,0,0.4,-1.2,-1.19992)">
	<path class="st0" d="M186.2,36.6V44h9.9V23.2c0-8.2,12.5-8.2,12.5,0v13.5h30.6c7.6,0,13.8,6.2,13.8,13.8v174.8
		c0,7.6-6.2,13.8-13.8,13.8l-222.5,0C9.2,239,3,232.8,3,225.2V50.4c0-7.6,6.2-13.8,13.8-13.8h20.7V44h9.9V23.2
		c0-8.2,12.5-8.2,12.5,0v13.4H87V44h9.9V23.2c0-8.2,12.5-8.2,12.5,0v13.4h27.2V44h9.9V23.2c0-8.2,12.5-8.2,12.5,0v13.4H186.2z
		 M190.8,103.7h-24.7c-1.4,0-2.6,0.5-3.5,1.6L127.5,144c-2.3,2.6-1.2,19.8-1.2,26.1c0,2.6,2.1,4.8,4.8,4.8h34
		c0,20.1-3.3,16.9,25.8,16.9c6.5,0,4.8-9,4.8-16.9c17.5,0,15.5,1.8,15.5-17c0-6.3-8.5-4.8-15.5-4.8v-44.7
		C195.6,105.8,193.4,103.7,190.8,103.7z M85.6,170.6v-0.3c15.8-8,36.1-19.2,36.1-39.3c0-32.6-40.9-30.5-63.9-26.8
		c-5.6,0.9-4,8.8-4,17c0,8.1,9.9,2.9,19.7,2.9c17,0,24.9,14.9,4.3,28.5C48.1,172.4,52,157.8,52,187c0,2.6,2.1,4.8,4.8,4.8H117
		c6.4,0,4.8-8.8,4.8-16.4c0-2.6-2.1-4.8-4.8-4.8H85.6z M144.6,152.5l18.3-21.3l2.1,0.8v22.5c-2.6,0-19.9,0.8-20.6-0.7
		C144.2,153.3,144.3,152.8,144.6,152.5z"/>
</g>
</svg>
