<?xml version="1.0" encoding="utf-8"?>
<!-- Generator: Adobe Illustrator 19.2.1, SVG Export Plug-In . SVG Version: 6.00 Build 0)  -->
<svg version="1.1" id="Layer_1" xmlns="http://www.w3.org/2000/svg" xmlns:xlink="http://www.w3.org/1999/xlink" x="0px" y="0px"
	 viewBox="0 0 100 78.7" style="enable-background:new 0 0 100 78.7;" xml:space="preserve">
<title>dft</title>
<path d="M100,78.7H0V36.8h40.7v5h18.7v-5H100V78.7z M100,13.1v21.2H59.4v-5H40.7v5H0V13.1H100z M67.3,0v10.5h-5.6
	c0-0.2,0-0.4-0.1-0.6c0-1.1,0-2.2,0-3.4c0-2.1,0-2.1-2.1-2.1H48.8c-3.4,0-6.9,0-10.3,0c-0.6,0-0.8,0.1-0.8,0.8c0,1.7,0,3.5,0,5.3h-5
	V0H67.3z M43.5,39.6v-8h13.1v8H43.5z"/>
</svg>
