<?xml version="1.0" encoding="utf-8"?>
<!-- Generator: Adobe Illustrator 23.0.6, SVG Export Plug-In . SVG Version: 6.00 Build 0)  -->
<svg version="1.1" id="Layer_1" xmlns:serif="http://www.serif.com/"
	 xmlns="http://www.w3.org/2000/svg" xmlns:xlink="http://www.w3.org/1999/xlink" x="0px" y="0px" viewBox="0 0 100 100"
	 style="enable-background:new 0 0 100 100;" xml:space="preserve">
<path d="M92.3-5.8c4,0,7.6,3.4,7.6,7.6c0.1,32.1,0.1,64.3,0,96.4c0,3.9-3.4,7.5-7.6,7.6c-28.2,0.1-56.4,0.1-84.7,0
	c-3.9,0-7.5-3.4-7.6-7.6C0,66.1,0,33.9,0.1,1.8c0-3.9,3.4-7.5,7.6-7.6C35.9-5.9,64.1-5.9,92.3-5.8z M17.7,100
	c24.9,0.2,49.8,0.5,74.6,0c0.9,0,1.7-0.8,1.7-1.7c0.1-32.1,0.7-64.3,0-96.4c0-0.9-0.8-1.7-1.8-1.7c-24.9-0.1-49.7,0-74.6,0L17.7,100
	L17.7,100z M11.8,0.1c-1.4,0-2.7,0-4.1,0C6.8,0.1,6,0.9,6,1.8C5.4,33.9,5.2,66.1,6,98.2c0,0.9,0.8,1.7,1.7,1.7c1.4,0,2.7,0,4.1,0
	V0.1z M73.5,88.2H38.3c-0.3,0-0.5,0-0.8-0.1c-2.2-0.6-3-4.1-0.7-5.4c0.6-0.3,0.8-0.3,1.5-0.4h35.2c0.2,0,0.5,0.1,0.8,0.1
	c0.6,0.3,0.8,0.3,1.3,0.8c1.1,1.1,1.1,3,0,4.2c-0.4,0.4-0.8,0.6-1.3,0.8C74,88.1,73.7,88.1,73.5,88.2z M85.2,76.4h-47
	c-0.3,0-0.5,0-0.8-0.1c-2.2-0.6-3-4.1-0.7-5.4c0.6-0.3,0.8-0.3,1.5-0.4h47c0.3,0,0.5,0.1,0.8,0.1c0.6,0.3,0.8,0.3,1.3,0.8
	c1.1,1.1,1.1,3,0,4.2c-0.4,0.4-0.8,0.6-1.3,0.8C85.7,76.4,85.5,76.4,85.2,76.4z M85.2,64.7h-47c-0.3,0-0.5,0-0.8-0.1
	c-2.1-0.6-3.1-4-0.7-5.4c0.6-0.3,0.8-0.3,1.5-0.4h47c0.3,0,0.5,0.1,0.8,0.1c0.6,0.3,0.8,0.3,1.3,0.8c1.1,1.1,1.1,3,0,4.2
	c-0.4,0.4-0.8,0.6-1.3,0.8C85.7,64.7,85.5,64.7,85.2,64.7z M61.7,52.9H26.5c-0.7-0.1-0.9,0-1.5-0.4c-1.5-0.9-2-3.3-0.6-4.6
	c0.4-0.4,0.8-0.6,1.3-0.8c0.2-0.1,0.5-0.1,0.8-0.1h35.2c0.3,0,0.5,0.1,0.8,0.1c0.6,0.3,0.8,0.3,1.3,0.8c1.1,1.1,1.1,3,0,4.1
	c-0.4,0.4-0.8,0.6-1.3,0.8C62.3,52.9,62,52.9,61.7,52.9z M34.3,6c1.1,0.1,2,0.7,2.5,1.7c0.1,0.1,0.1,0.2,0.1,0.3l8.3,23.8
	c0.5,1.5-0.3,3.2-1.8,3.7c-1.4,0.5-3-0.2-3.6-1.5c-0.1-0.1-0.1-0.2-0.1-0.3l-2.1-6h-7.1l-2.1,6c-0.5,1.4-2.1,2.3-3.6,1.9
	c-1.4-0.4-2.4-2-2.1-3.5c0-0.1,0-0.2,0.1-0.3L31,7.9c0.2-0.5,0.2-0.5,0.4-0.7C31.9,6.5,32.8,6,33.6,6C33.8,5.9,34.1,6,34.3,6L34.3,6
	z M80.3,5.5c3,0,5.9,1.3,8.2,3.4c0.8,0.8,1.4,2.2,0.8,3.5c-0.2,0.4-0.3,0.5-0.4,0.7c-1.1,1.4-3.5,1.5-4.7,0
	c-0.2-0.3-0.2-0.3-0.3-0.3c-1.9-1.6-4.8-1.8-7-0.4c-2.5,1.6-3.5,5-3.4,8.3c0,2.4,0.5,4.9,2,6.8c1.6,2,4.6,2.8,7.2,1.5
	c0.8-0.4,1.4-1,2-1.6c0,0,0.8-0.8,1.6-1c1.6-0.4,3.4,0.8,3.6,2.5c0.2,2-1.8,3.7-3.6,4.8c-4.6,2.8-11,2.1-14.8-1.9
	c-2.8-3-3.9-7.4-3.9-11.7c0.1-5.8,2.8-12.1,8.9-14C77.7,5.7,79,5.5,80.3,5.5L80.3,5.5z M56.3,35.3H50c-0.5,0-0.7-0.1-1-0.2
	c-1-0.4-1.8-1.3-1.9-2.4c0-0.1,0-0.2,0-0.3V8.9c0-0.5,0.1-0.7,0.2-1c0.4-1,1.3-1.8,2.4-2c0.2,0,0.2,0,0.3,0c1.9,0,3.7,0,5.6,0
	c2.3,0,4.6,0.4,6.5,1.9c3.5,2.7,4,8.4,1.4,11.9c4.1,3.7,3.8,11.9-2.3,14.7C59.7,35,58,35.3,56.3,35.3z M56.2,23h-3.3v6.5
	c2.3,0,4.9,0.5,6.5-0.8c0.6-0.5,0.7-1.5,0.8-2.3c0.1-1.3-0.5-2.7-2.3-3c-0.4-0.1-0.9-0.1-0.9-0.1C56.7,23.2,56.5,23.1,56.2,23
	L56.2,23z M32.4,21.8h3l-1.5-4.4C33.4,18.9,32.9,20.3,32.4,21.8z M57.7,17.1L57.7,17.1c1.2-0.6,1.8-1.9,1.4-3.5
	c-0.3-1.3-1.9-1.8-3.6-1.8c-0.9,0-1.7,0-2.6,0v5.3H57.7L57.7,17.1z"/>
</svg>
