<?xml version="1.0" encoding="utf-8"?>
<!-- Generator: Adobe Illustrator 23.0.6, SVG Export Plug-In . SVG Version: 6.00 Build 0)  -->
<svg version="1.1" id="Layer_1" xmlns:serif="http://www.serif.com/"
	 xmlns="http://www.w3.org/2000/svg" xmlns:xlink="http://www.w3.org/1999/xlink" x="0px" y="0px" viewBox="0 0 100 100"
	 style="enable-background:new 0 0 100 100;" xml:space="preserve">
<style type="text/css">
	.st0{fill-rule:evenodd;clip-rule:evenodd;}
</style>
<path class="st0" d="M88.5,0C94.8,0,100,5.2,100,11.5v77c0,6.4-5.2,11.5-11.5,11.5h-77C5.2,100,0,94.8,0,88.5v-77
	C0,5.2,5.2,0,11.5,0H88.5z M76.4,89.2V10H61.1v35c-2.4-2.8-4.8-4.8-7.2-6.1c-2.3-1.2-5.2-1.9-8.6-1.9c-6,0-11.1,2.6-15.3,7.8
	s-6.4,11.5-6.4,18.8c0,7.4,2.1,13.6,6.2,18.7c4.1,5.1,9.1,7.7,15,7.7c6.5,0,12-3.2,16.5-9.6h0.2v8.7L76.4,89.2L76.4,89.2z
	 M49.9,52.1c-2.5,0-4.8,1.2-7,3.4c-2.2,2.3-3.2,5.4-3.2,9.3c0,3.1,1,5.8,2.9,8c1.9,2.2,4.2,3.3,7,3.3c3.2,0,5.9-1.2,8.1-3.6
	s3.3-5.4,3.3-8.9c0-3.1-1.1-5.8-3.2-8.1C55.6,53.3,53,52.1,49.9,52.1L49.9,52.1z"/>
</svg>
