<?xml version="1.0" encoding="utf-8"?>
<!-- Generator: Adobe Illustrator 23.0.6, SVG Export Plug-In . SVG Version: 6.00 Build 0)  -->
<svg version="1.1" id="Layer_1" xmlns:serif="http://www.serif.com/"
	 xmlns="http://www.w3.org/2000/svg" xmlns:xlink="http://www.w3.org/1999/xlink" x="0px" y="0px" viewBox="0 0 100 100"
	 style="enable-background:new 0 0 100 100;" xml:space="preserve">
<path d="M10,16.2l-9.1-3.7c-0.7-0.3-1-1-0.7-1.7c0.3-0.7,1-1,1.7-0.7l19.8,8.1c0.7,0.3,1,1,0.7,1.7c-0.2,0.5-0.7,0.8-1.2,0.8
	c-0.2,0-0.3,0-0.5-0.1l-8.1-3.3v66l4.8,4.7c0.5,0.5,0.5,1.3,0,1.9c-0.5,0.5-1.3,0.5-1.9,0l-4-3.9c-0.1,0-0.2,0-0.3,0
	c0,0-0.1,0-0.1,0l-3.3,3.8c-0.3,0.3-0.6,0.5-1,0.5c-0.3,0-0.6-0.1-0.9-0.3c-0.5-0.5-0.6-1.3-0.1-1.9l4.1-4.7V16.6
	C9.9,16.5,9.9,16.3,10,16.2L10,16.2z M29.4,82.5c-4.9-4.7-8-11.3-8-18.6C21.5,49.6,33,38,47.3,38s25.8,11.6,25.8,25.8
	c0,7.2-3,13.8-7.8,18.5l6.2,5.1c0.6,0.5,0.6,1.3,0.2,1.8c-0.3,0.3-0.6,0.5-1,0.5c-0.3,0-0.6-0.1-0.8-0.3l-6.4-5.2
	c0,0-0.1-0.1-0.1-0.1c-4.4,3.5-10,5.6-16,5.6c-5.9,0-11.4-2-15.8-5.4l-6.3,5.2c-0.2,0.2-0.5,0.3-0.8,0.3c-0.4,0-0.8-0.2-1-0.5
	c-0.5-0.6-0.4-1.4,0.2-1.8L29.4,82.5L29.4,82.5z M86.5,42.3h-9.2c-0.7,0-1.3-0.6-1.3-1.3c0-0.7,0.6-1.3,1.3-1.3h21.4
	c0.7,0,1.3,0.6,1.3,1.3c0,0.7-0.6,1.3-1.3,1.3h-9.8c0.1,0.2,0.1,0.3,0.1,0.5v39.9l4.1,4.7c0.5,0.5,0.4,1.4-0.1,1.9
	c-0.2,0.2-0.6,0.3-0.9,0.3c-0.4,0-0.7-0.2-1-0.5l-3.3-3.8c0,0-0.1,0-0.1,0c-0.1,0-0.2,0-0.3,0l-4,3.9c-0.5,0.5-1.3,0.5-1.9,0
	s-0.5-1.3,0-1.9l4.8-4.7V42.8C86.4,42.7,86.4,42.5,86.5,42.3L86.5,42.3z M47.3,40.6c-12.8,0-23.2,10.4-23.2,23.2
	C24.1,76.6,34.5,87,47.3,87s23.2-10.4,23.2-23.2C70.4,51,60,40.6,47.3,40.6L47.3,40.6z M47.3,84.1c-11.3,0-20.5-9.2-20.5-20.5
	s9.2-20.5,20.5-20.5s20.5,9.2,20.5,20.5S58.6,84.1,47.3,84.1z M47.3,45.7c-9.9,0-17.9,8-17.9,17.9c0,9.9,8,17.9,17.9,17.9
	c9.9,0,17.9-8,17.9-17.9C65.1,53.7,57.1,45.7,47.3,45.7z M21.8,42.7c-1.5,0-2-1.4-2.2-2l-4.1-11.3c-0.8-2.1,0.2-3,1.1-3.3L37,18.8
	c0.3-0.1,0.5-0.1,0.8-0.1c1.5,0,2,1.4,2.2,2L44,31.9c0.8,2.1-0.2,3-1.1,3.3l-20.3,7.3C22.3,42.7,22.1,42.7,21.8,42.7L21.8,42.7z
	 M71,42.3c-0.3,0-0.5,0-0.8-0.1l-20.3-7.3c-0.9-0.3-1.9-1.2-1.1-3.3l4.1-11.3c0.2-0.6,0.7-2,2.2-2c0.3,0,0.5,0.1,0.8,0.1l20.3,7.3
	c0.9,0.3,1.9,1.2,1.1,3.3l-4.1,11.3C73,40.9,72.5,42.3,71,42.3L71,42.3z M41.2,31.8l-19.5,6.9l0.4,1.1c0,0,0,0.1,0,0.1l19.4-7
	c0,0,0-0.1,0-0.1L41.2,31.8z M51.7,31.4l-0.4,1c0,0,0,0.1,0,0.1l19.5,7c0,0,0-0.1,0-0.1l0.4-1.1L51.7,31.4L51.7,31.4z M98.7,38.7
	H77.3c-0.7,0-1.3-0.6-1.3-1.3s0.6-1.3,1.3-1.3h21.4c0.7,0,1.3,0.6,1.3,1.3S99.4,38.7,98.7,38.7z M19.4,32.2l1.5,4.1l19.5-6.9
	l-1.5-4.1L19.4,32.2L19.4,32.2z M52.6,28.9L72,35.9l1.5-4.1l-19.5-7L52.6,28.9L52.6,28.9z M37.9,22.7l-0.4-1.2c0,0,0-0.1,0-0.1
	l-19.5,7c0,0,0,0.1,0,0.1l0.4,1.2L37.9,22.7z M74.4,29.3l0.4-1.2c0,0,0-0.1,0-0.1l-19.5-7c0,0,0,0.1,0,0.1l-0.4,1.2L74.4,29.3
	L74.4,29.3z"/>
</svg>
