<?xml version="1.0" encoding="UTF-8" standalone="no"?>
<!DOCTYPE svg PUBLIC "-//W3C//DTD SVG 1.1//EN" "http://www.w3.org/Graphics/SVG/1.1/DTD/svg11.dtd">
<svg width="100%" height="100%" viewBox="0 0 100 100" version="1.1" xmlns="http://www.w3.org/2000/svg" xmlns:xlink="http://www.w3.org/1999/xlink" xml:space="preserve" xmlns:serif="http://www.serif.com/" style="fill-rule:evenodd;clip-rule:evenodd;stroke-linejoin:round;stroke-miterlimit:2;">
    <g transform="matrix(0.1,0,0,0.1,1.38698e-11,-2.40678e-08)">
        <path d="M223.211,713.931L223.211,782.758L334.572,847.052C338.418,849.272 339.737,854.197 337.517,858.043L329.471,871.979C327.25,875.825 322.326,877.145 318.48,874.924L207.119,810.63L95.759,874.924C91.913,877.145 86.988,875.825 84.768,871.979L76.722,858.043C74.501,854.197 75.821,849.272 79.667,847.052L191.027,782.758L191.027,713.931L149.038,713.931C137.196,713.931 127.582,704.317 127.582,692.475L127.582,402.925C127.582,391.084 137.196,381.47 149.038,381.469L191.027,381.469L191.027,209.517C82.181,197.323 -1.969,171.994 0.035,151.242C1.902,131.908 77.932,122.982 176.6,129.014C185.509,124.849 200.416,122.964 216.987,124.564C233.558,126.164 247.829,130.866 255.777,136.658C353.777,149.614 426.694,172.921 424.828,192.255C422.806,213.197 333.775,221.928 223.211,212.666L223.211,381.469L256.84,381.469L256.84,248.005C256.84,236.164 266.454,226.55 278.296,226.549L482.327,226.549C494.17,226.55 503.783,236.164 503.783,248.005L503.783,352.447L550.059,352.447L550.059,248.005C550.059,236.164 559.673,226.55 571.515,226.549L775.546,226.549C787.388,226.55 797.002,236.164 797.002,248.005L797.002,275.724C803.777,275.267 810.776,274.898 817.959,274.623C824.192,269.312 835.54,265.757 848.494,265.757C861.449,265.757 872.797,269.312 879.029,274.623C948.032,277.26 1000,288.656 1000,302.296C1000,316.797 941.269,328.761 865.776,330.362L865.776,782.767L977.12,847.052C980.966,849.272 982.286,854.197 980.065,858.043L972.019,871.979C969.799,875.825 964.874,877.145 961.028,874.924L849.668,810.63L738.307,874.924C734.461,877.145 729.537,875.825 727.316,871.979L719.27,858.043C717.05,854.197 718.369,849.272 722.215,847.052L833.576,782.758L833.576,330.409C820.86,330.177 808.602,329.651 797.002,328.868L797.002,371.378C797.002,383.22 787.389,392.833 775.546,392.834L571.515,392.834C564.674,392.834 558.576,389.626 554.645,384.631L543.438,384.631L543.438,432.494C545.649,432.669 547.856,432.878 550.059,433.12L550.059,429.572C550.059,417.731 559.673,408.117 571.515,408.116L796.264,408.116C808.106,408.117 817.72,417.731 817.72,429.572L817.72,499.294C817.72,511.135 808.107,520.749 796.264,520.75L704.565,520.75L704.805,521.071C746.001,576.141 759.754,650.903 739.559,717.967C727.345,758.525 702.86,795.196 670.611,822.849L698.652,850.89C701.792,854.03 701.792,859.128 698.652,862.268L687.273,873.647C684.133,876.787 679.034,876.787 675.894,873.647L644.444,842.197C634.146,848.707 623.305,854.369 612.027,859.061C558.201,881.456 495.536,881.461 441.698,859.061C430.404,854.362 419.551,848.682 409.243,842.141L377.736,873.647C374.596,876.787 369.497,876.787 366.357,873.647L354.978,862.268C351.838,859.128 351.838,854.03 354.978,850.89L383.126,822.742C350.119,794.292 325.208,756.227 313.091,713.931L223.211,713.931ZM526.292,464.028L526.247,464.028L526.213,464.028C421.709,464.379 336.975,549.329 336.975,653.915C336.975,674.884 340.381,695.063 346.671,713.931L346.669,713.931L346.871,714.531L346.902,714.621C363.808,764.693 401.042,805.441 448.767,827.026C450.52,827.823 452.287,828.591 454.067,829.332C456.074,830.167 458.095,830.965 460.129,831.726C480.894,839.532 503.383,843.802 526.863,843.802C631.59,843.802 716.63,758.837 716.75,654.137L716.75,654.05L716.75,654.002L716.75,653.915L716.749,653.422L716.749,653.299C716.749,653.104 716.748,652.909 716.746,652.714C716.101,548.683 631.62,464.382 527.52,464.028L527.479,464.028L527.433,464.028L526.863,464.027L526.292,464.028ZM591.733,673.436C620.244,673.436 643.392,696.583 643.392,725.094C643.392,753.605 620.244,776.753 591.733,776.753C563.222,776.753 540.075,753.605 540.075,725.094C540.075,696.583 563.222,673.436 591.733,673.436ZM511.254,384.631L503.783,384.631L503.783,388.781C503.783,400.622 494.17,410.235 482.327,410.237L423.348,410.237L423.348,457.66C450.269,443.437 480.193,434.591 511.254,432.377L511.254,384.631Z"/>
    </g>
</svg>
