<?xml version="1.0" encoding="utf-8"?>
<!-- Generator: Adobe Illustrator 23.0.6, SVG Export Plug-In . SVG Version: 6.00 Build 0)  -->
<svg version="1.1" id="Layer_1" xmlns:sketch="http://www.bohemiancoding.com/sketch/ns"
	 xmlns="http://www.w3.org/2000/svg" xmlns:xlink="http://www.w3.org/1999/xlink" x="0px" y="0px" viewBox="0 0 100 100"
	 style="enable-background:new 0 0 100 100;" xml:space="preserve">
<title></title>
<desc></desc>
<path d="M37.7,83.4c-2.1,0-4.2-0.4-6.3-0.4c-2.5-0.4-4.6-0.4-7.1-0.8c-0.8,0-1.3-0.4-1.3-0.8c0-7.1,0-14.3,0-21.4
	c0-0.8,0-0.8,1.3-0.4c7.1,1.3,13.8,1.7,21,1.3c5,0,10.1-0.4,15.1-1.3c1.3,0,1.3,0,1.3,0.8c0,7.1,0,13.8,0,21c0,0.8,0,0.8-1.3,1.3
	c-3.8,0.4-7.6,0.8-11.3,0.8h-0.4C48.6,83.4,37.7,83.4,37.7,83.4z M0.3,40.6c1.3-3.8,5-6.3,10.1-8.4c6.3-2.5,13.4-3.8,21-4.6
	c3.8-0.4,7.6-0.4,11.3-0.4h0.4c0.4,0,0.4,0,0.8,0c0,0.4-0.4,0.4-0.4,0.4c-2.1,1.3-4.2,2.1-6.7,3.4c-0.8,0.4-1.7,0.4-2.5,0.4
	c-7.1,0.4-14.3,1.7-20.6,4.2c-2.1,0.8-4.2,2.1-5.9,3.4c-2.1,2.1-2.1,4.2,0,5.9c2.5,2.1,5.5,3.4,8.8,4.2c6.7,2.1,13.4,2.9,20.6,3.4
	c9.2,0.4,18,0,26.8-1.7c3.8-0.8,7.6-1.7,10.9-3.8c2.5-1.7,4.2-3.4,3.8-5.9c0-0.8-0.8-1.7-1.7-2.5c-0.4-0.4-0.8,0-1.3,0
	c-4.2,0.8-8.4,1.7-12.6,2.5c-5.9,1.3-11.7,2.5-17.6,3.4c-0.4,0-0.8,0.4-1.7,0c-0.4,0-0.8-0.4-0.8-0.8c0-0.4,0.4-0.4,0.8-0.8
	c3.4-0.8,6.7-1.7,9.6-2.5c13.4-3.4,27.3-6.3,40.7-9.6c1.3-0.4,2.1-0.4,3.4-0.4c2.1,0,2.9,1.3,1.7,2.5c-0.8,0.8-2.1,0.8-3.4,1.3
	c-4.2,0.8-8.4,1.7-12.6,2.5c-0.8,0-0.8,0.4-0.4,0.8c2.9,3.4,1.7,8.4-2.1,10.9c-3.4,2.5-7.6,4.2-12.2,5.5c-5.5,1.3-11.3,2.1-17.6,2.5
	c-5.9,0.4-11.3,0.4-17.2,0c-8.4-0.4-16.8-2.1-23.9-5c-3.8-1.7-7.1-3.4-8.8-6.3c-0.4-0.8-0.8-1.3-1.3-2.1v-2.1H0.3z M0.3,46.1
	c0.4,0.4,0,0.8,0.4,1.3c0.8,2.5,3.4,4.6,6.7,6.3c2.5,1.3,5,2.1,7.6,2.9c0.8,0.4,0.8,0.4,0.8,0.8c0,7.1,0,14.3,0,21.4
	c0,0.8,0,0.8-1.3,0.4c-2.5-0.8-4.6-1.7-6.7-2.5c-3.8-1.7-6.7-4.2-7.6-7.1V46.1z M85.1,46.5v0.8c0,6.7,0,13.8,0,20.6
	c0,5-3.4,8.8-10.1,11.3c-1.7,0.4-2.9,1.3-4.6,1.7c-0.8,0.4-1.3,0.4-1.3-0.4c0-3.8,0-7.6,0-10.9s0-6.7,0-10.1c0-0.4,0.4-0.8,1.3-1.3
	c3.4-0.8,6.3-2.1,8.8-3.8c2.9-1.7,4.6-3.8,5.5-6.7C85.1,47.3,85.1,46.9,85.1,46.5C85.1,46.9,85.1,46.5,85.1,46.5L85.1,46.5z
	 M61.2,28.4c2.9,0.4,5.9,1.3,8.4,1.7c1.3,0.4,2.5,0.8,3.4,1.3c0.8,0,0.4,0.4,0,0.4c-1.7,0.4-3.8,1.3-5.5,1.7c-0.4,0-0.8,0-1.3,0
	c-3.8-0.8-7.6-1.7-11.3-2.1c-1.7-0.4-2.9,0-4.6,0.4c-4.2,1.7-8.8,2.9-13,4.6c-0.8,0.4-1.7,0-2.1-0.4c-0.4-0.4,0.4-0.8,0.8-1.3
	c3.4-1.3,6.7-2.5,10.1-4.2c11.3-4.6,22.2-8.8,33.6-13.4c0.8-0.4,1.7-0.8,2.9-0.4c1.7,0.4,2.5,1.3,1.7,2.5c-0.4,0.4-1.3,0.8-2.1,1.3
	c-7.1,2.5-13.8,5-21,7.6C61.6,28.4,61.2,28.4,61.2,28.4"/>
</svg>
