<?xml version="1.0" encoding="utf-8"?>
<!-- Generator: Adobe Illustrator 24.0.0, SVG Export Plug-In . SVG Version: 6.00 Build 0)  -->
<svg version="1.1" id="Layer_1" xmlns:serif="http://www.serif.com/"
	 xmlns="http://www.w3.org/2000/svg" xmlns:xlink="http://www.w3.org/1999/xlink" x="0px" y="0px" viewBox="0 0 100 100"
	 style="enable-background:new 0 0 100 100;" xml:space="preserve">
<style type="text/css">
	.st0{fill-rule:evenodd;clip-rule:evenodd;}
</style>
<g id="snare" transform="matrix(0.332514,0,0,0.332514,-280.39,-1.30895)">
	<path class="st0" d="M920.9,101.1c-2.5-5.2-3.8-11.1-3.8-17.3c0-22.4,18.2-40.7,40.7-40.7s40.7,18.2,40.7,40.7
		c0,3.6-0.5,7.2-1.4,10.5c1.9-0.4,3.9-0.8,5.9-1c1.1-0.7,2.4-1.2,3.9-1.2c1.4,0,2.8,0.4,3.9,1.2c8.9,0.8,17,4.3,23.4,9.7
		c1.3,0.3,2.6,0.9,3.6,1.9c1,1,1.7,2.3,1.9,3.6c0.6,0.8,1.3,1.6,1.9,2.4c7.2-20.6,26.8-35.4,49.8-35.4c29.1,0,52.7,23.6,52.7,52.7
		c0,19.1-10.2,35.9-25.5,45.1c0.1,0.1,0.2,0.2,0.3,0.3c1,1,1.6,2.2,1.9,3.5c7.2,8.3,11.9,19,12.7,30.6c0.7,1.1,1.1,2.4,1.1,3.8
		s-0.4,2.7-1.1,3.8c-0.8,11.7-5.5,22.3-12.7,30.6c-0.3,1.3-0.9,2.5-1.9,3.5c-1,1-2.2,1.6-3.5,1.9c-8.3,7.2-19,11.8-30.6,12.7
		c-1.1,0.7-2.4,1.1-3.8,1.1c-1.4,0-2.7-0.4-3.8-1.1c-11.7-0.8-22.3-5.5-30.6-12.7c-1.3-0.3-2.5-0.9-3.5-1.9c-1-1-1.6-2.2-1.9-3.5
		c-7.2-8.3-11.9-19-12.7-30.6c-0.7-1.1-1.1-2.4-1.1-3.8s0.4-2.7,1.1-3.8c0.8-11.7,5.5-22.3,12.7-30.6c0.3-1.3,0.9-2.5,1.9-3.5
		c1-1,2.2-1.6,3.5-1.9c2.5-2.2,5.2-4.1,8.1-5.8c-3.6-3.5-6.7-7.5-9.2-11.9c-1.5,3.2-3.5,6.3-5.8,9c-0.3,1.3-0.9,2.6-1.9,3.6
		c-1,1-2.3,1.7-3.6,1.9c-6.5,5.4-14.6,8.9-23.4,9.7c-1.1,0.7-2.4,1.2-3.9,1.2c-1.4,0-2.8-0.4-3.9-1.2c-8.9-0.8-16.9-4.3-23.4-9.7
		c-1.3-0.3-2.6-0.9-3.6-1.9c-1-1-1.7-2.3-1.9-3.6c-5.4-6.5-8.9-14.5-9.7-23.4c-0.7-1.1-1.2-2.4-1.2-3.9c0-1.4,0.4-2.8,1.2-3.9
		c0.3-2.9,0.8-5.7,1.6-8.4l-0.2,0c-2.6,0.5-5.2,0.8-7.9,0.8c-0.5,0-1.1,0-1.6,0c0.7,2.2,1.3,4.5,1.5,6.8c0.8,1.1,1.2,2.5,1.2,4
		c0,1.5-0.5,2.8-1.2,4c-0.7,6.4-3.3,12.2-7.1,17c-0.2,1.4-0.9,2.6-1.9,3.7c-1,1-2.3,1.7-3.7,1.9c-4.8,3.8-10.6,6.3-17,7.1
		c-1.1,0.8-2.5,1.2-4,1.2c-1.5,0-2.8-0.5-4-1.2c-6.4-0.7-12.2-3.3-17-7.1c-1.4-0.2-2.6-0.9-3.7-1.9c-1-1-1.7-2.3-1.9-3.7
		c-3.8-4.8-6.3-10.6-7.1-17c-0.8-1.1-1.2-2.5-1.2-4c0-1.5,0.5-2.8,1.2-4c0.7-6.4,3.3-12.2,7.1-17c0.2-1.3,0.9-2.6,1.9-3.7
		c1-1,2.3-1.7,3.7-1.9c4.8-3.8,10.6-6.3,17-7.1C920.3,101.5,920.6,101.3,920.9,101.1z M1116.1,174.8c-0.3,0.1-0.5,0.3-0.8,0.4
		c11.6,10.9,17.4,27.5,15.3,43.2c-1.5,11.1-6.9,21.6-14.9,29.4c-9.3,8.9-22,14.1-34.9,14.1c-19,0-37.1-11.6-45.3-28.4
		c-4.6-9.6-6.1-20.8-4.1-31.3c2-10.3,7.3-19.9,14.9-27c3-2.8,6.4-5.3,10-7.3c-0.2-0.2-0.5-0.4-0.7-0.6c-8.8,5-16.1,12.4-20.6,21.4
		c-4.7,9.2-6.4,19.9-5,30.2c1.6,11.2,7,21.8,15.2,29.7c9.4,9.1,22.5,14.4,35.5,14.4c19.5,0,38-11.9,46.3-29.3
		c4.7-9.8,6.1-21.2,3.9-31.9c-2-10.2-7.3-19.8-14.8-27L1116.1,174.8z M962.2,178.8c1.1-0.7,2.4-1.2,3.7-1.2c1.4,0,2.7,0.4,3.7,1.2
		c7.7,0.8,14.7,3.8,20.3,8.4c1.3,0.2,2.5,0.8,3.5,1.8c1,1,1.6,2.2,1.8,3.5c4.6,5.6,7.7,12.6,8.4,20.3c0.8,1.1,1.2,2.4,1.2,3.7
		c0,1.4-0.4,2.7-1.2,3.7c-0.8,7.7-3.8,14.7-8.4,20.3c-0.2,1.3-0.8,2.5-1.8,3.5c-1,1-2.2,1.6-3.5,1.8c-5.6,4.6-12.6,7.7-20.3,8.4
		c-1.1,0.7-2.4,1.2-3.7,1.2c-1.4,0-2.7-0.4-3.7-1.2c-7.7-0.8-14.7-3.8-20.3-8.4c-1.3-0.2-2.5-0.8-3.5-1.8c-1-1-1.6-2.2-1.8-3.5
		c-4.6-5.6-7.7-12.6-8.4-20.3c-0.7-1.1-1.2-2.4-1.2-3.7c0-1.4,0.4-2.7,1.2-3.7c0.8-7.7,3.8-14.7,8.4-20.3c0.2-1.3,0.8-2.5,1.8-3.5
		c1-1,2.2-1.6,3.5-1.8C947.6,182.6,954.6,179.5,962.2,178.8z M966.2,180.1c13.1,0.1,25.8,7.8,31.9,19.3c5.3,10,5.7,22.5,0.8,32.8
		c-6.8,14.2-23.3,23.2-39.4,20.3c-11.2-2-21.3-9.6-26.3-19.9c-4.9-10.1-4.8-22.4,0.2-32.4c5.9-11.8,18.6-19.8,31.9-20.1
		C965.6,180.1,965.9,180.1,966.2,180.1z M965.7,181.1c-12.7,0.1-25.1,7.6-31,18.7c-5.2,9.7-5.5,21.9-0.8,31.9
		c6.6,14,23,22.7,38.8,19.6c10.8-2.1,20.5-9.5,25.2-19.5c4.7-9.7,4.6-21.7-0.3-31.3c-5.8-11.4-17.9-19.2-31-19.5
		C966.4,181.1,966.1,181.1,965.7,181.1z M876.2,164.6c18.2,0,33,14.8,33,33c0,18.2-14.8,33-33,33c-18.2,0-33-14.8-33-33
		C843.2,179.4,858,164.6,876.2,164.6z M876.4,166.3c11.4,0.1,22.4,6.9,27.6,16.9c4.4,8.6,4.6,19.2,0.5,27.9
		c-5.9,12.4-20.5,20.1-34.5,17.3c-12.6-2.5-23.1-13.6-24.9-26.4c-1.4-9.8,2.2-20.1,9.3-27c5.7-5.5,13.6-8.7,21.6-8.8
		C876.2,166.3,876.3,166.3,876.4,166.3z M876,167.3c-10.8,0.1-21.3,6.4-26.5,15.9c-4.5,8.3-4.8,18.7-0.8,27.3
		c5.6,12.1,19.7,19.6,33.3,17c12.3-2.4,22.5-13,24.3-25.4c1.4-9.6-2.1-19.7-9.1-26.4C891.6,170.3,884,167.2,876,167.3z M876.4,167.8
		c10.9,0.1,21.4,6.6,26.3,16.2c4.2,8.1,4.3,18.2,0.3,26.5c-5.6,11.7-19.5,18.9-32.7,16.3c-12-2.4-22-12.9-23.7-25
		c-1.3-9.3,2.1-19.1,8.8-25.6c5.4-5.2,12.9-8.3,20.5-8.4C876.2,167.8,876.3,167.8,876.4,167.8z M876.1,168.8
		c-10.6,0.1-20.8,6.4-25.5,15.8c-4,7.8-4,17.5-0.2,25.4c4.7,9.7,15.1,16.3,25.9,16.3c10.8,0,21.3-6.6,25.9-16.3
		c3.9-8,3.7-17.8-0.4-25.7c-4.8-9.2-14.6-15.4-25.2-15.5C876.4,168.8,876.2,168.8,876.1,168.8z M876.4,169.4
		c10.3,0.1,20.4,6.3,25,15.5c3.8,7.6,4,17,0.3,24.7c-4.5,9.5-14.7,16.1-25.3,16.1c-10.6,0.1-20.9-6.3-25.5-15.8
		c-3.8-7.7-3.8-17.1,0-24.7c4.5-9.3,14.3-15.6,24.8-15.8C875.9,169.4,876.2,169.4,876.4,169.4z M876.1,170.4
		c-9.8,0.1-19.3,5.9-23.9,14.5c-3.9,7.4-4.1,16.7-0.5,24.3c4.4,9.2,14.2,15.5,24.4,15.6c10.2,0.1,20.1-6.1,24.6-15.3
		c3.7-7.5,3.6-16.7-0.1-24.2c-4.4-8.8-13.7-14.7-23.8-15C876.5,170.4,876.3,170.4,876.1,170.4z M876.4,170.9
		c9.7,0.1,19.1,5.8,23.5,14.4c3.8,7.3,3.9,16.3,0.4,23.7c-4.3,9-14,15.2-24,15.3c-10,0.1-19.8-6-24.2-15c-3.6-7.4-3.5-16.4,0.1-23.7
		c4.3-8.6,13.5-14.5,23.3-14.7C875.9,170.9,876.2,170.9,876.4,170.9z M876.1,171.9c-11.7,0.1-22.7,9.1-25.1,20.7
		c-1.7,8.3,1.2,17.5,7.3,23.4c7.1,7,18.4,9.2,27.7,5.4c8.2-3.4,14.4-11.3,15.7-20.1c1.2-7.9-1.7-16.4-7.4-22
		C889.5,174.6,882.8,171.9,876.1,171.9z M876.4,172.3c9.1,0.1,17.9,5.4,22.2,13.4c3.7,6.9,3.9,15.6,0.6,22.8
		c-4.1,8.6-13.2,14.4-22.7,14.5c-9.5,0.1-18.7-5.7-22.9-14.2c-3.4-6.9-3.4-15.4,0.1-22.4c4.1-8.2,12.8-13.9,22.2-14.1
		C876,172.3,876.2,172.3,876.4,172.3z M876.1,173.3c-11.1,0.1-21.5,8.6-23.7,19.6c-1.6,7.9,1.1,16.5,6.9,22.1
		c6.7,6.6,17.4,8.7,26.2,5.1c7.8-3.2,13.7-10.7,14.9-19c1.5-10.3-4.3-21.2-13.8-25.6C883.3,174.1,879.7,173.3,876.1,173.3z
		 M876.4,173.7c10.9,0.1,21.2,8.5,23.3,19.2c1.5,7.8-1.1,16.2-6.8,21.8c-6.6,6.5-17.2,8.5-25.7,5c-7.7-3.1-13.4-10.5-14.6-18.7
		c-1.5-10.1,4.3-20.8,13.6-25.2C869.3,174.4,872.8,173.7,876.4,173.7z M876.1,174.7c-10.5,0.1-20.4,8.2-22.4,18.6
		c-1.4,7.4,1.1,15.5,6.5,20.7c6.4,6.2,16.4,8.2,24.7,4.8c7.3-3,12.9-10,14-17.9c1.4-9.7-4.1-20-13-24.1
		C882.9,175.4,879.5,174.7,876.1,174.7z M876.4,175c10.3,0.1,20,8,22,18.2c1.5,7.3-1,15.3-6.4,20.6c-6.3,6.1-16.2,8.1-24.3,4.8
		c-7.3-3-12.7-10-13.8-17.8c-1.3-9.5,4.1-19.5,12.8-23.6C869.7,175.7,873,175,876.4,175z M876.1,176c-9.9,0.1-19.1,7.6-21,17.4
		c-1.4,7,0.9,14.6,6,19.6c5.9,5.9,15.4,7.8,23.2,4.7c7-2.8,12.2-9.5,13.3-16.9c1.3-9.1-3.8-18.7-12.1-22.7
		C882.6,176.7,879.3,176,876.1,176z M876.4,176.3c9.9,0.1,19.2,7.8,20.9,17.7c1.2,7.1-1.5,14.8-6.9,19.6c-5.9,5.2-14.7,6.8-22,3.9
		c-6.5-2.5-11.5-8.4-13-15.2c-1.5-6.7,0.4-14,5-19c4-4.4,9.7-6.9,15.7-7C876.2,176.3,876.3,176.3,876.4,176.3z M876.1,177.3
		c-9.4,0.1-18.2,7.3-19.9,16.8c-1.2,6.8,1.3,14,6.4,18.7c5.6,5.1,14,6.6,21,3.9c6.2-2.4,11.1-8.1,12.5-14.6
		c1.4-6.2-0.4-13.1-4.7-17.8C887.6,179.8,881.9,177.3,876.1,177.3z M876.4,177.5c9.3,0.1,18,7.3,19.7,16.6
		c1.2,6.6-1.2,13.7-6.1,18.3c-5.5,5.2-14.1,6.8-21.1,4c-5.8-2.3-10.4-7.4-12.1-13.5c-1.7-6.3-0.1-13.5,4.2-18.5
		c3.7-4.3,9.2-6.9,15-7C876.1,177.5,876.2,177.5,876.4,177.5z M876.1,178.5c-8.8,0.1-17,6.8-18.7,15.5c-1.7,8.6,3.4,18,11.6,21.4
		c8.5,3.5,19.2-0.2,23.9-8.2c3.9-6.8,3.1-16.1-2.1-22.1c-3.5-4.1-8.8-6.5-14.2-6.6C876.4,178.5,876.2,178.5,876.1,178.5z
		 M876.4,178.7c8.4,0.1,16.4,6.3,18.3,14.6c1.4,6.2-0.5,13.1-5.1,17.6c-5.2,5.2-13.7,6.9-20.5,4.1c-5.6-2.3-9.9-7.4-11.3-13.2
		c-1.9-8.3,2.5-17.6,10.2-21.3C870.6,179.3,873.5,178.7,876.4,178.7z M876.1,179.7c-8,0.1-15.5,6-17.3,13.9
		c-1.9,8.1,2.7,17.1,10.3,20.5c6.4,2.8,14.4,1.4,19.5-3.5c5.4-5.2,7.1-13.9,3.8-20.7C889.5,183.8,883.1,179.7,876.1,179.7z
		 M876.5,180c8,0.2,15.5,6.3,17.1,14.3c1.5,7.9-3.2,16.6-10.6,19.6c-6.2,2.6-13.9,1.1-18.8-3.6c-5.4-5.1-7-13.8-3.6-20.6
		c2.9-5.8,9-9.7,15.5-9.8C876.2,180,876.2,180,876.5,180z M876,181c-7.6,0.1-14.7,6-16.1,13.5c-1.4,7.5,3,15.6,10,18.5
		c5.9,2.4,13.1,1,17.7-3.4c5.1-4.9,6.6-13.2,3.3-19.6c-2.7-5.3-8.5-8.9-14.6-9C876.2,181,876.2,181,876,181z M876.4,181.3
		c7.5,0.1,14.4,5.9,15.8,13.2c1.4,7.3-2.9,15.4-9.9,18.2c-5.8,2.4-12.9,1-17.4-3.3c-5.1-4.9-6.5-13.3-3.1-19.6
		c2.7-5.1,8.3-8.4,14.1-8.5C876.2,181.3,876.2,181.3,876.4,181.3z M876,182.3c-7,0.1-13.5,5.5-14.8,12.4c-1.3,6.9,2.8,14.4,9.3,17.1
		c5.4,2.2,12.1,1,16.3-3.1c4.8-4.6,6.1-12.5,2.9-18.4c-2.6-4.8-7.8-7.9-13.3-8C876.2,182.3,876.2,182.3,876,182.3z M876.3,182.5
		c0,0,0.1,0,0.2,0c6.9,0.1,13.4,5.5,14.7,12.3c1.3,6.8-2.7,14.3-9.2,16.9c-1.8,0.7-3.7,1.1-5.6,1.1h0c-3.9,0-7.8-1.4-10.6-4.1
		c-4.7-4.5-6-12.2-3-18c2.5-4.8,7.7-8,13.2-8.1C876.1,182.5,876.2,182.5,876.3,182.5L876.3,182.5z M876.2,183.5c0,0-0.1,0-0.2,0
		c-6.5,0.1-12.5,5.1-13.7,11.5c-1.2,6.4,2.5,13.3,8.5,15.8c1.6,0.7,3.3,1,5,1h0c5.3,0,10.7-3,13.1-7.9c3.2-6.7,0.1-15.7-6.8-19
		c-1.8-0.8-3.8-1.3-5.8-1.3C876.4,183.5,876.3,183.5,876.2,183.5L876.2,183.5z M876.4,183.8c6.3,0.1,12.2,5,13.4,11.2
		c1.2,6.2-2.5,13-8.3,15.4c-6.4,2.6-14.6-0.5-17.6-6.8c-3.1-6.5-0.1-15.3,6.6-18.5c1.8-0.8,3.7-1.3,5.6-1.3
		C876.2,183.8,876.2,183.8,876.4,183.8z M876.1,184.8c-5.8,0.1-11.2,4.5-12.4,10.2c-1.2,5.7,2.1,12.1,7.6,14.4
		c5.9,2.5,13.5-0.3,16.4-6.1c3-6,0.3-14.2-5.9-17.2C880,185.2,878,184.8,876.1,184.8z M876.4,185.1c5.7,0.1,11,4.5,12.1,10.1
		c1.1,5.6-2.2,11.8-7.5,13.9c-5.8,2.4-13.2-0.4-16-6.2c-2.9-5.9-0.1-13.9,6-16.7c1.6-0.7,3.3-1.1,5.1-1.2
		C876.2,185.1,876.2,185.1,876.4,185.1z M876.1,186.1c-6.5,0.1-12.2,6.5-11.2,13.1c0.8,5.4,5.9,9.9,11.4,9.9
		c5.5,0,10.6-4.4,11.4-9.9c0.9-6.3-4.2-12.9-11.1-13.1C876.4,186.1,876.2,186.1,876.1,186.1z M876.4,186.5
		c6.3,0.1,11.8,6.3,10.9,12.7c-0.7,5.3-5.7,9.6-11,9.6c-5.3,0-10.3-4.3-11-9.6c-0.9-6.2,4.2-12.6,10.9-12.7
		C876.2,186.5,876.2,186.5,876.4,186.5z M885.7,200.6c0.8-2.4,0.9-5-0.4-7.5c-1.7-3.3-5.2-5.6-9-5.6c-0.1,0-0.1,0-0.3,0
		c-5.7,0.1-10.7,5.7-9.9,11.6c0.7,4.8,5.2,8.7,10.1,8.7c3.2,0,6.1-1.8,8-4.4c-1.9,2.5-4.8,4.1-8,4.1c-5.8,0-10.9-5.9-9.7-11.8
		c0.8-4.4,4.9-8,9.6-8c0.1,0,0.1,0,0.3,0c5.6,0.1,10.5,5.6,9.7,11.3C886,199.6,885.9,200.1,885.7,200.6z M876.1,188.7
		c-5.1,0.1-9.4,5-8.7,10.2c0.6,4.2,4.6,7.7,8.8,7.7c6,0,10.9-7.2,7.9-13c-1.5-2.9-4.6-4.8-7.8-4.9
		C876.2,188.7,876.2,188.7,876.1,188.7z M876.3,189c4.8,0.1,9.1,4.8,8.4,9.8c-0.6,4.1-4.4,7.4-8.5,7.4c-5.7,0-10.5-6.8-7.7-12.4
		c1.4-2.8,4.4-4.7,7.6-4.8C876.2,189,876.2,189,876.3,189z M876.1,190c-5,0.1-9.1,6-6.7,10.9c2.1,4.3,8.5,5.6,12.1,2.2
		c2.3-2.2,3-6,1.6-8.9C881.8,191.7,879.1,190,876.1,190z M876.2,196.1c0.8,0,1.5,0.7,1.5,1.5c0,0.8-0.7,1.5-1.5,1.5
		c-0.8,0-1.5-0.7-1.5-1.5C874.8,196.8,875.4,196.1,876.2,196.1z M1090.9,181.1c0.1,0,0.2,0,0.3,0L1090.9,181.1z M1091.7,181.1
		l-0.1,0L1091.7,181.1L1091.7,181.1z M1090.6,181.1l0.2,0L1090.6,181.1L1090.6,181.1z M1092.1,181l-0.1,0L1092.1,181L1092.1,181z
		 M1090.3,181l0.2,0L1090.3,181L1090.3,181z M1090,181l0.1,0L1090,181L1090,181z M1092.5,181l-0.1,0L1092.5,181L1092.5,181z
		 M1089.7,181l0.1,0L1089.7,181L1089.7,181z M1092.9,181l-0.1,0L1092.9,181L1092.9,181z M1089.4,181L1089.4,181L1089.4,181
		L1089.4,181z M1093.3,181L1093.3,181L1093.3,181L1093.3,181z M1089.1,181L1089.1,181l-0.1,0L1089.1,181z M1093.8,181l-0.1,0
		L1093.8,181L1093.8,181z M1088.8,181L1088.8,181l-0.1,0L1088.8,181z M1088.5,181L1088.5,181l-0.1,0L1088.5,181z M1094.2,181l-0.1,0
		L1094.2,181L1094.2,181z M1088.1,181L1088.1,181l-0.2,0L1088.1,181z M1094.5,181l-0.1,0L1094.5,181L1094.5,181z M1087.5,180.9
		c0.1,0,0.2,0,0.3,0L1087.5,180.9z M1094.9,180.9l-0.1,0L1094.9,180.9L1094.9,180.9z M1087.2,180.9l0.3,0L1087.2,180.9L1087.2,180.9
		z M1095.3,180.9L1095.3,180.9L1095.3,180.9L1095.3,180.9z M1086.9,180.9l0.2,0L1086.9,180.9L1086.9,180.9z M1095.8,180.9
		L1095.8,180.9L1095.8,180.9L1095.8,180.9z M1086.6,180.9l0.2,0L1086.6,180.9L1086.6,180.9z M1096.2,180.8l-0.1,0L1096.2,180.8
		L1096.2,180.8z M1086.3,180.8l0.1,0L1086.3,180.8L1086.3,180.8z M1086,180.8L1086,180.8L1086,180.8L1086,180.8z M1096.5,180.8
		l-0.1,0L1096.5,180.8L1096.5,180.8z M1085.7,180.8L1085.7,180.8L1085.7,180.8L1085.7,180.8z M1096.9,180.8l-0.1,0L1096.9,180.8
		L1096.9,180.8z M1085.4,180.7L1085.4,180.7l-0.1,0L1085.4,180.7z M1097.3,180.7L1097.3,180.7L1097.3,180.7L1097.3,180.7z
		 M1085.1,180.7L1085.1,180.7l-0.1,0L1085.1,180.7z M1097.7,180.7L1097.7,180.7L1097.7,180.7L1097.7,180.7z M1084.8,180.7
		L1084.8,180.7l-0.2,0L1084.8,180.7z M1084.5,180.6L1084.5,180.6l-0.2,0L1084.5,180.6z M1098.1,180.6l-0.1,0L1098.1,180.6
		L1098.1,180.6z M1083.9,180.5c0.1,0,0.2,0,0.3,0L1083.9,180.5z M1098.5,180.6l-0.1,0L1098.5,180.6L1098.5,180.6z M1083.6,180.5
		l0.2,0L1083.6,180.5L1083.6,180.5z M1098.9,180.5l-0.1,0L1098.9,180.5L1098.9,180.5z M1083.3,180.5l0.2,0L1083.3,180.5
		L1083.3,180.5z M1099.2,180.5l-0.1,0L1099.2,180.5L1099.2,180.5z M1083,180.4l0.1,0L1083,180.4L1083,180.4z M1099.6,180.4
		L1099.6,180.4L1099.6,180.4L1099.6,180.4z M1082.7,180.4l0.1,0L1082.7,180.4L1082.7,180.4z M1100.1,180.3l-0.1,0L1100.1,180.3
		L1100.1,180.3z M1082.4,180.3L1082.4,180.3L1082.4,180.3L1082.4,180.3z M1082.1,180.3L1082.1,180.3L1082.1,180.3L1082.1,180.3z
		 M1100.5,180.3l-0.1,0L1100.5,180.3L1100.5,180.3z M1081.8,180.2L1081.8,180.2l-0.1,0L1081.8,180.2z M1100.8,180.2l-0.1,0
		L1100.8,180.2L1100.8,180.2z M1081.5,180.2L1081.5,180.2l-0.1,0L1081.5,180.2z M1101.2,180.1l-0.1,0L1101.2,180.1L1101.2,180.1z
		 M1081.2,180.1L1081.2,180.1l-0.1,0L1081.2,180.1z M1101.5,180.1L1101.5,180.1L1101.5,180.1L1101.5,180.1z M1080.9,180L1080.9,180
		l-0.2,0L1080.9,180z M1080.3,179.9c0.1,0,0.2,0,0.3,0.1L1080.3,179.9z M1102,180L1102,180L1102,180L1102,180z M1102.4,179.9l-0.1,0
		L1102.4,179.9L1102.4,179.9z M1080,179.9l0.2,0L1080,179.9L1080,179.9z M1079.7,179.8l0.2,0L1079.7,179.8L1079.7,179.8z
		 M1102.7,179.8l-0.1,0L1102.7,179.8L1102.7,179.8z M1079.4,179.7l0.1,0L1079.4,179.7L1079.4,179.7z M1103.1,179.7l-0.1,0
		L1103.1,179.7L1103.1,179.7z M1079.1,179.7l0.1,0L1079.1,179.7L1079.1,179.7z M1103.5,179.6L1103.5,179.6L1103.5,179.6
		L1103.5,179.6z M1078.9,179.6L1078.9,179.6L1078.9,179.6L1078.9,179.6z M1103.9,179.5L1103.9,179.5L1103.9,179.5L1103.9,179.5z
		 M1078.6,179.5L1078.6,179.5L1078.6,179.5L1078.6,179.5z M1104.3,179.4l-0.1,0L1104.3,179.4L1104.3,179.4z M1078.3,179.4
		L1078.3,179.4l-0.1,0L1078.3,179.4z M1078,179.4L1078,179.4l-0.1,0L1078,179.4z M1104.6,179.3l-0.1,0L1104.6,179.3L1104.6,179.3z
		 M1077.7,179.3L1077.7,179.3l-0.1,0L1077.7,179.3z M1105,179.2l-0.1,0L1105,179.2L1105,179.2z M1077.4,179.2L1077.4,179.2l-0.2,0
		L1077.4,179.2z M1105.3,179.1L1105.3,179.1L1105.3,179.1L1105.3,179.1z M1076.8,179.1c0.1,0,0.2,0.1,0.3,0.1L1076.8,179.1z
		 M1105.7,179L1105.7,179L1105.7,179L1105.7,179z M1076.5,179l0.2,0.1L1076.5,179L1076.5,179z M1106.1,178.9L1106.1,178.9
		L1106.1,178.9L1106.1,178.9z M1076.3,178.9l0.1,0L1076.3,178.9L1076.3,178.9z M1106.5,178.8l-0.1,0L1106.5,178.8L1106.5,178.8z
		 M1076,178.8l0.1,0L1076,178.8L1076,178.8z M1075.7,178.7l0.1,0L1075.7,178.7L1075.7,178.7z M1106.9,178.7l-0.1,0L1106.9,178.7
		L1106.9,178.7z M1075.4,178.6L1075.4,178.6L1075.4,178.6L1075.4,178.6z M1091.6,77.9c12.6,0.1,25.1,5.1,34.3,13.7
		c11.6,11,17.5,27.6,15.4,43.5c-1.5,11.1-6.9,21.7-15,29.6c-14,13.5-36.1,17.9-54.4,10.3c-16.1-6.7-28.2-22.3-30.6-39.5
		c-2.2-15.7,3.5-32.3,14.9-43.3c9.2-8.9,21.8-14,34.7-14.1C1091.1,77.9,1091.4,77.9,1091.6,77.9z M1107.2,178.6L1107.2,178.6
		L1107.2,178.6L1107.2,178.6z M1075.1,178.5L1075.1,178.5L1075.1,178.5L1075.1,178.5z M1074.8,178.4L1074.8,178.4L1074.8,178.4
		L1074.8,178.4z M1108,178.3L1108,178.3L1108,178.3L1108,178.3z M1074.6,178.4L1074.6,178.4l-0.1,0L1074.6,178.4z M1074.3,178.3
		L1074.3,178.3l-0.1,0L1074.3,178.3z M1108.3,178.2L1108.3,178.2L1108.3,178.2L1108.3,178.2z M1074,178.2L1074,178.2l-0.2-0.1
		L1074,178.2z M1108.7,178.1L1108.7,178.1L1108.7,178.1L1108.7,178.1z M1073.4,178c0.1,0,0.2,0.1,0.3,0.1L1073.4,178z M1109,178
		L1109,178L1109,178L1109,178z M1073.2,177.9l0.1,0.1L1073.2,177.9L1073.2,177.9z M1072.9,177.8l0.1,0L1072.9,177.8L1072.9,177.8z
		 M1109.8,177.7L1109.8,177.7L1109.8,177.7L1109.8,177.7z M1072.6,177.7L1072.6,177.7L1072.6,177.7L1072.6,177.7z M1090.9,78.9
		c-12.6,0.1-25,5.2-34,13.9c-11.1,10.7-16.7,26.9-14.7,42.2c1.4,10.8,6.6,21.1,14.5,28.8c13.6,13.3,35.2,17.8,53.2,10.4
		c15.9-6.5,27.9-21.8,30.3-38.9c1.4-10-0.3-20.4-4.9-29.4c-8.2-15.9-25.3-26.7-43.4-26.9C1091.6,78.9,1091.2,78.9,1090.9,78.9z
		 M1110.1,177.6L1110.1,177.6L1110.1,177.6L1110.1,177.6z M1072.3,177.6L1072.3,177.6L1072.3,177.6L1072.3,177.6z M1072.1,177.5
		L1072.1,177.5L1072.1,177.5L1072.1,177.5z M1110.5,177.4L1110.5,177.4L1110.5,177.4L1110.5,177.4z M1071.8,177.3L1071.8,177.3
		L1071.8,177.3L1071.8,177.3z M1110.8,177.3L1110.8,177.3L1110.8,177.3L1110.8,177.3z M1071.5,177.2L1071.5,177.2L1071.5,177.2
		L1071.5,177.2z M1071.2,177.1L1071.2,177.1L1071.2,177.1L1071.2,177.1z M968.9,123c-0.4,0.1-0.8,0.2-1.3,0.3
		c-0.5,1.7-1,3.3-1.3,5.1c-2.5,13.4,2.2,27.9,12.1,37.3c9.5,9.1,23.5,13.1,36.4,10.6c13.1-2.6,24.2-12,29.6-23.8l-0.1-0.1
		c-0.2-0.4-0.4-0.7-0.5-1.1c-2.1,5.2-5.3,9.9-9.3,13.7c-9.3,8.9-23,12.8-35.5,10.3c-16.6-3.3-29.8-17.6-32-34
		C966.1,135.1,966.9,128.8,968.9,123L968.9,123z M1071,177L1071,177L1071,177L1071,177z M1111.5,177L1111.5,177L1111.5,177
		L1111.5,177z M1070.7,176.9L1070.7,176.9L1070.7,176.9L1070.7,176.9z M1111.9,176.9L1111.9,176.9L1111.9,176.9L1111.9,176.9z
		 M1112.2,176.7L1112.2,176.7L1112.2,176.7L1112.2,176.7z M1069.9,176.5L1069.9,176.5L1069.9,176.5L1069.9,176.5z M1112.6,176.6
		L1112.6,176.6L1112.6,176.6L1112.6,176.6z M1069.6,176.4L1069.6,176.4L1069.6,176.4L1069.6,176.4z M1069.4,176.3L1069.4,176.3
		L1069.4,176.3L1069.4,176.3z M1069.1,176.2L1069.1,176.2L1069.1,176.2L1069.1,176.2z M1113.6,176.1L1113.6,176.1L1113.6,176.1
		L1113.6,176.1z M1068.8,176.1L1068.8,176.1L1068.8,176.1L1068.8,176.1z M1091.6,80.5c12.2,0.1,24.2,5,32.9,13.4
		c10.8,10.4,16.3,26.2,14.2,41.1c-1.5,10.5-6.6,20.4-14.2,27.8c-13.3,12.8-34.2,17-51.6,9.8c-15.3-6.4-26.8-21.1-29.1-37.5
		c-2.1-15,3.4-30.9,14.4-41.3C1067.1,85.2,1079.2,80.4,1091.6,80.5z M1068.6,175.9L1068.6,175.9L1068.6,175.9L1068.6,175.9z
		 M1114,175.9L1114,175.9L1114,175.9L1114,175.9z M1068.3,175.8L1068.3,175.8L1068.3,175.8L1068.3,175.8z M1114.3,175.8
		L1114.3,175.8L1114.3,175.8L1114.3,175.8z M1068,175.7L1068,175.7L1068,175.7L1068,175.7z M1067.8,175.5L1067.8,175.5L1067.8,175.5
		L1067.8,175.5z M1067.5,175.4L1067.5,175.4L1067.5,175.4L1067.5,175.4z M1090.9,81.5c-11.8,0.1-23.5,4.8-32,12.9
		c-10.7,10.2-16.1,25.6-14.1,40.2c1.4,10.4,6.4,20.2,13.9,27.5c13,12.5,33.5,16.6,50.5,9.6c15-6.2,26.2-20.7,28.4-36.7
		c2-14.6-3.3-30-13.9-40.3c-8.5-8.2-20-13-31.9-13.1C1091.6,81.5,1091.2,81.5,1090.9,81.5z M1066.7,175L1066.7,175L1066.7,175
		L1066.7,175z M1066.5,174.9L1066.5,174.9L1066.5,174.9L1066.5,174.9z M1066.2,174.7L1066.2,174.7L1066.2,174.7L1066.2,174.7z
		 M1066,174.6L1066,174.6L1066,174.6L1066,174.6z M1065.7,174.5L1065.7,174.5L1065.7,174.5L1065.7,174.5z M1065.4,174.3
		L1065.4,174.3L1065.4,174.3L1065.4,174.3z M1065.2,174.2L1065.2,174.2L1065.2,174.2L1065.2,174.2z M1064.9,174L1064.9,174
		L1064.9,174L1064.9,174z M1064.7,173.9L1064.7,173.9L1064.7,173.9L1064.7,173.9z M1117.9,173.8L1117.9,173.8L1117.9,173.8
		L1117.9,173.8z M1118.2,173.6L1118.2,173.6L1118.2,173.6L1118.2,173.6z M1091.5,83c11.2,0.1,22.2,4.4,30.4,12
		c10.7,9.8,16.2,25,14.3,39.4c-1.3,9.9-6.1,19.4-13.3,26.4c-12.5,12.2-32.3,16.3-48.8,9.5c-14.5-5.9-25.4-19.8-27.7-35.3
		c-2.1-14,2.9-28.9,13-38.8C1067.9,87.8,1079.7,83,1091.5,83z M1063.7,173.3L1063.7,173.3L1063.7,173.3L1063.7,173.3z M1063.4,173.1
		L1063.4,173.1L1063.4,173.1L1063.4,173.1z M1063.2,173L1063.2,173L1063.2,173L1063.2,173z M1062.9,172.8L1062.9,172.8L1062.9,172.8
		L1062.9,172.8z M1062.7,172.7L1062.7,172.7L1062.7,172.7L1062.7,172.7z M1091,84c-11.1,0.1-22,4.5-30.1,12.1
		c-10.2,9.6-15.4,24.3-13.5,38.2c2.4,18.1,17,33.9,35.3,37.5c13.9,2.8,29-1.6,39.2-11.4c10.6-10.1,15.7-25.8,13-40.2
		c-2.6-13.8-12.1-26.1-24.9-32C1104,85.4,1097.4,84,1091,84z M1062.5,172.5L1062.5,172.5L1062.5,172.5L1062.5,172.5z M1062.2,172.3
		L1062.2,172.3L1062.2,172.3L1062.2,172.3z M1062,172.2L1062,172.2L1062,172.2L1062,172.2z M1061.7,172L1061.7,172L1061.7,172
		L1061.7,172z M1060.5,171.2L1060.5,171.2L1060.5,171.2L1060.5,171.2z M1091.5,85.4c10.5,0.1,20.8,4.1,28.6,11.2
		c10.2,9.3,15.5,23.7,13.7,37.5c-2.3,17.5-16.5,32.8-34.2,36.4c-13.4,2.7-28-1.6-38-11c-10.3-9.8-15.2-24.9-12.6-38.9
		c2.5-13.3,11.7-25.3,24.1-31C1078.9,86.8,1085.3,85.4,1091.5,85.4z M1060.3,171L1060.3,171L1060.3,171L1060.3,171z M1060.1,170.8
		L1060.1,170.8L1060.1,170.8L1060.1,170.8z M1059.8,170.7L1059.8,170.7L1059.8,170.7L1059.8,170.7z M1059.6,170.5L1059.6,170.5
		L1059.6,170.5L1059.6,170.5z M1059.4,170.3L1059.4,170.3L1059.4,170.3L1059.4,170.3z M1091,86.4c-10.2,0.1-20.3,4-27.9,10.9
		c-10,9.1-15.2,23.2-13.4,36.6c2.3,17.1,16.1,32.1,33.4,35.5c13.1,2.6,27.4-1.5,37.1-10.8c10-9.6,14.8-24.4,12.3-38
		c-2.4-13-11.5-24.7-23.5-30.3C1103.3,87.7,1097.1,86.4,1091,86.4z M1059.1,170.1L1059.1,170.1L1059.1,170.1L1059.1,170.1z
		 M1057.8,169.1L1057.8,169.1L1057.8,169.1L1057.8,169.1z M1091.5,87.7c14.5,0.1,28.6,8.6,35.5,21.3c6,11.1,6.5,25.1,1.1,36.5
		c-7.6,16.2-26.5,26.2-44.5,22.7c-12.4-2.4-23.5-10.9-29-22.3c-5.3-11.1-5.3-24.6,0.2-35.7C1061.6,96.7,1076.3,87.6,1091.5,87.7z
		 M1057.6,168.9L1057.6,168.9L1057.6,168.9L1057.6,168.9z M1057.3,168.7L1057.3,168.7L1057.3,168.7L1057.3,168.7z M1057.1,168.5
		L1057.1,168.5L1057.1,168.5L1057.1,168.5z M1056.9,168.3L1056.9,168.3L1056.9,168.3L1056.9,168.3z M1056.7,168.1L1056.7,168.1
		L1056.7,168.1L1056.7,168.1z M1091,88.7c-9.9,0.1-19.7,4-26.9,10.8c-9.1,8.6-13.8,21.7-12.1,34.2c2.2,16.1,15.1,30.2,31.3,33.5
		c12.5,2.6,26.1-1.4,35.3-10.1c9.5-9.1,14-23.1,11.6-36c-2.3-12.3-10.8-23.4-22.2-28.7C1102.7,89.9,1096.8,88.7,1091,88.7z
		 M921.9,103.1c-11.3,0.8-21.7,7.7-26.7,17.7c-4.4,8.8-4.5,19.6-0.3,28.5c4.4,9,13.1,15.8,23,17.7c14.3,2.7,29.2-5.2,35.3-17.9
		c3.6-7.7,4-16.8,1.2-24.7c-0.4,0-0.8-0.1-1.2-0.1c1.9,4.9,2.5,10.4,1.8,15.6c-1.9,12.7-12.4,23.7-25,26.1
		c-13.9,2.7-28.3-5-34.2-17.3c-4.1-8.7-3.9-19.4,0.6-27.9c5-9.5,15.3-16,26.1-16.6C922.3,103.8,922.1,103.5,921.9,103.1z
		 M1055.4,167L1055.4,167L1055.4,167L1055.4,167z M1091.5,89.9c14,0.1,27.4,8.4,33.8,20.7c5.4,10.5,5.7,23.5,0.6,34.1
		c-7.1,15-24.6,24.4-41.5,21.4c-11.8-2.1-22.4-10.1-27.7-20.9c-5.2-10.6-5.1-23.6,0.2-34.1c6.3-12.4,19.6-20.8,33.6-21.1
		C1090.8,89.9,1091.2,89.9,1091.5,89.9z M1054.8,166.4L1054.8,166.4L1054.8,166.4L1054.8,166.4z M1091,90.9
		c-13.4,0.1-26.4,8-32.7,19.8c-5.5,10.2-5.8,23.1-0.8,33.6c7,14.8,24.3,23.9,40.9,20.7c11.4-2.2,21.6-10,26.6-20.5
		c4.9-10.2,4.9-22.7-0.2-32.8c-6-12.1-19-20.5-32.8-20.8C1091.7,90.9,1091.3,90.9,1091,90.9z M1091.5,92.1
		c13.3,0.1,26.2,8.1,32.1,19.9c4.9,9.8,5.1,21.9,0.4,31.8c-6.8,14.2-23.3,23.1-39.4,20.1c-11.1-2.1-21-9.6-25.9-19.7
		c-4.8-9.9-4.8-21.9,0-31.8c5.8-11.9,18.4-20,31.9-20.3C1090.9,92.1,1091.2,92.1,1091.5,92.1z M1091,93.1
		c-12.7,0.1-25,7.6-30.9,18.8c-5.1,9.6-5.3,21.6-0.7,31.5c6.6,13.8,22.7,22.5,38.3,19.6c10.8-2,20.4-9.3,25.2-19.2
		c4.8-9.7,4.7-21.7-0.2-31.3c-5.7-11.3-17.8-19.1-30.8-19.4C1091.6,93.1,1091.3,93.1,1091,93.1z M1091.5,94.1
		c12.4,0.1,24.3,7.4,30.1,18.3c4.9,9.3,5.2,21,0.6,30.6c-6.3,13.4-21.9,21.8-37,19.1c-10.6-1.9-20-9-24.7-18.7
		c-4.6-9.5-4.6-21.1,0.2-30.4c5.6-11,17.3-18.6,29.9-18.8C1090.9,94.1,1091.2,94.1,1091.5,94.1z M1091,95.1
		c-11.9,0.1-23.5,7.1-29.1,17.6c-4.9,9.1-5.2,20.5-0.7,29.9c6.2,13.1,21.7,21.2,36.3,18.4c10.1-1.9,19.2-8.9,23.7-18.2
		c4.5-9.3,4.3-20.7-0.5-29.9c-5.5-10.4-16.8-17.5-28.8-17.7C1091.6,95.1,1091.3,95.1,1091,95.1z M1091.5,96c11.7,0.1,23,7,28.4,17.3
		c4.7,8.8,4.9,19.8,0.6,28.9c-6,12.7-20.8,20.6-35.1,17.9c-10-1.9-18.9-8.7-23.3-17.9c-4.3-9-4.1-20,0.6-28.9
		c5.4-10.3,16.6-17.1,28.4-17.3C1091.2,96,1091.3,96,1091.5,96z M1091,97c-11.3,0.1-22.2,6.8-27.5,16.7c-4.5,8.5-4.8,19.2-0.6,28
		c5.8,12.3,20.1,20,34,17.4c9.6-1.8,18.2-8.4,22.5-17.2c4.1-8.5,4.1-18.8-0.1-27.3c-5.1-10.3-16-17.4-27.7-17.6
		C1091.5,97,1091.2,97,1091,97z M1091.4,98c11.1,0.1,21.9,6.8,26.9,16.7c4.1,8.2,4.3,18.3,0.3,26.6c-5.6,11.9-19.5,19.3-32.9,16.8
		c-12.4-2.3-22.7-13.1-24.4-25.5c-1.3-9.5,2.2-19.5,9.1-26.1c5.5-5.2,12.9-8.2,20.5-8.4C1091.1,98,1091.2,98,1091.4,98z M1091.1,99
		c-10.5,0.1-20.7,6.2-25.7,15.5c-4.3,8-4.6,18.1-0.6,26.3c5.5,11.5,18.8,18.7,31.8,16.3c12-2.2,22-12.7,23.7-24.9
		c1.2-9.2-2.2-19-9.1-25.3c-5.3-4.9-12.5-7.8-19.8-7.8C1091.3,99,1091.2,99,1091.1,99z M1091.4,100.2c10,0.1,19.7,5.9,24.5,14.6
		c4.2,7.7,4.6,17.5,0.8,25.5c-4.5,9.6-14.7,16.2-25.3,16.3c-10.5,0.1-20.8-6.3-25.4-15.6c-3.8-7.6-3.9-17-0.2-24.7
		C1070.5,106.6,1080.6,100.1,1091.4,100.2z M1091.1,101.2c-9.6,0.1-19,5.7-23.6,14.1c-4.1,7.4-4.4,16.8-0.8,24.6
		c4.3,9.2,14.2,15.6,24.5,15.7c10.2,0.1,20.1-6.1,24.6-15.2c3.7-7.4,3.6-16.6-0.1-24c-4.4-8.8-13.8-14.9-23.8-15.1
		C1091.5,101.2,1091.3,101.2,1091.1,101.2z M1091.4,102.2c9.3,0.1,18.2,5.4,22.7,13.5c3.9,7.1,4.2,16.2,0.8,23.6
		c-4.2,8.9-13.7,15-23.5,15.1c-9.8,0.1-19.4-5.9-23.7-14.8c-3.4-7.1-3.4-15.8,0.1-22.9c4.2-8.5,13.2-14.3,22.9-14.5
		C1091,102.2,1091.2,102.2,1091.4,102.2z M1045,153.6L1045,153.6L1045,153.6L1045,153.6z M1044.8,153.4L1044.8,153.4L1044.8,153.4
		L1044.8,153.4z M1091.1,103.2c-11.4,0.1-22.1,8.8-24.4,20c-1.7,8.2,1.1,17.1,7.1,23c6.9,6.8,18,9,27,5.3c8-3.3,14.1-11,15.3-19.6
		c1.6-10.6-4.5-21.9-14.2-26.4C1098.5,104,1094.8,103.2,1091.1,103.2z M1091.4,104.1c11,0.1,21.3,8.5,23.6,19.3
		c1.6,7.9-1,16.5-6.8,22.2c-4.5,4.4-10.8,6.8-17.1,6.8h-0.1c-3,0-6.1-0.6-8.9-1.7c-7.7-3.2-13.6-10.6-14.8-18.9
		c-1.5-10.2,4.3-21.1,13.7-25.5C1084.2,104.9,1087.8,104.1,1091.4,104.1L1091.4,104.1z M1091.2,105.1
		C1091.2,105.1,1091.1,105.1,1091.2,105.1c-10.6,0.1-20.5,8.1-22.7,18.5c-1.6,7.6,1,15.9,6.5,21.3c4.3,4.2,10.4,6.5,16.5,6.5h0
		c2.9,0,5.8-0.5,8.5-1.6c7.4-3,13-10.2,14.2-18.1c1.4-9.7-4.1-20.1-13-24.4C1098.1,105.9,1094.7,105.1,1091.2,105.1L1091.2,105.1z
		 M1091.4,106.3c8.4,0.1,16.5,5.4,20,13.1c3.8,8.5,1.4,19.2-5.5,25.4c-6.1,5.4-15.4,7-22.9,3.9c-7-2.9-12.4-9.6-13.5-17.2
		c-1.4-9.3,4-19.2,12.6-23.2C1085,107,1088.2,106.3,1091.4,106.3z M1043.2,150L1043.2,150L1043.2,150L1043.2,150z M1043,149.6
		L1043,149.6L1043,149.6L1043,149.6z M1042.9,149.3L1042.9,149.3L1042.9,149.3L1042.9,149.3z M1091.1,107.3
		c-9.5,0.1-18.5,7.3-20.4,16.8c-1.4,6.9,0.9,14.4,5.9,19.3c5.8,5.7,15.1,7.5,22.6,4.4c8.8-3.6,14.4-13.6,12.8-23
		c-1.6-9.5-10.3-17.2-20.3-17.4C1091.5,107.3,1091.3,107.3,1091.1,107.3z M1042.7,149L1042.7,149L1042.7,149L1042.7,149z
		 M1042.6,148.6L1042.6,148.6L1042.6,148.6L1042.6,148.6z M1091.4,108.4c9.1,0.1,17.6,6.9,19.4,16c1.3,6.8-1.2,14.2-6.3,18.8
		c-5.5,4.8-13.7,6.3-20.5,3.6c-5.6-2.2-10.1-7.1-11.8-12.8c-1.9-6.5-0.3-13.8,4.2-18.9c3.7-4.1,9.1-6.6,14.6-6.7
		C1091.1,108.4,1091.2,108.4,1091.4,108.4z M1042,147.3L1042,147.3L1042,147.3L1042,147.3z M1091.1,109.4
		c-8.6,0.1-16.7,6.7-18.4,15.2c-1.7,8.6,3.4,18,11.6,21.3c9.6,3.8,22-1.8,25-12.2c1.8-6.1,0.3-13.1-4-17.9
		c-3.5-3.9-8.6-6.3-13.9-6.4C1091.4,109.4,1091.2,109.4,1091.1,109.4z M1041.9,146.9L1041.9,146.9L1041.9,146.9L1041.9,146.9z
		 M1041.8,146.6L1041.8,146.6L1041.8,146.6L1041.8,146.6z M1041.7,146.3L1041.7,146.3L1041.7,146.3L1041.7,146.3z M1091.5,110.6
		c8.2,0.2,15.8,6.5,17.2,14.6c1.4,7.9-3.3,16.5-10.8,19.6c-6.3,2.6-14,1.1-18.9-3.6c-5.5-5.2-7-14.1-3.6-20.9
		c2.9-5.7,9-9.5,15.6-9.7C1091.2,110.6,1091.2,110.6,1091.5,110.6z M1041.5,145.9L1041.5,145.9L1041.5,145.9L1041.5,145.9z
		 M1041.4,145.6L1041.4,145.6L1041.4,145.6L1041.4,145.6z M1091,111.6c-7.7,0.1-14.9,6.1-16.3,13.8c-1.3,7.5,3.1,15.6,10.1,18.5
		c5.9,2.4,13.2,1,17.9-3.4c5.2-4.9,6.6-13.3,3.4-19.7c-2.8-5.4-8.5-9-14.7-9.1C1091.2,111.6,1091.2,111.6,1091,111.6z M1041.2,144.9
		L1041.2,144.9L1041.2,144.9L1041.2,144.9z M1041.1,144.5L1041.1,144.5L1041.1,144.5L1041.1,144.5z M1040.9,144.2L1040.9,144.2
		L1040.9,144.2L1040.9,144.2z M1091.5,112.6c7.2,0.1,13.9,5.7,15.3,12.8c1.4,7.1-2.8,14.8-9.5,17.6c-5.6,2.3-12.4,1-16.8-3.2
		c-4.8-4.6-6.2-12.4-3.3-18.4c2.6-5.1,8.1-8.6,13.9-8.7C1091.3,112.6,1091.2,112.6,1091.5,112.6z M1040.8,143.8L1040.8,143.8
		L1040.8,143.8L1040.8,143.8z M1040.7,143.5L1040.7,143.5L1040.7,143.5L1040.7,143.5z M1040.6,143.1L1040.6,143.1L1040.6,143.1
		L1040.6,143.1z M1091.1,113.6c-6.8,0.1-13,5.3-14.3,12c-1.3,6.6,2.7,13.9,8.9,16.4c6.9,2.8,15.6-0.5,18.9-7.3
		c3.4-7,0.1-16.4-7.1-19.8c-1.9-0.9-4-1.3-6-1.4C1091.2,113.6,1091.3,113.6,1091.1,113.6z M1040.5,142.8L1040.5,142.8L1040.5,142.8
		L1040.5,142.8z M1040.4,142.4L1040.4,142.4L1040.4,142.4L1040.4,142.4z M1040.3,142.1L1040.3,142.1L1040.3,142.1L1040.3,142.1z
		 M1091.4,114.7c6.2,0.1,12,4.9,13.2,11c1.2,6.1-2.4,12.8-8.2,15.2c-6.3,2.6-14.4-0.5-17.4-6.7c-3.1-6.4-0.1-15.1,6.5-18.2
		c1.7-0.8,3.6-1.2,5.6-1.3C1091.2,114.7,1091.2,114.7,1091.4,114.7z M1040.2,141.7L1040.2,141.7L1040.2,141.7L1040.2,141.7z
		 M1040.1,141.4L1040.1,141.4L1040.1,141.4L1040.1,141.4z M1040.1,141L1040.1,141L1040.1,141L1040.1,141z M1091.1,115.7
		c-5.8,0.1-11.1,4.5-12.2,10.2c-1.1,5.7,2.3,11.9,7.6,14c5.8,2.4,13.3-0.4,16.1-6.2c1.7-3.6,1.6-8-0.3-11.5
		C1100.1,118.3,1095.7,115.7,1091.1,115.7z M1040,140.6L1040,140.6L1040,140.6L1040,140.6z M1039.9,140.3L1039.9,140.3L1039.9,140.3
		L1039.9,140.3z M1039.7,139.6L1039.7,139.6L1039.7,139.6L1039.7,139.6z M1039.6,139.2L1039.6,139.2L1039.6,139.2L1039.6,139.2z
		 M1039.6,138.8L1039.6,138.8L1039.6,138.8L1039.6,138.8z M1039.5,138.5L1039.5,138.5L1039.5,138.5L1039.5,138.5z M1039.4,138.1
		L1039.4,138.1L1039.4,138.1L1039.4,138.1z M1039.4,137.7L1039.4,137.7L1039.4,137.7L1039.4,137.7z M1039.3,137.4L1039.3,137.4
		L1039.3,137.4L1039.3,137.4z M1039.2,137L1039.2,137L1039.2,137L1039.2,137z M1039.2,136.6L1039.2,136.6L1039.2,136.6L1039.2,136.6
		z M1039.1,136.3L1039.1,136.3L1039.1,136.3L1039.1,136.3z M1039.1,135.9L1039.1,135.9L1039.1,135.9L1039.1,135.9z M1039,135.5
		L1039,135.5L1039,135.5L1039,135.5z M1039,135.1L1039,135.1L1039,135.1L1039,135.1z M1038.9,134.8L1038.9,134.8L1038.9,134.8
		L1038.9,134.8z M1038.9,134.4L1038.9,134.4L1038.9,134.4L1038.9,134.4z M1038.8,134L1038.8,134L1038.8,134L1038.8,134z
		 M1038.8,133.7L1038.8,133.7L1038.8,133.7L1038.8,133.7z M1038.8,133.3L1038.8,133.3L1038.8,133.3L1038.8,133.3z M1038.7,132.9
		L1038.7,132.9L1038.7,132.9L1038.7,132.9z M1038.7,132.5L1038.7,132.5L1038.7,132.5L1038.7,132.5z M1038.7,132.1L1038.7,132.1
		L1038.7,132.1L1038.7,132.1z M1038.6,131.8L1038.6,131.8L1038.6,131.8L1038.6,131.8z M1038.6,131.4L1038.6,131.4L1038.6,131.4
		L1038.6,131.4z M1038.6,131L1038.6,131L1038.6,131L1038.6,131z M1091.2,125.9c1.3,0,2.4,1.1,2.4,2.4c0,1.3-1.1,2.4-2.4,2.4
		c-1.3,0-2.4-1.1-2.4-2.4C1088.9,127,1089.9,125.9,1091.2,125.9z M1038.6,130.6L1038.6,130.6l0-0.1L1038.6,130.6z M1038.6,130.2
		L1038.6,130.2L1038.6,130.2L1038.6,130.2z M1038.5,129.9L1038.5,129.9L1038.5,129.9L1038.5,129.9z M1038.5,129.5L1038.5,129.5
		L1038.5,129.5L1038.5,129.5z M1038.5,129.1v0.1V129.1L1038.5,129.1z M1038.5,128.7L1038.5,128.7L1038.5,128.7L1038.5,128.7z
		 M1038.5,127.9L1038.5,127.9L1038.5,127.9L1038.5,127.9z M1038.5,127.4L1038.5,127.4L1038.5,127.4L1038.5,127.4z M1038.5,127
		L1038.5,127L1038.5,127L1038.5,127z M1038.6,126.5L1038.6,126.5L1038.6,126.5L1038.6,126.5z M1038.6,126L1038.6,126L1038.6,126
		L1038.6,126z M1038.6,125.6L1038.6,125.6L1038.6,125.6L1038.6,125.6z M1038.6,125.1L1038.6,125.1L1038.6,125.1L1038.6,125.1z
		 M1038.6,124.7L1038.6,124.7L1038.6,124.7L1038.6,124.7z M955.7,124.5l0.1,0L955.7,124.5L955.7,124.5z M955.5,124.5L955.5,124.5
		L955.5,124.5L955.5,124.5z M955.2,124.5L955.2,124.5L955.2,124.5L955.2,124.5z M955,124.4L955,124.4L955,124.4L955,124.4z
		 M954.8,124.4L954.8,124.4l-0.1,0L954.8,124.4z M954.6,124.4L954.6,124.4l-0.2,0L954.6,124.4z M1038.7,124.2L1038.7,124.2
		L1038.7,124.2L1038.7,124.2z M951.9,124.1L951.9,124.1L951.9,124.1L951.9,124.1z M951.6,124.1L951.6,124.1L951.6,124.1L951.6,124.1
		z M950.4,123.9L950.4,123.9L950.4,123.9L950.4,123.9z M1038.7,123.8L1038.7,123.8L1038.7,123.8L1038.7,123.8z M950.1,123.8
		L950.1,123.8L950.1,123.8L950.1,123.8z M966.1,123.7L966.1,123.7L966.1,123.7L966.1,123.7z M966.4,123.6L966.4,123.6L966.4,123.6
		L966.4,123.6z M966.6,123.6L966.6,123.6L966.6,123.6L966.6,123.6z M948.9,123.6L948.9,123.6L948.9,123.6L948.9,123.6z M966.8,123.5
		L966.8,123.5L966.8,123.5L966.8,123.5z M948.6,123.5L948.6,123.5L948.6,123.5L948.6,123.5z M967,123.5L967,123.5L967,123.5
		L967,123.5z M1038.8,123.3L1038.8,123.3L1038.8,123.3L1038.8,123.3z M947.7,123.3L947.7,123.3L947.7,123.3L947.7,123.3z
		 M947.5,123.2L947.5,123.2L947.5,123.2L947.5,123.2z M947.2,123.1L947.2,123.1L947.2,123.1L947.2,123.1z M958,44.7
		c10,0.1,19.8,4.1,27,11c8.8,8.5,13.3,21.3,11.6,33.4c-2.1,16-15,30-31.2,33.2c-12.3,2.4-25.6-1.4-34.7-10.1
		c-9.3-8.9-13.8-22.6-11.5-35.3c2.2-12.3,10.7-23.3,22-28.6C946.4,45.9,952.2,44.6,958,44.7z M1038.8,122.9L1038.8,122.9
		L1038.8,122.9L1038.8,122.9z M969.2,122.9L969.2,122.9L969.2,122.9L969.2,122.9z M946.3,122.9L946.3,122.9L946.3,122.9L946.3,122.9
		z M969.5,122.8L969.5,122.8L969.5,122.8L969.5,122.8z M946,122.8L946,122.8L946,122.8L946,122.8z M969.8,122.7L969.8,122.7
		L969.8,122.7L969.8,122.7z M945.7,122.7L945.7,122.7L945.7,122.7L945.7,122.7z M970,122.6L970,122.6L970,122.6L970,122.6z
		 M970.4,122.5L970.4,122.5L970.4,122.5L970.4,122.5z M1038.8,122.4L1038.8,122.4L1038.8,122.4L1038.8,122.4z M970.7,122.4
		L970.7,122.4L970.7,122.4L970.7,122.4z M944.8,122.4L944.8,122.4L944.8,122.4L944.8,122.4z M944.6,122.4L944.6,122.4L944.6,122.4
		L944.6,122.4z M971,122.3L971,122.3L971,122.3L971,122.3z M944.3,122.3L944.3,122.3L944.3,122.3L944.3,122.3z M971.2,122.2
		L971.2,122.2L971.2,122.2L971.2,122.2z M971.6,122.1L971.6,122.1L971.6,122.1L971.6,122.1z M1038.9,122L1038.9,122L1038.9,122
		L1038.9,122z M971.8,122L971.8,122L971.8,122L971.8,122z M957.5,45.7c-13.8,0.1-27.2,8.3-33.6,20.4c-5.5,10.4-5.8,23.5-0.7,34.1
		c7.1,15,24.6,24.4,41.5,21.2c11.7-2.2,22.1-10.1,27.3-20.8c5.2-10.5,5.1-23.5-0.2-33.9C985.5,54.1,971.8,45.6,957.5,45.7z
		 M943.4,121.9L943.4,121.9L943.4,121.9L943.4,121.9z M972.1,121.9L972.1,121.9L972.1,121.9L972.1,121.9z M943.2,121.8L943.2,121.8
		L943.2,121.8L943.2,121.8z M972.4,121.8L972.4,121.8L972.4,121.8L972.4,121.8z M942.9,121.7L942.9,121.7L942.9,121.7L942.9,121.7z
		 M972.7,121.7L972.7,121.7L972.7,121.7L972.7,121.7z M973,121.6L973,121.6L973,121.6L973,121.6z M1039,121.6L1039,121.6L1039,121.6
		L1039,121.6z M942.3,121.5L942.3,121.5L942.3,121.5L942.3,121.5z M973.3,121.5L973.3,121.5L973.3,121.5L973.3,121.5z M942,121.4
		L942,121.4L942,121.4L942,121.4z M973.5,121.3L973.5,121.3L973.5,121.3L973.5,121.3z M941.8,121.3L941.8,121.3L941.8,121.3
		L941.8,121.3z M973.8,121.2L973.8,121.2L973.8,121.2L973.8,121.2z M1039,121.1L1039,121.1L1039,121.1L1039,121.1z M941.5,121.2
		L941.5,121.2L941.5,121.2L941.5,121.2z M974.1,121.1L974.1,121.1L974.1,121.1L974.1,121.1z M958,46.6c13.4,0.1,26.4,8.1,32.7,19.9
		c5.4,10.2,5.6,22.9,0.7,33.3c-7,14.7-24.1,23.8-40.7,20.6c-11.3-2.2-21.3-9.9-26.4-20.2c-5-10.3-4.9-22.9,0.2-33.1
		C930.7,54.8,944,46.6,958,46.6z M974.4,121L974.4,121L974.4,121L974.4,121z M940.9,120.9L940.9,120.9L940.9,120.9L940.9,120.9z
		 M974.6,120.9L974.6,120.9L974.6,120.9L974.6,120.9z M940.7,120.8L940.7,120.8L940.7,120.8L940.7,120.8z M1039.1,120.7
		L1039.1,120.7L1039.1,120.7L1039.1,120.7z M940.4,120.7L940.4,120.7L940.4,120.7L940.4,120.7z M975.2,120.6L975.2,120.6
		L975.2,120.6L975.2,120.6z M940.1,120.5L940.1,120.5L940.1,120.5L940.1,120.5z M975.5,120.4L975.5,120.4L975.5,120.4L975.5,120.4z
		 M975.8,120.3L975.8,120.3L975.8,120.3L975.8,120.3z M939.6,120.3L939.6,120.3L939.6,120.3L939.6,120.3z M1039.1,120.2
		L1039.1,120.2L1039.1,120.2L1039.1,120.2z M939.3,120.1L939.3,120.1L939.3,120.1L939.3,120.1z M976.3,120L976.3,120L976.3,120
		L976.3,120z M957.5,47.6c-13.3,0.1-26.2,8.1-32.1,19.9c-4.9,9.8-5.1,21.9-0.4,31.8c6.8,14.3,23.5,23.2,39.6,20.1
		c11-2.1,20.9-9.7,25.8-19.9c4.9-10.1,4.7-22.6-0.6-32.6c-6-11.4-18.3-19-31.3-19.3C958.1,47.6,957.8,47.6,957.5,47.6z M939.1,120
		L939.1,120L939.1,120L939.1,120z M976.6,119.9L976.6,119.9L976.6,119.9L976.6,119.9z M938.8,119.9L938.8,119.9L938.8,119.9
		L938.8,119.9z M1039.2,119.8L1039.2,119.8L1039.2,119.8L1039.2,119.8z M976.8,119.8L976.8,119.8L976.8,119.8L976.8,119.8z
		 M977.1,119.6L977.1,119.6L977.1,119.6L977.1,119.6z M938.3,119.6L938.3,119.6L938.3,119.6L938.3,119.6z M977.4,119.5L977.4,119.5
		L977.4,119.5L977.4,119.5z M938,119.4L938,119.4L938,119.4L938,119.4z M1039.3,119.4L1039.3,119.4L1039.3,119.4L1039.3,119.4z
		 M977.7,119.3L977.7,119.3L977.7,119.3L977.7,119.3z M937.8,119.3L937.8,119.3L937.8,119.3L937.8,119.3z M977.9,119.2L977.9,119.2
		L977.9,119.2L977.9,119.2z M937.5,119.2L937.5,119.2L937.5,119.2L937.5,119.2z M978.2,119L978.2,119L978.2,119L978.2,119z
		 M958,48.6c12.6,0.1,24.9,7.5,30.8,18.6c5.2,9.6,5.5,21.8,0.8,31.7c-6.6,13.9-22.8,22.5-38.5,19.5c-10.7-2.1-20.3-9.5-25.1-19.3
		c-4.6-9.6-4.6-21.4,0.2-30.9c5.7-11.4,17.9-19.3,30.9-19.6C957.3,48.6,957.6,48.6,958,48.6z M937.3,119L937.3,119L937.3,119
		L937.3,119z M1039.4,118.9L1039.4,118.9L1039.4,118.9L1039.4,118.9z M978.4,118.9L978.4,118.9L978.4,118.9L978.4,118.9z M937,118.9
		L937,118.9L937,118.9L937,118.9z M978.7,118.7L978.7,118.7L978.7,118.7L978.7,118.7z M936.7,118.7L936.7,118.7L936.7,118.7
		L936.7,118.7z M979,118.5L979,118.5L979,118.5L979,118.5z M936.5,118.6L936.5,118.6L936.5,118.6L936.5,118.6z M1039.4,118.5
		L1039.4,118.5L1039.4,118.5L1039.4,118.5z M979.2,118.4L979.2,118.4L979.2,118.4L979.2,118.4z M936.2,118.4L936.2,118.4
		L936.2,118.4L936.2,118.4z M979.5,118.2L979.5,118.2L979.5,118.2L979.5,118.2z M936,118.2L936,118.2L936,118.2L936,118.2z
		 M979.7,118.1L979.7,118.1L979.7,118.1L979.7,118.1z M935.7,118.1L935.7,118.1L935.7,118.1L935.7,118.1z M1039.5,118L1039.5,118
		L1039.5,118L1039.5,118z M957.5,49.6c-12.4,0.1-24.3,7.4-30.1,18.3c-4.9,9.3-5.2,21-0.7,30.6c6.4,13.5,22.4,21.9,37.6,18.9
		c10.3-2,19.5-9.1,24.1-18.5c4.6-9.4,4.5-21-0.2-30.4c-5.6-11-17.3-18.5-29.9-18.8C958.1,49.6,957.8,49.6,957.5,49.6z M980,117.9
		L980,117.9L980,117.9L980,117.9z M935.5,117.9L935.5,117.9L935.5,117.9L935.5,117.9z M935.2,117.8L935.2,117.8L935.2,117.8
		L935.2,117.8z M980.2,117.7L980.2,117.7L980.2,117.7L980.2,117.7z M1039.6,117.6L1039.6,117.6L1039.6,117.6L1039.6,117.6z
		 M934.8,117.4L934.8,117.4L934.8,117.4L934.8,117.4z M980.8,117.4L980.8,117.4L980.8,117.4L980.8,117.4z M934.5,117.3L934.5,117.3
		L934.5,117.3L934.5,117.3z M981,117.2L981,117.2L981,117.2L981,117.2z M1039.7,117.2L1039.7,117.2L1039.7,117.2L1039.7,117.2z
		 M957.9,50.5c12.1,0.1,23.8,7.3,29.4,18c4.7,9.1,4.9,20.4,0.5,29.6c-6.2,13.1-21.5,21.3-36.3,18.5c-10.2-1.9-19.3-8.9-23.9-18.2
		c-4.5-9.2-4.4-20.5,0.2-29.6c5.4-10.7,16.9-18.1,29.2-18.4C957.4,50.5,957.7,50.5,957.9,50.5z M934.3,117.1L934.3,117.1
		L934.3,117.1L934.3,117.1z M981.2,117.1L981.2,117.1L981.2,117.1L981.2,117.1z M934,116.9L934,116.9L934,116.9L934,116.9z
		 M981.7,116.7L981.7,116.7L981.7,116.7L981.7,116.7z M933.6,116.6L933.6,116.6L933.6,116.6L933.6,116.6z M982,116.5L982,116.5
		L982,116.5L982,116.5z M933.3,116.4L933.3,116.4L933.3,116.4L933.3,116.4z M982.2,116.3L982.2,116.3L982.2,116.3L982.2,116.3z
		 M1039.9,116.3L1039.9,116.3L1039.9,116.3L1039.9,116.3z M933.1,116.2L933.1,116.2L933.1,116.2L933.1,116.2z M957.5,51.5
		c-11.6,0.1-22.7,6.8-28.2,16.9c-4.8,8.8-5.1,20-0.9,29.1c6,12.8,20.8,20.8,35.3,18.2c13.2-2.4,24.2-13.8,26.1-27.1
		c1.5-10.3-2.3-21.3-10-28.4C973.8,54.6,965.7,51.5,957.5,51.5z M982.4,116.2L982.4,116.2L982.4,116.2L982.4,116.2z M932.8,116
		L932.8,116L932.8,116L932.8,116z M982.7,116L982.7,116L982.7,116L982.7,116z M1040,115.9L1040,115.9L1040,115.9L1040,115.9z
		 M982.9,115.8L982.9,115.8L982.9,115.8L982.9,115.8z M932.4,115.7L932.4,115.7L932.4,115.7L932.4,115.7z M983.2,115.6L983.2,115.6
		L983.2,115.6L983.2,115.6z M932.2,115.5L932.2,115.5L932.2,115.5L932.2,115.5z M957.9,52.2c11.4,0.1,22.3,6.8,27.7,16.7
		c4.6,8.7,4.9,19.5,0.7,28.4c-5.9,12.5-20.5,20.2-34.6,17.5c-12.8-2.5-23.5-13.7-25.3-26.6c-1.4-9.9,2.3-20.4,9.5-27.3
		c5.7-5.4,13.5-8.6,21.4-8.7C957.5,52.2,957.7,52.2,957.9,52.2z M983.4,115.4L983.4,115.4L983.4,115.4L983.4,115.4z M931.9,115.3
		L931.9,115.3L931.9,115.3L931.9,115.3z M983.6,115.2L983.6,115.2L983.6,115.2L983.6,115.2z M931.7,115.1L931.7,115.1L931.7,115.1
		L931.7,115.1z M1040.2,115L1040.2,115L1040.2,115L1040.2,115z M983.9,115L983.9,115L983.9,115L983.9,115z M984.1,114.8L984.1,114.8
		L984.1,114.8L984.1,114.8z M931.3,114.7L931.3,114.7L931.3,114.7L931.3,114.7z M1040.3,114.6L1040.3,114.6L1040.3,114.6
		L1040.3,114.6z M984.3,114.6L984.3,114.6L984.3,114.6L984.3,114.6z M931,114.5L931,114.5L931,114.5L931,114.5z M957.5,53.2
		c-11.1,0.1-21.8,6.6-26.9,16.4c-4.4,8.4-4.6,18.8-0.6,27.4c5.7,12,19.6,19.5,33.1,17c12.6-2.2,23.1-13.1,24.9-25.9
		c1.3-9.5-2.1-19.5-8.9-26.2c-5.5-5.4-13.2-8.6-21-8.7C957.9,53.2,957.7,53.2,957.5,53.2z M984.5,114.4L984.5,114.4L984.5,114.4
		L984.5,114.4z M930.8,114.3L930.8,114.3L930.8,114.3L930.8,114.3z M984.8,114.2L984.8,114.2L984.8,114.2L984.8,114.2z
		 M1040.8,112.9c-1.7-2.5-3.6-4.9-5.8-6.9c-7.5-7-17.6-11.1-27.9-11.2c-3.5,0-7.1,0.4-10.5,1.3c-0.1,0.4-0.3,0.8-0.4,1.2
		c3.4-0.9,6.9-1.4,10.4-1.5c5.9,0,11.9,1.2,17.2,3.8c6.8,3.2,12.6,8.4,16.7,14.7C1040.6,113.8,1040.7,113.3,1040.8,112.9z
		 M930.6,114.1L930.6,114.1L930.6,114.1L930.6,114.1z M985,114L985,114L985,114L985,114z M930.4,113.9L930.4,113.9L930.4,113.9
		L930.4,113.9z M985.2,113.8L985.2,113.8L985.2,113.8L985.2,113.8z M930.2,113.8L930.2,113.8L930.2,113.8L930.2,113.8z M957.9,54
		c10.8,0.1,21.3,6.5,26.3,16.1c4.2,8.1,4.4,18.3,0.5,26.5c-3.1,6.6-8.7,11.9-15.4,14.7c-7.2,3.1-15.7,3.1-22.9,0.1
		c-9.6-3.9-16.8-13.1-18.3-23.3c-1.4-9.4,2-19.3,8.8-25.8C942.5,57,950.1,54,957.9,54z M929.9,113.6L929.9,113.6L929.9,113.6
		L929.9,113.6z M985.7,113.4L985.7,113.4L985.7,113.4L985.7,113.4z M929.7,113.3L929.7,113.3L929.7,113.3L929.7,113.3z M985.9,113.2
		L985.9,113.2L985.9,113.2L985.9,113.2z M929.5,113.1L929.5,113.1L929.5,113.1L929.5,113.1z M986.1,113L986.1,113L986.1,113
		L986.1,113z M929.3,112.9L929.3,112.9L929.3,112.9L929.3,112.9z M929.1,112.7L929.1,112.7L929.1,112.7L929.1,112.7z M957.5,55
		c-10.4,0.1-20.4,6.2-25.3,15.3c-4.2,7.9-4.5,17.8-0.6,26c4.6,9.8,15.1,16.4,25.9,16.5c10.9,0.1,21.5-6.6,26.2-16.4
		c3.8-7.9,3.7-17.5-0.2-25.3c-4.7-9.4-14.6-15.8-25.3-16C958,55,957.8,55,957.5,55z M986.5,112.6L986.5,112.6L986.5,112.6
		L986.5,112.6z M928.9,112.5L928.9,112.5L928.9,112.5L928.9,112.5z M1041,112.4L1041,112.4L1041,112.4L1041,112.4z M986.8,112.3
		L986.8,112.3L986.8,112.3L986.8,112.3z M928.7,112.3L928.7,112.3L928.7,112.3L928.7,112.3z M1041,112.2L1041,112.2L1041,112.2
		L1041,112.2z M987,112.1L987,112.1L987,112.1L987,112.1z M928.5,112.1L928.5,112.1L928.5,112.1L928.5,112.1z M957.9,55.7
		c10.1,0.1,19.8,5.9,24.6,14.8c4.2,7.7,4.5,17.4,0.8,25.3c-4.5,9.6-14.7,16.2-25.4,16.3c-10.6,0.1-20.9-6.3-25.5-15.8
		c-3.7-7.6-3.8-16.9-0.1-24.6c4.5-9.3,14.4-15.7,24.9-16C957.4,55.7,957.7,55.7,957.9,55.7z M1041.1,112L1041.1,112L1041.1,112
		L1041.1,112z M928.3,111.9L928.3,111.9L928.3,111.9L928.3,111.9z M987.4,111.7L987.4,111.7L987.4,111.7L987.4,111.7z M928.1,111.7
		L928.1,111.7L928.1,111.7L928.1,111.7z M1041.3,111.5L1041.3,111.5L1041.3,111.5L1041.3,111.5z M987.6,111.5L987.6,111.5
		L987.6,111.5L987.6,111.5z M927.9,111.5L927.9,111.5L927.9,111.5L927.9,111.5z M1041.3,111.3L1041.3,111.3L1041.3,111.3
		L1041.3,111.3z M987.8,111.2L987.8,111.2L987.8,111.2L987.8,111.2z M927.7,111.2L927.7,111.2L927.7,111.2L927.7,111.2z M957.5,56.7
		c-9.9,0.1-19.4,5.9-24,14.7c-3.9,7.4-4,16.6-0.4,24.1c4.4,9.2,14.2,15.5,24.4,15.6c10.2,0.1,20.1-6.1,24.6-15.3
		c4.9-10.1,2.7-23.2-5.2-31.1C971.9,59.6,964.9,56.7,957.5,56.7z M988,111L988,111L988,111L988,111z M988.2,110.8L988.2,110.8
		L988.2,110.8L988.2,110.8z M927.3,110.8L927.3,110.8L927.3,110.8L927.3,110.8z M927.1,110.6L927.1,110.6L927.1,110.6L927.1,110.6z
		 M988.4,110.6L988.4,110.6L988.4,110.6L988.4,110.6z M957.9,57.2c9.8,0.1,19.2,5.9,23.6,14.7c3.6,7.2,3.7,16.1,0.3,23.4
		c-4.3,9-13.9,15.2-23.9,15.2c-10,0.1-19.7-6-24.1-15c-3.6-7.4-3.5-16.4,0.1-23.7c4.3-8.6,13.5-14.4,23.3-14.7
		C957.4,57.2,957.7,57.2,957.9,57.2z M926.9,110.4L926.9,110.4L926.9,110.4L926.9,110.4z M988.6,110.3L988.6,110.3L988.6,110.3
		L988.6,110.3z M926.7,110.1L926.7,110.1L926.7,110.1L926.7,110.1z M988.8,110.1L988.8,110.1L988.8,110.1L988.8,110.1z M926.3,109.7
		L926.3,109.7L926.3,109.7L926.3,109.7z M989.2,109.6L989.2,109.6L989.2,109.6L989.2,109.6z M926.1,109.5L926.1,109.5L926.1,109.5
		L926.1,109.5z M989.4,109.4L989.4,109.4L989.4,109.4L989.4,109.4z M957.6,58.2c-11.7,0.1-22.6,9-25,20.5
		c-1.7,8.4,1.1,17.5,7.2,23.5c7.1,6.9,18.4,9.2,27.6,5.4c8.2-3.4,14.4-11.2,15.7-20c1.6-10.8-4.6-22.3-14.5-27
		C965.1,59,961.4,58.2,957.6,58.2z M925.9,109.2L925.9,109.2L925.9,109.2L925.9,109.2z M989.5,109.2L989.5,109.2L989.5,109.2
		L989.5,109.2z M925.8,109L925.8,109L925.8,109L925.8,109z M957.9,58.7c11.5,0.1,22.2,8.9,24.5,20.2c1.6,8.2-1.1,17.1-7.1,22.9
		c-7,6.8-18,9-27.1,5.3c-8-3.3-14.1-11-15.4-19.6c-1.6-10.6,4.5-21.9,14.3-26.5C950.5,59.5,954.2,58.7,957.9,58.7z M989.9,108.7
		L989.9,108.7L989.9,108.7L989.9,108.7z M925.4,108.5L925.4,108.5L925.4,108.5L925.4,108.5z M990.1,108.5L990.1,108.5L990.1,108.5
		L990.1,108.5z M925.2,108.3L925.2,108.3L925.2,108.3L925.2,108.3z M990.3,108.2L990.3,108.2L990.3,108.2L990.3,108.2z M925,108.1
		L925,108.1L925,108.1L925,108.1z M957.6,59.7c-11,0.1-21.4,8.6-23.5,19.4c-1.6,7.8,1.1,16.4,6.8,22c6.7,6.5,17.3,8.6,26,5.1
		c7.7-3.2,13.6-10.6,14.8-18.8c1.5-10.2-4.3-21-13.7-25.4C964.7,60.5,961.2,59.7,957.6,59.7z M924.9,107.8L924.9,107.8L924.9,107.8
		L924.9,107.8z M990.6,107.7L990.6,107.7L990.6,107.7L990.6,107.7z M990.8,107.5L990.8,107.5L990.8,107.5L990.8,107.5z M957.9,60.3
		c10.7,0.1,20.8,8.3,23,18.8c1.6,7.7-1,16.1-6.6,21.6c-6.5,6.4-16.9,8.4-25.4,5c-7.5-3.1-13.2-10.3-14.4-18.4
		c-1.5-10,4.2-20.5,13.4-24.8C950.9,61,954.4,60.3,957.9,60.3z M924.5,107.3L924.5,107.3L924.5,107.3L924.5,107.3z M991,107.2
		L991,107.2L991,107.2L991,107.2z M924.4,107.1L924.4,107.1L924.4,107.1L924.4,107.1z M924.2,106.9L924.2,106.9L924.2,106.9
		L924.2,106.9z M991.3,106.8L991.3,106.8L991.3,106.8L991.3,106.8z M924,106.6L924,106.6L924,106.6L924,106.6z M991.5,106.5
		L991.5,106.5L991.5,106.5L991.5,106.5z M923.9,106.4L923.9,106.4L923.9,106.4L923.9,106.4z M957.6,61.3c-10.3,0.1-19.9,7.9-22,18
		c-1.5,7.4,1,15.4,6.4,20.7c6.2,6.1,16.2,8.1,24.3,4.8c7.2-3,12.7-9.9,13.8-17.6c1.4-9.5-4.1-19.7-12.8-23.8
		C964.2,62,960.9,61.3,957.6,61.3z M991.7,106.2L991.7,106.2L991.7,106.2L991.7,106.2z M923.7,106.1L923.7,106.1L923.7,106.1
		L923.7,106.1z M923.5,105.9L923.5,105.9L923.5,105.9L923.5,105.9z M957.9,61.9c10,0.1,19.4,7.7,21.4,17.7c1.4,7.2-1,15-6.3,20.1
		c-6.1,5.9-15.8,7.7-23.6,4.5c-7-2.9-12.3-9.7-13.3-17.2c-1.3-9.3,4.1-19.1,12.6-23C951.5,62.6,954.6,61.9,957.9,61.9z M923.4,105.6
		L923.4,105.6L923.4,105.6L923.4,105.6z M992.2,105.5L992.2,105.5L992.2,105.5L992.2,105.5z M923.2,105.4L923.2,105.4L923.2,105.4
		L923.2,105.4z M992.3,105.2L992.3,105.2L992.3,105.2L992.3,105.2z M923.1,105.1L923.1,105.1L923.1,105.1L923.1,105.1z M922.9,104.9
		L922.9,104.9L922.9,104.9L922.9,104.9z M957.6,62.9c-9.6,0.1-18.6,7.4-20.4,17c-1.3,6.8,1,14.2,6,19c5.8,5.6,15.1,7.4,22.6,4.3
		c6.7-2.8,11.7-9.2,12.7-16.4c1.2-8.8-3.8-18.2-12-22C963.7,63.6,960.7,62.9,957.6,62.9z M922.7,104.6L922.7,104.6L922.7,104.6
		L922.7,104.6z M992.8,104.4L992.8,104.4L992.8,104.4L992.8,104.4z M922.6,104.4L922.6,104.4L922.6,104.4L922.6,104.4z M993,104.2
		L993,104.2L993,104.2L993,104.2z M957.9,63.5c9.4,0.1,18.3,7.4,19.9,16.9c1.2,6.7-1.3,13.9-6.4,18.5c-5.6,5.1-14.1,6.6-21.1,3.9
		c-5.9-2.3-10.6-7.6-12.2-13.7c-1.7-6.5,0-13.7,4.4-18.7c3.8-4.2,9.3-6.8,15.1-6.8C957.7,63.5,957.8,63.5,957.9,63.5z M993.4,103.4
		L993.4,103.4L993.4,103.4L993.4,103.4z M993.6,103.1L993.6,103.1L993.6,103.1L993.6,103.1z M957.8,64.5c5.5,0.1,10.8,2.5,14.3,6.5
		c4.2,4.7,5.8,11.5,4.3,17.5c-1.5,5.9-6,11-11.7,13.3c-6.7,2.6-14.8,1.1-20.1-3.7c-4.9-4.4-7.2-11.4-6-17.8
		c1.6-8.9,10-15.7,18.9-15.8H957.8z M957.8,65C957.8,65,957.8,65,957.8,65c8.5,0.1,16.4,6.3,18.3,14.6c1.4,6.3-0.6,13.2-5.2,17.8
		c-3.5,3.4-8.4,5.3-13.3,5.3h0c-2.4,0-4.9-0.5-7.1-1.4c-5.7-2.4-10-7.7-11.2-13.8c-1.6-8.2,3.1-17.3,10.8-20.8
		c2.4-1.1,5-1.6,7.6-1.7C957.6,65,957.7,65,957.8,65L957.8,65z M994.1,102L994.1,102L994.1,102L994.1,102z M994.2,101.8L994.2,101.8
		L994.2,101.8L994.2,101.8z M957.7,66c0,0-0.1,0-0.1,0c-8,0.1-15.5,6-17.3,13.8c-1.4,5.9,0.6,12.5,4.9,16.8c3.3,3.3,8,5,12.7,5h0
		c2.3,0,4.6-0.4,6.7-1.3c5.4-2.3,9.5-7.4,10.6-13.1c1.9-10.1-6.2-21.1-17.4-21.2C957.8,66,957.8,66,957.7,66L957.7,66z M921,101.4
		L921,101.4L921,101.4L921,101.4z M957.9,66.7c7.8,0.1,15.1,6.2,16.6,13.9c1.5,7.7-3.1,16.2-10.4,19.1c-6.1,2.5-13.6,1.1-18.3-3.5
		c-5.2-5-6.8-13.5-3.5-20c2.8-5.6,8.8-9.4,15.2-9.5C957.7,66.7,957.7,66.7,957.9,66.7z M994.6,100.9L994.6,100.9L994.6,100.9
		L994.6,100.9z M994.8,100.7L994.8,100.7L994.8,100.7L994.8,100.7z M957.5,67.7c-7.4,0.1-14.3,5.8-15.7,13.1
		c-1.4,7.3,2.9,15.2,9.8,18c5.7,2.3,12.8,1,17.3-3.3c4.9-4.7,6.4-12.7,3.3-18.9c-2.6-5.3-8.3-8.9-14.3-9
		C957.7,67.7,957.7,67.7,957.5,67.7z M995.1,99.8L995.1,99.8L995.1,99.8L995.1,99.8z M995.3,99.5L995.3,99.5L995.3,99.5L995.3,99.5z
		 M957.9,68.3c7.1,0.1,13.7,5.6,15.1,12.6c1.3,7-2.8,14.6-9.4,17.3c-5.5,2.3-12.3,1-16.6-3.1c-4.9-4.7-6.2-12.7-2.9-18.6
		c2.6-4.8,7.9-8,13.5-8.1C957.7,68.3,957.7,68.3,957.9,68.3z M995.7,98.4L995.7,98.4L995.7,98.4L995.7,98.4z M957.5,69.3
		c-6.6,0.1-12.8,5.2-14.1,11.8c-1.3,6.5,2.6,13.7,8.8,16.2c6.8,2.8,15.4-0.5,18.6-7.2c3.3-6.9,0.1-16.2-7-19.5
		c-1.9-0.9-3.9-1.3-6-1.4C957.7,69.3,957.7,69.3,957.5,69.3z M957.9,70c6.3,0.1,12.2,5,13.4,11.2c1.2,6.2-2.5,13-8.4,15.4
		c-6.4,2.6-14.7-0.5-17.7-6.8c-3.2-6.6-0.1-15.4,6.6-18.6c1.8-0.8,3.7-1.3,5.7-1.3C957.7,70,957.7,70,957.9,70z M957.6,71
		c-5.9,0.1-11.3,4.6-12.5,10.4c-1.1,5.8,2.3,12.1,7.8,14.3c6,2.4,13.6-0.4,16.4-6.3c2.9-6.1,0.1-14.3-6.2-17.2
		c-1.6-0.8-3.4-1.2-5.3-1.2C957.7,71,957.7,71,957.6,71z M957.9,71.5c5.6,0.1,10.9,4.4,11.9,10c1.1,5.5-2.2,11.6-7.4,13.7
		c-5.7,2.3-13-0.4-15.8-6.1c-2.8-5.8-0.1-13.7,5.9-16.5c1.6-0.7,3.3-1.1,5-1.2C957.7,71.5,957.7,71.5,957.9,71.5z M957.6,72.5
		c-5.2,0.1-10,4.1-11,9.2c-1,5.1,2,10.7,6.8,12.6c5.3,2.1,12-0.4,14.5-5.6c3.2-6.7-1.8-16.1-10.1-16.2
		C957.7,72.5,957.7,72.5,957.6,72.5z M997,94.6L997,94.6L997,94.6L997,94.6z M957.9,73.2c6,0.1,11.3,6,10.4,12.1
		c-0.7,5-5.4,9.2-10.5,9.2c-5.1,0-9.8-4.1-10.5-9.2c-0.8-5.9,4-12,10.4-12.1C957.7,73.2,957.7,73.2,957.9,73.2z M957.6,74.2
		c-5.4,0.1-10.2,5.4-9.4,11c0.6,4.5,4.9,8.3,9.5,8.3c6.4,0,11.8-7.7,8.6-13.9c-1.6-3.2-4.9-5.3-8.5-5.4
		C957.7,74.2,957.7,74.2,957.6,74.2z M957.7,82c1,0,1.9,0.8,1.9,1.9s-0.8,1.9-1.9,1.9c-1,0-1.9-0.8-1.9-1.9S956.7,82,957.7,82z"/>
</g>
</svg>
