<?xml version="1.0" encoding="utf-8"?>
<!-- Generator: Adobe Illustrator 23.0.6, SVG Export Plug-In . SVG Version: 6.00 Build 0)  -->
<svg version="1.1" id="Layer_1" xmlns:serif="http://www.serif.com/"
	 xmlns="http://www.w3.org/2000/svg" xmlns:xlink="http://www.w3.org/1999/xlink" x="0px" y="0px" viewBox="0 0 100 100"
	 style="enable-background:new 0 0 100 100;" xml:space="preserve">
<style type="text/css">
	.st0{fill-rule:evenodd;clip-rule:evenodd;}
</style>
<path id="XP" class="st0" d="M77.7,77H32V66.2h2.8l-3.7-3.7l11.4-11.4l15,15h1.8V33.9h-2.2L24.9,66.2h3V77H0V66.2h2.2l16.3-16.3
	l-16-16H0V23h27.9v10.8h-2.6l4.6,4.6l4.6-4.6H32V23h24.3v0h25.6c10,0,18.1,8.1,18.1,18.1c0,10-8.1,18.1-18.1,18.1h-4.6V43.3h4.6
	c1.2,0,2.2-1,2.2-2.2c0-1.2-1-2.2-2.2-2.2h-6.4v27.3h2.3V77L77.7,77z"/>
</svg>
