<svg id="Layer_1" data-name="Layer 1" xmlns="http://www.w3.org/2000/svg" viewBox="0 0 100 100"><title>faculty-teacher</title><path d="M60,10a50,50,0,1,0,50,50A50,50,0,0,0,60,10ZM92.89,87.1H27.11V83.62c0-1.95,1.17-3.54,2.6-3.54H90.29c1.43,0,2.6,1.6,2.6,3.54V87.1ZM49.34,73.87V48H58V73.87h4.38V48h8.62V73.87h4.38V48h8.62V73.87h2.4a2.27,2.27,0,0,1,2.26,2.26v2.21H31.4V76.13a2.27,2.27,0,0,1,2.26-2.26h2.68V48H45V73.87h4.38ZM92.89,44.18H88.6a2.27,2.27,0,0,1-2.26,2.24H33.66a2.27,2.27,0,0,1-2.26-2.24H27.58V39.54L60.24,25.89,92.89,39.54v4.64Z" transform="translate(-10 -10)"/></svg>