<?xml version="1.0" encoding="utf-8"?>
<!-- Generator: Adobe Illustrator 24.0.0, SVG Export Plug-In . SVG Version: 6.00 Build 0)  -->
<svg version="1.1" id="Layer_1" xmlns="http://www.w3.org/2000/svg" xmlns:xlink="http://www.w3.org/1999/xlink" x="0px" y="0px"
	 viewBox="0 0 100 100" style="enable-background:new 0 0 100 100;" xml:space="preserve">
<title>forum</title>
<path d="M100,33.5V75c-0.1,0.1-0.1,0.1-0.1,0.2c-0.7,4.5-4.6,7.8-9.2,7.6c-2,0-4,0-6,0h-1v16.7l-0.2,0.1c-0.2-0.3-0.4-0.5-0.6-0.8
	c-5-5.1-10-10.2-15-15.4c-0.4-0.5-1-0.7-1.7-0.7c-13,0-26,0-39,0c-4.9,0-8.8-3.9-8.9-8.8c0-13.2,0-26.4,0-39.6
	c0.1-4.8,3.9-8.6,8.7-8.7c21.4,0,42.8,0,64.1,0c2.6,0,5,1.2,6.6,3.2C98.9,30.2,99.6,31.8,100,33.5z M38.8,46.1
	c-4.4-0.1-8.1,3.5-8.1,7.9v0.1c-0.1,4.5,3.5,8.1,8,8.2s8.1-3.5,8.2-8C46.9,49.8,43.3,46.2,38.8,46.1L38.8,46.1z M59.2,46.1
	c-4.5,0.2-8,3.9-7.8,8.4c0.1,4.3,3.6,7.7,7.8,7.8c4.5,0.2,8.2-3.3,8.4-7.8s-3.3-8.2-7.8-8.4C59.6,46.1,59.4,46.1,59.2,46.1z
	 M71.5,54.2c0,4.5,3.6,8.1,8.1,8.1c4.5,0.2,8.2-3.3,8.4-7.8c0.2-4.5-3.3-8.2-7.8-8.4c-0.2,0-0.4,0-0.6,0c-4.4,0-8,3.5-8.1,7.9
	C71.5,54.1,71.5,54.1,71.5,54.2L71.5,54.2z M0,10.5c0.2-0.9,0.4-1.8,0.7-2.7c1.7-4.5,5.9-7.5,10.7-7.5h55c5.8,0,10.6,4.3,11.4,9.9
	c0.1,0.7,0.1,1.4,0.2,2.1c0,3.7,0,7.5,0,11.3H25.5c-4.8-0.1-8.8,3.8-8.9,8.6c0,0.1,0,0.2,0,0.3c0,8,0,16,0,24
	c0.1,0.6-0.2,1.1-0.8,1.4c-3.4,2-6.8,4-10.1,6.1c-0.2,0.2-0.5,0.2-0.8,0.3L12.8,52c-1.5-0.1-3-0.3-4.4-0.7c-4.4-1.2-7.7-4.9-8.2-9.4
	c0-0.1-0.1-0.2-0.2-0.3L0,10.5L0,10.5z"/>
</svg>
