<?xml version="1.0" encoding="utf-8"?>
<!-- Generator: Adobe Illustrator 19.2.1, SVG Export Plug-In . SVG Version: 6.00 Build 0)  -->
<svg version="1.1" id="Layer_1" xmlns="http://www.w3.org/2000/svg" xmlns:xlink="http://www.w3.org/1999/xlink" x="0px" y="0px"
	 viewBox="0 0 100 99.3" style="enable-background:new 0 0 100 99.3;" xml:space="preserve">
<title>forum</title>
<path d="M100,33.2v41.4c-0.1,0.1-0.1,0.1-0.1,0.2c-0.7,4.5-4.6,7.8-9.2,7.6c-2,0-4,0-6,0h-1v16.7l-0.2,0.1c-0.2-0.3-0.4-0.5-0.6-0.8
	c-5-5.1-10-10.2-15-15.4c-0.4-0.5-1-0.7-1.7-0.7c-13,0-26,0-39,0c-4.9,0-8.8-3.9-8.9-8.8c0-13.2,0-26.4,0-39.6
	c0.1-4.8,3.9-8.6,8.7-8.7c21.4,0,42.8,0,64.1,0c2.6,0,5,1.2,6.6,3.2C98.9,29.9,99.6,31.5,100,33.2z M38.8,45.8
	c-4.4-0.1-8.1,3.5-8.1,7.9c0,0,0,0.1,0,0.1c-0.1,4.5,3.5,8.1,8,8.2s8.1-3.5,8.2-8C46.9,49.5,43.3,45.9,38.8,45.8
	C38.8,45.8,38.8,45.8,38.8,45.8z M59.2,45.8c-4.5,0.2-8,3.9-7.8,8.4c0.1,4.3,3.6,7.7,7.8,7.8c4.5,0.2,8.2-3.3,8.4-7.8
	c0.2-4.5-3.3-8.2-7.8-8.4C59.6,45.8,59.4,45.8,59.2,45.8z M71.5,53.9c0,4.5,3.6,8.1,8.1,8.1c4.5,0.2,8.2-3.3,8.4-7.8
	c0.2-4.5-3.3-8.2-7.8-8.4c-0.2,0-0.4,0-0.6,0c-4.4,0-8,3.5-8.1,7.9C71.5,53.8,71.5,53.8,71.5,53.9L71.5,53.9z M0,10.2
	c0.2-0.9,0.4-1.8,0.7-2.7C2.4,3,6.6,0,11.4,0h55C72.2,0,77,4.3,77.8,9.9c0.1,0.7,0.1,1.4,0.2,2.1c0,3.7,0,7.5,0,11.3H25.5
	c-4.8-0.1-8.8,3.8-8.9,8.6c0,0.1,0,0.2,0,0.3c0,8,0,16,0,24c0.1,0.6-0.2,1.1-0.8,1.4c-3.4,2-6.8,4-10.1,6.1
	c-0.2,0.2-0.5,0.2-0.8,0.3l7.9-12.3c-1.5-0.1-3-0.3-4.4-0.7c-4.4-1.2-7.7-4.9-8.2-9.4c0-0.1-0.1-0.2-0.2-0.3V10.2L0,10.2z"/>
</svg>
