<svg id="Layer_1" data-name="Layer 1" xmlns="http://www.w3.org/2000/svg" viewBox="0 0 181.01 136.26"><defs><style>.cls-1{fill-rule:evenodd;}</style></defs><path id="Path_68454" data-name="Path 68454" class="cls-1" d="M148.68,44.65h-.84a44.56,44.56,0,0,1,.91,9.14A51.11,51.11,0,0,1,140,83.16c-2.16,3.42-7.6,11.31-14,20.24,7.88,11.72,22.32,32.44,22.32,32.44s22.61-32.23,26.86-38.93A34.11,34.11,0,0,0,181,77.16,32.58,32.58,0,0,0,148.68,44.65ZM89.8,0A48.84,48.84,0,0,0,41,48.84h0a51.64,51.64,0,0,0,8.72,29.37c6.21,10,39.7,58.05,39.7,58.05s33.63-48,39.91-57.91A51.15,51.15,0,0,0,138.08,49,48.85,48.85,0,0,0,89.8,0Zm0,63.84A17.65,17.65,0,1,0,72.21,46.12v.07A17.67,17.67,0,0,0,89.73,63.84ZM.07,77.23A34.46,34.46,0,0,0,6,97c4.19,7,26.8,38.93,26.8,38.93S47.24,115,55.12,103.47C49,94.54,43.54,86.65,41.17,83.23a50.94,50.94,0,0,1-8.74-29.37,50,50,0,0,1,.9-9.14h-.9A32.58,32.58,0,0,0,0,77.23Z"/></svg>