<?xml version="1.0" encoding="utf-8"?>
<!-- Generator: Adobe Illustrator 23.0.6, SVG Export Plug-In . SVG Version: 6.00 Build 0)  -->
<svg version="1.1" id="Layer_1" xmlns:serif="http://www.serif.com/"
	 xmlns="http://www.w3.org/2000/svg" xmlns:xlink="http://www.w3.org/1999/xlink" x="0px" y="0px" viewBox="0 0 100 100"
	 style="enable-background:new 0 0 100 100;" xml:space="preserve">
<style type="text/css">
	.st0{fill-rule:evenodd;clip-rule:evenodd;}
</style>
<path class="st0" d="M50,0l5.8,5.8l7.1-4.1l4.1,7.1L75,6.7l2.1,8h8.2v8.2l7.9,2.1l-2.1,7.9l7.1,4.1l-4.1,7.1L100,50l-5.8,5.8
	l4.1,7.1l-7.1,4.1l2.1,7.9l-7.9,2.1v8.2h-8.2L75,93.3l-7.9-2.1l-4.1,7.1l-7.1-4.1L50,100l-5.8-5.8l-7.1,4.1l-4.1-7.1L25,93.3
	l-2.1-7.9h-8.2v-8.2l-8-2.1l2.1-7.9l-7.1-4.1l4.1-7.1L0,50l5.8-5.8l-4.1-7.1l7.1-4.1L6.7,25l8-2.1v-8.2h8.2l2.1-8l7.9,2.1l4.1-7.1
	l7.1,4.1L50,0L50,0z M30.2,33.4H16.4v33.3h5.2V52.9h6.8v-4.8h-6.8v-10h8.6V33.4L30.2,33.4z M66.1,33.4H51.9v33.3h14.3v-4.8h-9v-9.7
	h7.2v-4.8h-7.2v-9.3h9L66.1,33.4L66.1,33.4z M83.6,33.4H69.4v33.3h14.3v-4.8h-9v-9.7h7.2v-4.8h-7.2v-9.3h9V33.4L83.6,33.4z
	 M40.6,33.4h-7.9v33.3H38V53.1h1.8c2.4,0,3.4,1.1,3.4,4.2v5.2c0,2.7,0.2,3.2,0.5,4.1H49c-0.5-1.2-0.6-2.4-0.6-4v-5.1
	c0-3.5-0.9-6-3.5-7.1c2.3-1.1,3.4-3.3,3.4-6.8V41C48.4,35.9,46.1,33.4,40.6,33.4L40.6,33.4z M40,48.3h-2V38.1h2.5
	c1.9,0,2.7,1,2.7,3.4v3.3C43.2,47.5,42,48.3,40,48.3L40,48.3z"/>
</svg>
