<?xml version="1.0" encoding="utf-8"?>
<!-- Generator: Adobe Illustrator 24.0.0, SVG Export Plug-In . SVG Version: 6.00 Build 0)  -->
<svg version="1.1" id="Layer_1" xmlns="http://www.w3.org/2000/svg" xmlns:xlink="http://www.w3.org/1999/xlink" x="0px" y="0px"
	 viewBox="0 0 100 100" style="enable-background:new 0 0 100 100;" xml:space="preserve">
<title>gear</title>
<path d="M46.9,100h-0.8c-0.3-0.1-0.7-0.2-1-0.2c-2.2-0.3-4.3-0.5-6.5-0.9c-0.8,0-1.4-0.6-1.4-1.4c-0.5-3.1-1.2-6.1-1.7-9.1
	c-0.1-0.7-0.5-1.2-1.2-1.4c-5.3-2.1-10.2-5.3-14.2-9.4c-0.5-0.6-1.2-0.8-1.9-0.6c-3,0.7-6.1,1.4-9.1,2c-0.5,0.1-1.1-0.1-1.4-0.5
	c-1.6-2.4-3.1-5-4.6-7.4c2.4-2.8,4.5-5.4,6.8-7.9c0.6-0.6,0.8-1.5,0.4-2.2c-1.7-5.4-2.2-11-1.5-16.6c0.2-0.7-0.1-1.5-0.8-1.9
	c-2.4-1.9-4.7-3.9-7.1-5.8c-0.6-0.3-0.8-1-0.5-1.6c0.9-2.3,1.8-4.7,2.7-7.1c0.1-0.6,0.8-1,1.4-0.9c3.2,0.1,6.3,0.2,9.5,0.3
	c0.7,0.1,1.3-0.2,1.6-0.8c3.2-4.8,7.4-8.7,12.4-11.7c0.6-0.3,1-1,0.9-1.7c0-3,0.1-6,0-9c-0.2-0.8,0.4-1.6,1.2-1.8c0,0,0,0,0,0
	c2.3-0.7,4.5-1.4,6.7-2.1c0.7-0.4,1.6-0.1,2,0.7c1.8,2.5,3.6,5,5.5,7.4C44.8,8.7,45.3,9,45.9,9c5.7-0.5,11.4,0.3,16.8,2.2
	c0.7,0.3,1.5,0.2,2.1-0.3C67.2,9,69.6,7.2,72,5.3c0.5-0.5,1.2-0.6,1.8-0.1C76,6.6,78.1,8,80.3,9.4c0.5,0.3,0.7,0.9,0.4,1.5
	c-0.8,3-1.6,6-2.4,9c-0.3,0.7-0.1,1.5,0.4,2c3.9,4.2,6.9,9.2,8.6,14.6c0.2,0.6,0.7,1.1,1.4,1.2c3.1,0.7,6.1,1.5,9.2,2.2
	c0.6,0,1.1,0.5,1.1,1.1c0,0,0,0,0,0c0.2,1.8,0.5,3.6,0.7,5.4v3.5c-3.4,1.4-6.8,2.9-10.1,4.3c-0.3,0.2-0.5,0.6-0.5,1
	C88.2,61,86.2,66.5,83,71.4c-0.2,0.5-0.2,1.1,0,1.7c1.2,2.8,2.6,5.7,3.9,8.5c0.4,0.6,0.3,1.3-0.2,1.8c-1.9,1.7-3.7,3.5-5.5,5.2
	c-0.4,0.5-1.2,0.6-1.8,0.2c-2.7-1.4-5.4-2.8-8.1-4.3c-0.6-0.4-1.4-0.4-2,0c-5,2.9-10.5,4.7-16.2,5.2c-0.6,0.1-1,0.5-1.3,1
	C50,93.7,48.5,96.9,46.9,100z M78.8,49.4c0-16.4-13.3-29.8-29.8-29.8S19.2,32.9,19.2,49.3c0,16.3,13,29.5,29.3,29.8
	c16.5,0.2,30-12.9,30.2-29.4C78.8,49.6,78.8,49.5,78.8,49.4z"/>
</svg>
