<svg id="Layer_1" data-name="Layer 1" xmlns="http://www.w3.org/2000/svg" viewBox="0 0 99.42 100"><title>gear</title><path d="M56.88,110h-0.8c-0.34-.08-0.68-0.19-1-0.24-2.16-.29-4.32-0.55-6.47-0.86a1.41,1.41,0,0,1-1.43-1.36c-0.48-3.07-1.22-6.09-1.74-9.15A1.57,1.57,0,0,0,44.27,97a40,40,0,0,1-14.16-9.37,1.75,1.75,0,0,0-1.88-.56q-4.53,1.06-9.11,2a1.71,1.71,0,0,1-1.45-.51c-1.59-2.45-3.08-5-4.58-7.43,2.37-2.77,4.53-5.38,6.8-7.91A1.91,1.91,0,0,0,20.34,71a38.72,38.72,0,0,1-1.47-16.63,1.75,1.75,0,0,0-.77-1.87c-2.41-1.92-4.75-3.92-7.15-5.85A1.24,1.24,0,0,1,10.43,45c0.95-2.34,1.82-4.72,2.68-7.09A1.2,1.2,0,0,1,14.5,37c3.17,0.14,6.34.19,9.51,0.31a1.65,1.65,0,0,0,1.63-.83A39.08,39.08,0,0,1,38,24.8a1.74,1.74,0,0,0,.93-1.73c0-3,.07-6,0-9a1.54,1.54,0,0,1,1.28-1.8q3.38-1,6.71-2.15a1.51,1.51,0,0,1,2,.67q2.68,3.76,5.51,7.41a2.06,2.06,0,0,0,1.48.79,39,39,0,0,1,16.8,2.25,1.89,1.89,0,0,0,2.07-.31c2.4-1.93,4.87-3.77,7.27-5.68a1.33,1.33,0,0,1,1.79-.14C86,16.57,88.1,18,90.26,19.42a1.09,1.09,0,0,1,.43,1.46c-0.83,3-1.6,6-2.42,9a1.83,1.83,0,0,0,.45,2,39.3,39.3,0,0,1,8.64,14.59,1.63,1.63,0,0,0,1.36,1.21c3.07,0.71,6.11,1.52,9.18,2.22A1.08,1.08,0,0,1,109,51c0.2,1.8.49,3.6,0.75,5.4v3.49c-3.38,1.44-6.77,2.86-10.14,4.34a1.39,1.39,0,0,0-.55,1A40.13,40.13,0,0,1,93,81.38a2.06,2.06,0,0,0,0,1.66c1.25,2.85,2.57,5.66,3.91,8.46a1.28,1.28,0,0,1-.23,1.76q-2.81,2.57-5.52,5.25a1.27,1.27,0,0,1-1.76.16c-2.7-1.45-5.45-2.82-8.13-4.29a1.79,1.79,0,0,0-2,0,39.75,39.75,0,0,1-16.23,5.19,2.06,2.06,0,0,0-1.3,1C60,103.73,58.45,106.87,56.88,110ZM88.8,59.36A29.79,29.79,0,1,0,58.54,89.12,29.82,29.82,0,0,0,88.8,59.36Z" transform="translate(-10.29 -10)"/></svg>