<?xml version="1.0" encoding="utf-8"?>
<!-- Generator: Adobe Illustrator 23.0.6, SVG Export Plug-In . SVG Version: 6.00 Build 0)  -->
<svg version="1.1" id="Layer_1" xmlns:serif="http://www.serif.com/"
	 xmlns="http://www.w3.org/2000/svg" xmlns:xlink="http://www.w3.org/1999/xlink" x="0px" y="0px" viewBox="0 0 100 100"
	 style="enable-background:new 0 0 100 100;" xml:space="preserve">
<style type="text/css">
	.st0{fill-rule:evenodd;clip-rule:evenodd;}
</style>
<path class="st0" d="M18.2,60.5l-9.5,9.5l-6.4,6.4h10.4L7.5,92.2l15.7-5.2v10.4l8.1-8.1l7.9-7.9c-5.4-0.7-10.2-3.1-14-6.9
	C21.3,70.7,19,65.9,18.2,60.5L18.2,60.5z M78,21.7c4.3,4.3,4.3,11.3,0,15.7s-11.3,4.3-15.7,0C58,33,58,26,62.3,21.7
	C66.6,17.3,73.6,17.3,78,21.7z M98.9,0.8c2.6,7.8-0.8,37.4-19.6,56.1c-1.1,1.1-2.2,2.1-3.2,3.1l0.9,9.5c0.6,6.1-2,11.7-7.2,15.1
	L46.6,100l-2-25.7c-5.4-0.2-10.1-2.1-13.7-5.6c-3.5-3.5-5.4-8.2-5.6-13.6l-25-1.6l14.8-23.3c3.4-5.3,9.1-8.1,15.4-7.5l9.1,0.9
	c1-1.1,2-2.2,3.1-3.3C61.5,1.6,91-1.8,98.9,0.8L98.9,0.8z"/>
</svg>
