<?xml version="1.0" encoding="utf-8"?>
<!-- Generator: Adobe Illustrator 23.0.6, SVG Export Plug-In . SVG Version: 6.00 Build 0)  -->
<svg version="1.1" id="Layer_1" xmlns:serif="http://www.serif.com/"
	 xmlns="http://www.w3.org/2000/svg" xmlns:xlink="http://www.w3.org/1999/xlink" x="0px" y="0px" viewBox="0 0 100 100"
	 style="enable-background:new 0 0 100 100;" xml:space="preserve">
<g>
	<path d="M55.8,59.9V100h33c4.3,0,7.8-3.5,7.8-7.8V59.9H55.8z"/>
	<path d="M44.2,59.9H3.4v32.4c0,4.3,3.5,7.8,7.8,7.8h33L44.2,59.9L44.2,59.9z"/>
	<path d="M91.4,29.4H76.8c2-1,3.7-2,4.7-3c6-6,6-15.8,0-21.8c-3-3-6.9-4.5-10.9-4.5s-7.9,1.5-10.9,4.5c-2.5,2.5-4.9,8.7-6.9,15
		C52,19.4,51,19.3,50,19.3s-1.9,0.2-2.8,0.4c-2-6.4-4.4-12.7-6.9-15.2c-3-3-6.9-4.5-10.9-4.5s-7.9,1.5-10.9,4.5c-6,6-6,15.8,0,21.8
		c1.1,1.1,2.9,2.1,5.1,3.2H8.6c-4.3,0-7.8,3.5-7.8,7.8v6.6c0,4.3,3.5,7.8,7.8,7.8h35.5V29.7h11.7v21.8h35.5c4.3,0,7.8-3.5,7.8-7.8
		v-6.6C99.1,32.9,95.7,29.4,91.4,29.4L91.4,29.4z M65.2,10.2c1.4-1.4,3.4-2.2,5.4-2.2c2,0,3.9,0.8,5.4,2.2c1.4,1.4,2.2,3.3,2.2,5.4
		s-0.8,4-2.2,5.4c-1.6,1.5-7.9,3.9-15.7,6.1c-0.2-0.8-0.5-1.5-0.9-2.1C61.5,17.5,63.8,11.7,65.2,10.2L65.2,10.2z M24,10
		c1.4-1.4,3.4-2.2,5.4-2.2s3.9,0.8,5.4,2.2c1.5,1.5,3.7,7.5,5.9,14.9c-0.3,0.6-0.6,1.3-0.8,2c-7.8-2.2-14.2-4.6-15.8-6.1
		C21,17.8,21,13,24,10L24,10z"/>
</g>
</svg>
