<?xml version="1.0" encoding="utf-8"?>
<!-- Generator: Adobe Illustrator 19.2.1, SVG Export Plug-In . SVG Version: 6.00 Build 0)  -->
<svg version="1.1" id="Layer_1" xmlns="http://www.w3.org/2000/svg" xmlns:xlink="http://www.w3.org/1999/xlink" x="0px" y="0px"
	 viewBox="0 0 100 100" style="enable-background:new 0 0 100 100;" xml:space="preserve">
<title>go-to</title>
<path d="M0,66.6h11.1v22.2h77.7V11.2H11.2v22.2H0V9.6c0.1-0.1,0.1-0.3,0.2-0.4c0.6-3.6,3-6.7,6.4-8.1c1-0.4,2-0.7,3-1h81.1
	c0.2,0.1,0.3,0.2,0.5,0.2c4,0.8,7.2,3.7,8.4,7.6c0.2,0.6,0.3,1.2,0.5,1.8v80.9c-0.1,0.2-0.2,0.4-0.2,0.6c-0.8,4-3.7,7.2-7.6,8.4
	c-0.6,0.2-1.2,0.3-1.8,0.5H9.6c-0.2-0.1-0.4-0.1-0.5-0.2c-4.3-0.8-7.8-4.1-8.8-8.4c-0.1-0.3-0.2-0.5-0.3-0.8L0,66.6L0,66.6z M0,44.3
	c0.4,0,0.7,0.1,1.1,0.1h52.6L39.5,30.3l7.8-7.7L74.8,50L47.3,77.5l-7.7-7.7l14.2-14.2c-0.5,0-0.8-0.1-1.1-0.1H1c-0.3,0-0.6,0-1,0.1
	V44.3z"/>
</svg>
