<?xml version="1.0" encoding="utf-8"?>
<!-- Generator: Adobe Illustrator 23.0.6, SVG Export Plug-In . SVG Version: 6.00 Build 0)  -->
<svg version="1.1" id="Layer_1" xmlns:serif="http://www.serif.com/"
	 xmlns="http://www.w3.org/2000/svg" xmlns:xlink="http://www.w3.org/1999/xlink" x="0px" y="0px" viewBox="0 0 100 100"
	 style="enable-background:new 0 0 100 100;" xml:space="preserve">
<style type="text/css">
	.st0{fill-rule:evenodd;clip-rule:evenodd;}
</style>
<path class="st0" d="M88.5,100h-77C5.2,100,0,94.8,0,88.5v-77C0,5.2,5.2,0,11.5,0h77C94.8,0,100,5.2,100,11.5v77
	C100,94.8,94.8,100,88.5,100z M62.8,11l0,4.3c-4.2-4.6-7.9-5.6-15.5-5.6C33.6,9.8,22,21.2,22,39.1c0,16.1,9.8,27.2,23.6,27.2
	c6.4,0,11.1-1.9,15.3-6.2v2.5c0,10.3-6.3,12.8-14.5,12.8c-6.5,0-12.7-2.2-16.2-4.2l-3.8,13.9c5,2.8,12.8,4.3,20,4.3
	c8.2,0,16.5-1.6,22.7-6.8c6.3-5.6,8.8-13.2,8.8-23.9c0,0,0.1-47.3,0.1-47.6H62.8L62.8,11z M60.6,41.9c0,1.5-0.1,3.3-0.6,4.6
	c-1.1,4.1-4.7,7.1-9.1,7.1c-7.3,0-11.4-6.5-11.4-14.8c0-10.1,5.1-15.8,11.4-15.8c4.8,0,8.1,3.1,9.4,7.6c0.2,0.9,0.3,2.1,0.3,3.2
	V41.9z"/>
</svg>
