<?xml version="1.0" encoding="utf-8"?>
<!-- Generator: Adobe Illustrator 23.0.6, SVG Export Plug-In . SVG Version: 6.00 Build 0)  -->
<svg version="1.1" id="Layer_1" xmlns:serif="http://www.serif.com/"
	 xmlns="http://www.w3.org/2000/svg" xmlns:xlink="http://www.w3.org/1999/xlink" x="0px" y="0px" viewBox="0 0 100 100"
	 style="enable-background:new 0 0 100 100;" xml:space="preserve">
<path d="M83.9,4.4c-0.8-0.6-1.5-1.5-1.7-2.1c-0.4-1,0.5-2.3,1.6-2.3c1.1,0,2.2,0.8,2.9,1.8c0.7-0.4,1.6-0.7,2.4-0.7
	c3.1,0.1,5.6,3.9,8.4,6.7c1.4,1.5,1.7,3.9,0.6,5.6c1.3,1.6,1.7,3.9-0.3,4.1c-0.8,0-1.7-0.4-2.4-1.1c-0.4,0.4-0.7,0.7-1.1,1.1
	c1,1.1,1.5,2.6,0.7,3.5c-0.9,1-2.3,0.3-3.3-0.8c-0.4,0.4-0.9,0.9-1.3,1.3c1,1.1,1.4,2.6,0.6,3.5c-1,1-2.5,0.2-3.5-1
	c-1.1,0.5-2.4,0.5-3.5,0.1L63.4,44.5c0.9,1.2,1.8,2.7,2.5,3.9c3.7,6.6,3.9,15.7-3.1,21.3c-3.7,3-9.8,2.9-12,8.1
	c-1.2,2.8-0.9,6.1-1.9,9.1c-2.2,6.7-8.4,11.8-15.5,12.8c-13.8,2-27.2-9-31.3-20.9C-1,69.8,1,58.2,10.3,52.7c2.8-1.6,6-2.2,9.1-2.6
	c3.3-0.5,6.4-2.6,8-6c1.5-3.1,2.2-6.4,5.4-9.1c2.7-2.3,6.2-3.7,9.8-3.7c4.8,0.1,9.2,2.4,13.1,5.4l20.6-20.6
	c-0.5-1.1-0.7-2.2-0.3-3.3c-1.8-1.5-2.8-4.8-0.3-4.8c1,0,2,0.8,2.7,1.8c0.4-0.5,0.9-0.9,1.3-1.4c-0.8-0.7-1.4-1.6-1.6-2.2
	c-0.4-1,0.5-2.3,1.6-2.3c1,0,2,0.7,2.8,1.7C83,5.2,83.4,4.8,83.9,4.4L83.9,4.4z M53.2,39.2c-0.1-0.1-0.3-0.2-0.4-0.3
	c-3.2-2.3-6.8-4.1-10.6-4.1c-4.2,0.1-8.3,2.7-10,6.4c-2.2,5-4.5,10.8-10.8,12.1c-6.6,1.4-14.2,3-16.7,11.7
	c-2.4,8.4,1.4,17.4,7.2,23.5c0,0,2,1.8,3.4,2.9c1.8,1.3,3.7,2.4,5.7,3.3c0.7,0.3,1.4,0.5,2.1,0.8c8.5,2.8,20.3,0.3,22.8-10.8
	c1.3-5.8,1.9-12.3,10-15.4c4.9-1.9,9.2-5.7,9.3-11.3c0-4-2-7.7-4.2-10.8L44.4,63.8c0.4,7.1-10,12.4-15.1,5.9
	c-4-5.1,0.1-14.4,7.4-13.8L53.2,39.2L53.2,39.2z M20.4,72c0.4,0,0.8,0.2,1.1,0.5c2.2,2.1,4.3,4.3,6.4,6.5c1.1,1.2-0.5,4.1-2.4,2.5
	c-2.2-2.1-4.3-4.3-6.4-6.5C18.2,73.9,18.7,72,20.4,72L20.4,72z M36.7,59.4c-0.3-0.1-0.6-0.2-1-0.1c-4.3,0.2-6.7,7.3-2.1,9.7
	c3.1,1.6,7.5-1.1,7.3-4.9c-0.2-0.3-0.3-0.6-0.4-1c-0.4-1.8-1.9-3.3-3.7-3.6C36.8,59.5,36.8,59.5,36.7,59.4L36.7,59.4z M78.3,19
	L56.4,40.9L40.3,57.2c0.7,0.4,0.7,0.5,1,0.7c0.7,0.6,1.3,1.4,1.8,2.2l38.2-38.1C80.2,21,79.2,20,78.3,19z M90.9,16.3
	c1.4-1.5,2.9-2.9,4.2-4.5c0.4-0.4,0.4-1.1,0-1.5c-1.7-1.9-3.5-3.7-5.4-5.5c-0.2-0.2-0.5-0.3-0.8-0.3c-0.3,0-0.5,0.1-0.7,0.3
	c-3,2.9-6,5.8-8.8,8.9c-0.3,0.3-0.4,0.9-0.2,1.3c0.1,0.1,0.2,0.1,0.4,0.3l5.3,5.3c0.1,0.1,0.2,0.2,0.2,0.3c0.4,0.1,0.8,0.1,1.1-0.2
	c0,0,0.1-0.1,0.1-0.1c0-0.1,0.1-0.1,0.2-0.2c1.2-1.2,2.5-2.4,3.7-3.6C90.4,16.6,90.6,16.4,90.9,16.3L90.9,16.3z"/>
</svg>
