<?xml version="1.0" encoding="utf-8"?>
<!-- Generator: Adobe Illustrator 24.0.0, SVG Export Plug-In . SVG Version: 6.00 Build 0)  -->
<svg version="1.1" id="Layer_1" xmlns="http://www.w3.org/2000/svg" xmlns:xlink="http://www.w3.org/1999/xlink" x="0px" y="0px"
	 viewBox="0 0 100 100" style="enable-background:new 0 0 100 100;" xml:space="preserve">
<title>hammer</title>
<path d="M99.9,54.1l-9.4,9.4c-2.3,2.3-4.4,2.3-6.7,0c-2.1-2.1-4.2-4.3-6.3-6.3c-1-0.9-1.4-2.3-0.9-3.6c0.2-0.8,0.3-1.7,0.3-2.6
	c0-1.4-0.7-2.7-1.7-3.7c-1.4-1.4-2.8-2.9-4.4-4.5l-7.2,7.5L49.4,36.3c1.2-1.2,2.4-2.5,3.7-3.8c1.8-1.7,2.3-4.3,1.4-6.6
	c-1.1-3-2.8-5.8-5-8.1C42.3,9.2,32.8,4.2,22.4,0.8l-1-0.3c2.4,0,5-0.1,7.6,0C34.9,0.9,41,1.4,47,2.1c4.9,0.6,9.8,1.4,14.4,3.7
	c1.1,0.5,2.1,1.2,3,2.1c5.8,5.7,11.4,11.5,17.3,17.1c2.3,2.2,3.1,4.7,0.1,7.5c1.5,1.5,3,3.1,4.6,4.5c0.8,0.7,1.7,1.1,2.7,1.3
	c1.1,0.2,2.2,0.1,3.3-0.2c1.2-0.5,2.6-0.1,3.4,0.9c1.2,1.3,2.4,2.5,3.7,3.7c0.2,0.2,0.5,0.4,0.8,0.6v11H99.9z M43.9,41.8l14.2,14.2
	c-0.3,0.2-0.5,0.4-0.7,0.6L16.1,97.8c-2.4,2.4-4.5,2.4-6.9,0c-2.4-2.4-5-5-7.5-7.5c-2.1-2.1-2.1-4.3,0-6.4l41.8-41.8
	C43.6,42.1,43.8,41.9,43.9,41.8z"/>
</svg>
