<?xml version="1.0" encoding="utf-8"?>
<!-- Generator: Adobe Illustrator 19.2.1, SVG Export Plug-In . SVG Version: 6.00 Build 0)  -->
<svg version="1.1" id="Layer_1" xmlns="http://www.w3.org/2000/svg" xmlns:xlink="http://www.w3.org/1999/xlink" x="0px" y="0px"
	 viewBox="0 0 100 84.5" style="enable-background:new 0 0 100 84.5;" xml:space="preserve">
<title>headphones</title>
<path d="M30.9,50.1c0.5-4,0.5-4,4.5-4c2.8,0,3,0.1,3,2.9c0,10.9,0,21.9,0,32.8c0,1.8-0.5,2.6-2.4,2.4c-0.7,0-1.4,0-2.1,0
	c-2.7,0-2.7,0-3.2-2.6c-0.2-0.6-0.7-1-1.4-1.2c-5.7-0.7-10.6-4.4-12.9-9.7c-0.4-0.7-1.1-1.2-1.9-1.4c-2.9-0.7-5.8-1-8.6-1.7
	c-0.6-0.2-1.2-0.6-1.5-1.2c-2.9-6.9-5-14-4.4-21.5c1-12,5.2-22.7,14.5-30.9C22.2,6.9,31.9,2.2,42.2,0.6C52.6-1,62.5,0.8,72,5.1
	C85.2,11,94.3,20.7,98.3,34.7c3.1,10.8,1.9,21.4-2.9,31.6c-0.4,0.6-1,1.1-1.7,1.2c-2.4,0.5-4.9,0.9-7.3,1.2c-1.4,0-2.6,1-2.9,2.3
	c-1.7,5.4-7.3,9.1-14.1,9.7c-0.1,0.1-0.2,0.2-0.2,0.3c0,4.1-0.4,3.4-3.9,3.4c-3.7,0-3.5,0.5-3.5-3.5c0-10.7,0-21.5,0-32.2
	c0-1.8,0.5-2.6,2.3-2.3c0.8,0.1,1.5,0.1,2.3,0c1.8-0.2,3.2,0,2.9,2.4c0.2,0.5,0.6,0.9,1.1,1C75,51,79.5,52.5,82.2,57
	c0.4,0.5,1,0.8,1.6,0.8c1.1-0.4,2.7,0.3,3.2-1.5c1.3-4.9,1.7-10,1.1-15.1c-1.6-13-13.5-25.2-28.7-28.5c-8.1-1.8-16.1-1.9-23.8,1.5
	c-9,3.9-16.8,9.4-21.1,18.7C11,40.6,11,48.4,13.4,56.2c0.3,0.6,0.8,1.1,1.5,1.3c1.1,0.1,2.7,0.3,3.2-0.3
	C23,51.3,22.9,51.2,30.9,50.1z"/>
</svg>
