<?xml version="1.0" encoding="utf-8"?>
<!-- Generator: Adobe Illustrator 24.0.0, SVG Export Plug-In . SVG Version: 6.00 Build 0)  -->
<svg version="1.1" id="Layer_1" xmlns="http://www.w3.org/2000/svg" xmlns:xlink="http://www.w3.org/1999/xlink" x="0px" y="0px"
	 viewBox="0 0 100 100" style="enable-background:new 0 0 100 100;" xml:space="preserve">
<title>home</title>
<path d="M60,70H40.1c0,0.5-0.1,0.9-0.1,1.4c0,5.9-0.1,11.9,0,17.8c0.2,3-2,5.5-4.9,5.8c-0.3,0-0.6,0-0.9,0c-4.6-0.2-9.1,0-13.7,0
	C17,95,15,93,15,89.4c0-8.2,0-16.3,0-24.5c0-3.2,0-6.5,0-9.8C14.5,55,14.1,55,13.7,55c-2.8,0-5.5,0-8.3,0c-2.3,0.2-4.3-1.2-5.1-3.4
	c-0.7-2.1,0-4.4,1.8-5.8L49.4,5.5L50,5l7.2,6.2l40.1,34.2c1.2,1,2.3,2,2.7,3.6c0.6,2.7-1.2,5.3-3.9,5.9C95.6,55,95.3,55,94.9,55
	c-2.8,0.1-5.6,0-8.4,0H85c0,0.6,0,1.1,0,1.6c0,10.9,0,21.9,0,32.8c0,2.9-1.3,4.7-3.7,5.4c-0.5,0.1-1.1,0.2-1.6,0.2
	c-4.8,0-9.5,0-14.3,0C62,95,60,93,60,89.6c0-6,0-12,0-18C60,71.1,60,70.6,60,70z"/>
</svg>
