<svg id="Layer_1" data-name="Layer 1" xmlns="http://www.w3.org/2000/svg" viewBox="0 0 100 99.96"><title>info</title><path d="M10,59.83A50,50,0,1,1,59.9,110C32,110,10.11,87.54,10,59.83ZM51.61,78.75c-2.06,0-3.92,0-5.79,0s-2.53.79-2.51,2.52c0,3.2,0,6.39,0,9.59a2.22,2.22,0,0,0,2.53,2.54q14.18,0,28.36,0c1.72,0,2.55-.76,2.53-2.5,0-3.2,0-6.39,0-9.59,0-1.87-.86-2.62-2.67-2.57s-3.7,0-5.68,0V76.22c0-10,0-20,0-30,0-1.82-.5-2.92-2.55-2.91q-10,.05-20,0c-1.73,0-2.54.77-2.52,2.51,0,3.2,0,6.39,0,9.59,0,1.86.94,2.6,2.72,2.56s3.69,0,5.57,0V78.75Zm8.47-58.39c-2,0-4,0-6,0a2.09,2.09,0,0,0-2.39,2.41c0,3.26,0,6.52,0,9.77A2.14,2.14,0,0,0,54,35c4,0,8,0,12.06,0a2.08,2.08,0,0,0,2.28-2.34c0-3.33,0-6.65,0-10a2,2,0,0,0-2.28-2.3h-6Z" transform="translate(-10 -10.02)"/></svg>