<?xml version="1.0" encoding="utf-8"?>
<!-- Generator: Adobe Illustrator 24.0.0, SVG Export Plug-In . SVG Version: 6.00 Build 0)  -->
<svg version="1.1" id="Layer_1" xmlns="http://www.w3.org/2000/svg" xmlns:xlink="http://www.w3.org/1999/xlink" x="0px" y="0px"
	 viewBox="0 0 100 100" style="enable-background:new 0 0 100 100;" xml:space="preserve">
<title>info</title>
<path d="M0,49.8C0.1,22.2,22.6-0.1,50.2,0c27.6,0.1,49.9,22.6,49.8,50.2c-0.1,27.6-22.5,49.9-50.1,49.8C22,100,0.1,77.5,0,49.8z
	 M41.6,68.8c-2.1,0-3.9,0-5.8,0s-2.5,0.8-2.5,2.5c0,3.2,0,6.4,0,9.6c-0.2,1.2,0.6,2.3,1.8,2.5c0.2,0,0.5,0,0.7,0
	c9.5,0,18.9,0,28.4,0c1.7,0,2.6-0.8,2.5-2.5c0-3.2,0-6.4,0-9.6c0-1.9-0.9-2.6-2.7-2.6s-3.7,0-5.7,0v-2.5c0-10,0-20,0-30
	c0-1.8-0.5-2.9-2.6-2.9c-6.7,0-13.3,0-20,0c-1.7,0-2.5,0.8-2.5,2.5c0,3.2,0,6.4,0,9.6c0,1.9,0.9,2.6,2.7,2.6s3.7,0,5.6,0L41.6,68.8
	L41.6,68.8z M50.1,10.4c-2,0-4,0-6,0c-1.1-0.2-2.2,0.6-2.4,1.7c0,0.2,0,0.5,0,0.7c0,3.3,0,6.5,0,9.8c-0.2,1.2,0.6,2.3,1.8,2.4
	c0.2,0,0.3,0,0.5,0c4,0,8,0,12.1,0c1.1,0.1,2.2-0.7,2.3-1.9c0-0.2,0-0.3,0-0.5c0-3.3,0-6.6,0-10c0.2-1.1-0.6-2.1-1.7-2.3
	c-0.2,0-0.4,0-0.6,0H50.1L50.1,10.4z"/>
</svg>
