<svg id="Layer_1" data-name="Layer 1" xmlns="http://www.w3.org/2000/svg" viewBox="0 0 100 63.41"><title>laptop</title><path d="M10,86.89H22.46a19.75,19.75,0,0,1-1.8-1.21,5.39,5.39,0,0,1-1.8-4.36q0-20.49,0-41c0-2.2,0-4.39,0-6.59A5.28,5.28,0,0,1,23,28.4a4.4,4.4,0,0,1,1-.1H95.91a5.21,5.21,0,0,1,5.21,5.27q0,23.7,0,47.41c0,2.71-1,4.7-3.5,5.9H110a19.51,19.51,0,0,1-.07,3.57,2.83,2.83,0,0,1-1.46,1.17,2.48,2.48,0,0,1-1.11.08H12.82c-0.24,0-.48,0-0.72,0C10.32,91.55,10,91.21,10,89.43,10,88.63,10,87.83,10,86.89ZM23.89,33.37V80.8H96.43V33.37H23.89Z" transform="translate(-10 -28.29)"/></svg>