<?xml version="1.0" encoding="utf-8"?>
<!-- Generator: Adobe Illustrator 24.0.0, SVG Export Plug-In . SVG Version: 6.00 Build 0)  -->
<svg version="1.1" id="Layer_1" xmlns="http://www.w3.org/2000/svg" xmlns:xlink="http://www.w3.org/1999/xlink" x="0px" y="0px"
	 viewBox="0 0 100 100" style="enable-background:new 0 0 100 100;" xml:space="preserve">
<title>laptop</title>
<path d="M0,76.9h12.5c-0.6-0.4-1.2-0.8-1.8-1.2c-1.2-1.1-1.9-2.7-1.8-4.4c0-13.7,0-27.3,0-41c0-2.2,0-4.4,0-6.6
	c-0.1-2.5,1.7-4.8,4.1-5.3c0.3-0.1,0.7-0.1,1-0.1h71.9c2.9,0,5.2,2.3,5.2,5.2c0,0,0,0,0,0.1c0,15.8,0,31.6,0,47.4
	c0,2.7-1,4.7-3.5,5.9H100c0.1,1.2,0.1,2.4-0.1,3.6c-0.3,0.5-0.9,1-1.5,1.2c-0.4,0.1-0.7,0.1-1.1,0.1H2.8c-0.2,0-0.5,0-0.7,0
	C0.3,81.5,0,81.2,0,79.4C0,78.6,0,77.8,0,76.9z M13.9,23.4v47.4h72.5V23.4H13.9z"/>
</svg>
