<?xml version="1.0" encoding="utf-8"?>
<!-- Generator: Adobe Illustrator 24.0.0, SVG Export Plug-In . SVG Version: 6.00 Build 0)  -->
<svg version="1.1" id="Layer_1" xmlns="http://www.w3.org/2000/svg" xmlns:xlink="http://www.w3.org/1999/xlink" x="0px" y="0px"
	 viewBox="0 0 100 100" style="enable-background:new 0 0 100 100;" xml:space="preserve">
<g>
	<path d="M76.8,33c-0.2,0-0.4,0-0.6,0c0.4,2.1,0.6,4.3,0.6,6.6c0,7.8-1.8,13.9-6.3,21c-1.5,2.4-5.4,8.1-9.8,14.5
		c5.6,8.3,15.9,23.1,15.9,23.1s16.1-23,19.1-27.8c3-4.8,4.2-8.8,4.2-14.1C100,43.5,89.6,33.1,76.8,33L76.8,33z"/>
	<path d="M34.7,1.2C15.6,1.2,0,16.6,0,35.8c0,7.8,1.8,13.9,6.2,21c4.4,7.1,28.3,41.4,28.3,41.4s24-34.3,28.5-41.4
		c4.5-7.1,6.3-13.1,6.3-21C69.3,16.7,53.9,1.2,34.7,1.2L34.7,1.2z M34.7,46.8c-7,0-12.6-5.6-12.6-12.6c0-7,5.6-12.6,12.6-12.6
		s12.6,5.6,12.6,12.6C47.2,41.1,41.6,46.8,34.7,46.8z"/>
</g>
</svg>
