<?xml version="1.0" encoding="utf-8"?>
<!-- Generator: Adobe Illustrator 24.0.0, SVG Export Plug-In . SVG Version: 6.00 Build 0)  -->
<svg version="1.1" id="Layer_1" xmlns="http://www.w3.org/2000/svg" xmlns:xlink="http://www.w3.org/1999/xlink" x="0px" y="0px"
	 viewBox="0 0 100 100" style="enable-background:new 0 0 100 100;" xml:space="preserve">
<g>
	<path d="M76.9,32.8c-0.2,0-0.4,0-0.6,0c0.4,2.2,0.6,4.4,0.6,6.8c0,8-1.8,14.3-6.3,21.6c-1.5,2.5-5.4,8.4-9.8,14.9
		c5.6,8.6,15.9,23.8,15.9,23.8s16.1-23.7,19.1-28.7s4.2-9.1,4.2-14.5C100.1,43.6,89.7,32.9,76.9,32.8L76.9,32.8z"/>
	<path d="M34.7,0C15.6,0,0,15.9,0,35.7c0,8,1.8,14.3,6.2,21.6S34.5,100,34.5,100s24-35.4,28.5-42.7c4.5-7.3,6.3-13.5,6.3-21.6
		C69.4,16,54,0,34.7,0L34.7,0z M34.7,47c-7,0-12.6-5.8-12.6-13s5.6-13,12.6-13s12.6,5.8,12.6,13C47.2,41.1,41.6,47,34.7,47z"/>
</g>
</svg>
