<?xml version="1.0" encoding="utf-8"?>
<!-- Generator: Adobe Illustrator 23.0.6, SVG Export Plug-In . SVG Version: 6.00 Build 0)  -->
<svg version="1.1" id="Layer_1" xmlns:serif="http://www.serif.com/"
	 xmlns="http://www.w3.org/2000/svg" xmlns:xlink="http://www.w3.org/1999/xlink" x="0px" y="0px" viewBox="0 0 100 100"
	 style="enable-background:new 0 0 100 100;" xml:space="preserve">
<style type="text/css">
	.st0{fill-rule:evenodd;clip-rule:evenodd;fill-opacity:0.9;}
</style>
<path id="Shape" class="st0" d="M52.5,2.5c-17.5,0-33,9.5-41,24L0,15v32.5h32.5l-14-14c6.5-12.5,19-21,34-21C73,12.5,90,29.5,90,50
	S73,87.5,52.5,87.5c-16.5,0-30-10.5-35.5-25H6.5c5.5,20,24,35,46,35C79,97.5,100,76,100,50C100,24,78.5,2.5,52.5,2.5L52.5,2.5z
	 M45,27.5V53l23.5,14l4-6.5l-20-12v-21L45,27.5L45,27.5z"/>
</svg>
