<?xml version="1.0" encoding="utf-8"?>
<!-- Generator: Adobe Illustrator 24.0.0, SVG Export Plug-In . SVG Version: 6.00 Build 0)  -->
<svg version="1.1" id="Layer_1" xmlns="http://www.w3.org/2000/svg" xmlns:xlink="http://www.w3.org/1999/xlink" x="0px" y="0px"
	 viewBox="0 0 100 100" style="enable-background:new 0 0 100 100;" xml:space="preserve">
<title>library</title>
<path d="M0,16.8c0.3-0.1,0.7-0.1,1-0.2c6.1,0,12.2,0,18.3,0c0.5-0.1,0.9,0.2,1,0.7c0,0.1,0,0.2,0,0.3c0,21.6,0,43.2,0,64.9
	c0.1,0.5-0.2,0.9-0.7,1c-0.1,0-0.2,0-0.3,0c-6.1,0-12.2,0-18.3,0c-0.3,0-0.7-0.1-1-0.2C0,61.1,0,38.9,0,16.8z M20.1,3.8
	c0,1.4,0.1,2.8,0.1,4.2c-0.2,0.3-0.5,0.4-0.8,0.4c-2.3,0-4.5,0-6.8,0H0V3.8H20.1z M0,91.7c0.3-0.1,0.7-0.1,1-0.2
	c6.1,0,12.2,0,18.3,0c0.8,0,1.1,0.2,1.1,1s0,1.9,0,2.8c0.1,0.3-0.1,0.7-0.5,0.8c-0.1,0-0.2,0-0.3,0H0V91.7z M0,11.3
	c0.3-0.1,0.6-0.1,0.9-0.2c6.2,0,12.3,0,18.5,0c0.4-0.1,0.8,0.1,1,0.5c0.1,0.1,0.1,0.3,0,0.5c0,2.2,0.2,2-1.9,2H1.3
	c-0.4,0-0.8-0.1-1.3-0.2V11.3z M0,86.3c0.3-0.1,0.6-0.2,0.9-0.2c6.2,0,12.3,0,18.5,0c0.4-0.1,0.8,0.1,1,0.5c0.1,0.1,0.1,0.3,0,0.5
	c0,2.2,0.2,2-1.9,2H1.3c-0.4,0-0.8-0.1-1.3-0.2V86.3z M84,23.1c0.2,0.2,0.3,0.5,0.4,0.8c0.7,3,1.4,6,2.1,8.9l8,34.5
	c1.1,4.9,2.2,9.8,3.4,14.7c0.2,0.6,0.1,0.9-0.6,1.1c-6,1.3-12,2.7-18,4.2c-0.7,0.2-0.8-0.2-0.9-0.7C77.2,81.3,76,76,74.7,70.7
	l-8.2-35.3c-0.6-2.4-1.1-4.8-1.6-7.2c0-0.3,0.2-0.6,0.4-0.8c6-1.4,12.1-2.8,18.1-4.2L84,23.1z M26.7,19.4H40c0,0.4,0.1,0.7,0.1,1.1
	c0,21.5,0,42.9,0,64.4c0.1,0.5-0.3,1.1-0.8,1.1c-0.1,0-0.2,0-0.3,0c-3.8,0-7.5,0-11.2,0c-0.5,0.1-0.9-0.2-1-0.6c0-0.1,0-0.2,0-0.4
	c0-21.6,0-43.2,0-64.8L26.7,19.4L26.7,19.4z M46.8,61.8c0-6.8,0-13.6,0-20.4c0-0.8,0.2-1.1,1-1.1c4.7,0,9.4,0,14.2,0
	c0.5-0.1,1,0.2,1.1,0.6c0,0.2,0,0.3,0,0.5c0,13.6,0,27.2,0,40.8c0.1,0.5-0.2,1-0.6,1.1c-0.1,0-0.3,0-0.4,0c-4.7,0-9.4,0-14.2,0
	c-0.5,0.1-0.9-0.2-1-0.6c0-0.1,0-0.2,0-0.4C46.8,75.5,46.8,68.6,46.8,61.8z M63.5,21.3c-0.2-0.2-0.3-0.4-0.4-0.7
	c-0.3-1.1-0.5-2.3-0.8-3.4c-0.2-0.6,0-0.8,0.6-0.9c3.7-0.8,7.3-1.7,11-2.5l6.7-1.5c1.1-0.3,1.1-0.3,1.4,0.8s0.5,1.9,0.7,2.9
	c0.2,0.3,0,0.7-0.3,0.9C82.3,17,82.2,17,82,17c-6,1.4-12.1,2.8-18.2,4.2L63.5,21.3z M98.7,87.1c0.2,0.1,0.3,0.3,0.4,0.5
	c0.3,1.2,0.6,2.5,0.9,3.7c0.2,0.7-0.4,0.7-0.8,0.8c-2.9,0.7-5.7,1.3-8.6,2c-3.1,0.7-6.1,1.4-9.2,2.1c-0.7,0.2-0.9,0-1-0.7
	c-0.2-1.1-0.5-2.2-0.8-3.3c-0.1-0.3,0-0.7,0.3-0.8c0.1,0,0.2-0.1,0.3-0.1c4.8-1.1,9.5-2.2,14.3-3.3L98.7,87.1z M46.8,31.2v-5.3
	c0.3,0,0.6,0,0.9,0c4.8,0,9.5,0,14.2,0c0.9,0,1.1,0.3,1.1,1.1c-0.1,1.2,0,2.3,0,3.5c0,0.4,0,0.8-0.6,0.8L46.8,31.2L46.8,31.2z
	 M40.1,13.8H26.7v-3.2c0-2.2,0-2.2,2.1-2.2c3.4,0,6.8,0,10.2,0c0.5-0.1,0.9,0.1,1.1,0.6c0,0.2,0,0.3,0,0.5
	C40,10.9,40.1,12.3,40.1,13.8z M46.8,96.1v-4.2c0.3,0,0.6-0.1,0.9-0.1c4.8,0,9.5,0,14.3,0c0.5-0.1,0.9,0.1,1.1,0.6
	c0.1,0.2,0,0.4,0,0.5c-0.1,0.8,0,1.7,0,2.5c-0.1,0.3-0.3,0.6-0.6,0.7C57.3,96.1,52.1,96.1,46.8,96.1z M40.1,96.1H26.7
	c0-1.3,0-2.5,0-3.8c0.1-0.3,0.4-0.5,0.6-0.5c4,0,8,0,12,0c0.3,0,0.5,0.2,0.7,0.5C40.1,93.5,40.1,94.8,40.1,96.1z M46.8,36.9v-2.7
	c0.3,0,0.6,0,0.9,0c4.8,0,9.5,0,14.3,0c0.5-0.1,0.9,0.1,1.1,0.6c0,0.2,0,0.3,0,0.5c-0.1,2,0.1,1.7-1.7,1.7c-4.5,0-9,0-13.4,0
	L46.8,36.9L46.8,36.9z M46.8,89v-2.8c0.3,0,0.6-0.1,0.9-0.1c4.8,0,9.5,0,14.3,0c0.8,0,1.1,0.2,1.1,1.1c-0.1,2,0.1,1.7-1.7,1.7
	c-4.5,0-9,0-13.4,0h-1.2V89z"/>
</svg>
