<?xml version="1.0" encoding="utf-8"?>
<!-- Generator: Adobe Illustrator 19.2.1, SVG Export Plug-In . SVG Version: 6.00 Build 0)  -->
<svg version="1.1" id="Layer_1" xmlns="http://www.w3.org/2000/svg" xmlns:xlink="http://www.w3.org/1999/xlink" x="0px" y="0px"
	 viewBox="0 0 100 92.4" style="enable-background:new 0 0 100 92.4;" xml:space="preserve">
<title>library</title>
<path d="M0,13c0.3-0.1,0.7-0.1,1-0.2c6.1,0,12.2,0,18.3,0c0.5-0.1,0.9,0.2,1,0.7c0,0.1,0,0.2,0,0.3c0,21.6,0,43.2,0,64.9
	c0.1,0.5-0.2,0.9-0.7,1c-0.1,0-0.2,0-0.3,0c-6.1,0-12.2,0-18.3,0c-0.3,0-0.7-0.1-1-0.2C0,57.3,0,35.1,0,13z M20.1,0
	c0,1.4,0.1,2.8,0.1,4.2c-0.2,0.3-0.5,0.4-0.8,0.4c-2.3,0-4.5,0-6.8,0L0,4.6V0H20.1z M0,87.9c0.3-0.1,0.7-0.1,1-0.2
	c6.1,0,12.2,0,18.3,0c0.8,0,1.1,0.2,1.1,1s0,1.9,0,2.8c0.1,0.3-0.1,0.7-0.5,0.8c-0.1,0-0.2,0-0.3,0L0,92.3V87.9z M0,7.5
	c0.3-0.1,0.6-0.1,0.9-0.2c6.2,0,12.3,0,18.5,0c0.4-0.1,0.8,0.1,1,0.5c0.1,0.1,0.1,0.3,0,0.5c0,2.2,0.2,2-1.9,2H1.3
	c-0.4,0-0.8-0.1-1.3-0.2V7.5z M0,82.5c0.3-0.1,0.6-0.2,0.9-0.2c6.2,0,12.3,0,18.5,0c0.4-0.1,0.8,0.1,1,0.5c0.1,0.1,0.1,0.3,0,0.5
	c0,2.2,0.2,2-1.9,2H1.3c-0.4,0-0.8-0.1-1.3-0.2V82.5z M84,19.3c0.2,0.2,0.3,0.5,0.4,0.8c0.7,3,1.4,6,2.1,8.9l8,34.5
	c1.1,4.9,2.2,9.8,3.4,14.7c0.2,0.6,0.1,0.9-0.6,1.1c-6,1.3-12,2.7-18,4.2c-0.7,0.2-0.8-0.2-0.9-0.7c-1.2-5.3-2.4-10.6-3.7-15.9
	l-8.2-35.3c-0.6-2.4-1.1-4.8-1.6-7.2c0-0.3,0.2-0.6,0.4-0.8c6-1.4,12.1-2.8,18.1-4.2L84,19.3z M26.7,15.6H40c0,0.4,0.1,0.7,0.1,1.1
	c0,21.5,0,42.9,0,64.4c0.1,0.5-0.3,1.1-0.8,1.1c-0.1,0-0.2,0-0.3,0c-3.8,0-7.5,0-11.2,0c-0.5,0.1-0.9-0.2-1-0.6c0-0.1,0-0.2,0-0.4
	c0-21.6,0-43.2,0-64.8L26.7,15.6L26.7,15.6z M46.8,58c0-6.8,0-13.6,0-20.4c0-0.8,0.2-1.1,1-1.1c4.7,0,9.4,0,14.2,0
	c0.5-0.1,1,0.2,1.1,0.6c0,0.2,0,0.3,0,0.5c0,13.6,0,27.2,0,40.8c0.1,0.5-0.2,1-0.6,1.1c-0.1,0-0.3,0-0.4,0c-4.7,0-9.4,0-14.2,0
	c-0.5,0.1-0.9-0.2-1-0.6c0-0.1,0-0.2,0-0.4C46.8,71.7,46.8,64.8,46.8,58z M63.5,17.5c-0.2-0.2-0.3-0.4-0.4-0.7
	c-0.3-1.1-0.5-2.3-0.8-3.4c-0.2-0.6,0-0.8,0.6-0.9c3.7-0.8,7.3-1.7,11-2.5l6.7-1.5c1.1-0.3,1.1-0.3,1.4,0.8s0.5,1.9,0.7,2.9
	c0.2,0.3,0,0.7-0.3,0.9c-0.1,0.1-0.2,0.1-0.4,0.1c-6,1.4-12.1,2.8-18.2,4.2L63.5,17.5z M98.7,83.3c0.2,0.1,0.3,0.3,0.4,0.5
	c0.3,1.2,0.6,2.5,0.9,3.7c0.2,0.7-0.4,0.7-0.8,0.8c-2.9,0.7-5.7,1.3-8.6,2c-3.1,0.7-6.1,1.4-9.2,2.1c-0.7,0.2-0.9,0-1-0.7
	c-0.2-1.1-0.5-2.2-0.8-3.3c-0.1-0.3,0-0.7,0.3-0.8c0.1,0,0.2-0.1,0.3-0.1c4.8-1.1,9.5-2.2,14.3-3.3L98.7,83.3z M46.8,27.4v-5.3
	c0.3,0,0.6,0,0.9,0c4.8,0,9.5,0,14.2,0c0.9,0,1.1,0.3,1.1,1.1c-0.1,1.2,0,2.3,0,3.5c0,0.4,0,0.8-0.6,0.8L46.8,27.4L46.8,27.4z
	 M40.1,10H26.7V6.8c0-2.2,0-2.2,2.1-2.2c3.4,0,6.8,0,10.2,0c0.5-0.1,0.9,0.1,1.1,0.6c0,0.2,0,0.3,0,0.5C40,7.1,40.1,8.5,40.1,10z
	 M46.8,92.3v-4.2c0.3,0,0.6-0.1,0.9-0.1c4.8,0,9.5,0,14.3,0c0.5-0.1,0.9,0.1,1.1,0.6c0.1,0.2,0,0.4,0,0.5c-0.1,0.8,0,1.7,0,2.5
	c-0.1,0.3-0.3,0.6-0.6,0.7C57.3,92.3,52.1,92.3,46.8,92.3z M40.1,92.3H26.7c0-1.3,0-2.5,0-3.8c0.1-0.3,0.4-0.5,0.6-0.5c4,0,8,0,12,0
	c0.3,0,0.5,0.2,0.7,0.5C40.1,89.7,40.1,91,40.1,92.3z M46.8,33.1v-2.7c0.3,0,0.6,0,0.9,0c4.8,0,9.5,0,14.3,0
	c0.5-0.1,0.9,0.1,1.1,0.6c0,0.2,0,0.3,0,0.5c-0.1,2,0.1,1.7-1.7,1.7c-4.5,0-9,0-13.4,0L46.8,33.1L46.8,33.1z M46.8,85.2v-2.8
	c0.3,0,0.6-0.1,0.9-0.1c4.8,0,9.5,0,14.3,0c0.8,0,1.1,0.2,1.1,1.1c-0.1,2,0.1,1.7-1.7,1.7c-4.5,0-9,0-13.4,0H46.8z"/>
</svg>
