<?xml version="1.0" encoding="utf-8"?>
<!-- Generator: Adobe Illustrator 19.2.1, SVG Export Plug-In . SVG Version: 6.00 Build 0)  -->
<svg version="1.1" id="Layer_1" xmlns="http://www.w3.org/2000/svg" xmlns:xlink="http://www.w3.org/1999/xlink" x="0px" y="0px"
	 viewBox="0 0 100 100" style="enable-background:new 0 0 100 100;" xml:space="preserve">
<path d="M50,0C22.4,0,0,22.4,0,50s22.4,50,50,50s50-22.4,50-50S77.6,0,50,0z M70.4,52.8L43.7,73.6L43.3,74c-1.4,0.9-2.5,0.6-3-1.1
	c-0.2-0.7-0.3-1.5-0.3-2.2c0-13.8,0-27.6,0-41.5c0-0.7,0.1-1.5,0.3-2.2c0.5-1.6,1.7-2,3-1c2.3,1.8,4.6,3.6,6.9,5.4l20,15.6
	c1.1,0.6,1.7,1.8,1.8,3C71.9,51.2,71.4,52.2,70.4,52.8z"/>
</svg>
