<?xml version="1.0" encoding="utf-8"?>
<!-- Generator: Adobe Illustrator 23.0.6, SVG Export Plug-In . SVG Version: 6.00 Build 0)  -->
<svg version="1.1" id="Layer_1" xmlns:serif="http://www.serif.com/"
	 xmlns="http://www.w3.org/2000/svg" xmlns:xlink="http://www.w3.org/1999/xlink" x="0px" y="0px" viewBox="0 0 100 100"
	 style="enable-background:new 0 0 100 100;" xml:space="preserve">
<style type="text/css">
	.st0{fill-rule:evenodd;clip-rule:evenodd;}
</style>
<path class="st0" d="M41.3,28.2V17l17.4,18.2L41.3,53.4V42.7H14.1v25.7h71.7V42.7H68.2V28.2c6.2,0,12.5,0.1,18.7,0.2
	c1.6,0.1,3.1,0.3,4.5,0.9c3.5,1.4,6.3,4.4,7.6,8c0.5,1.4,0.7,2.8,0.8,4.3c0.1,9.3,0.1,18.6,0,27.9c-0.1,1.5-0.3,2.9-0.8,4.3
	c-1.3,3.6-4.1,6.6-7.6,8c-1.5,0.6-3,0.9-4.5,0.9c-24.6,0.3-49.2,0.3-73.8,0c-1.6-0.1-3.1-0.4-4.5-0.9c-3.5-1.4-6.3-4.4-7.6-8
	c-0.5-1.4-0.8-2.8-0.8-4.3C0,60.2,0,50.9,0.1,41.6c0.1-1.5,0.3-2.9,0.8-4.3c1.3-3.6,4.1-6.6,7.6-8c1.5-0.6,3-0.9,4.5-0.9
	C22.5,28.3,31.9,28.2,41.3,28.2L41.3,28.2z"/>
</svg>
