<?xml version="1.0" encoding="utf-8"?>
<!-- Generator: Adobe Illustrator 24.0.0, SVG Export Plug-In . SVG Version: 6.00 Build 0)  -->
<svg version="1.1" id="Layer_1" xmlns="http://www.w3.org/2000/svg" xmlns:xlink="http://www.w3.org/1999/xlink" x="0px" y="0px"
	 viewBox="0 0 100 100" style="enable-background:new 0 0 100 100;" xml:space="preserve">
<title>loops</title>
<path d="M0,73.9c0-11.8,0-23.7,0-35.5c0.5-1.6,1.2-3.2,2-4.7c2.3-3.4,5.6-4.8,9.7-4.8h27.2V16.7h0.2c0.2,0.2,0.4,0.4,0.6,0.6L56,32
	l5.2,4.7l-22.3,20V44.5H15.7v23.2h68.7V44.4H67.8V29c0.2,0,0.3-0.1,0.5-0.1c6.9,0,13.9-0.1,20.8,0C95.2,29,100,33.9,100,40
	c0,0.1,0,0.2,0,0.2c0,10.7,0,21.3,0,32c0,6.1-4.9,11-11,11c0,0,0,0-0.1,0H11c-4.9,0-9.2-3.2-10.6-7.9L0,73.9z"/>
</svg>
