<?xml version="1.0" encoding="utf-8"?>
<!-- Generator: Adobe Illustrator 19.2.1, SVG Export Plug-In . SVG Version: 6.00 Build 0)  -->
<svg version="1.1" id="Layer_1" xmlns="http://www.w3.org/2000/svg" xmlns:xlink="http://www.w3.org/1999/xlink" x="0px" y="0px"
	 viewBox="0 0 100 66.6" style="enable-background:new 0 0 100 66.6;" xml:space="preserve">
<title>loops</title>
<path d="M0,57.2c0-11.8,0-23.7,0-35.5c0.5-1.6,1.2-3.2,2-4.7c2.3-3.4,5.6-4.8,9.7-4.8h27.2V0h0.2c0.2,0.2,0.4,0.4,0.6,0.6L56,15.3
	l5.2,4.7L38.9,40V27.8H15.7V51h68.7V27.7H67.8V12.3c0.2,0,0.3-0.1,0.5-0.1c6.9,0,13.9-0.1,20.8,0c6.1,0.1,10.9,5,10.9,11.1
	c0,0.1,0,0.2,0,0.2c0,10.7,0,21.3,0,32c0,6.1-4.9,11-11,11c0,0,0,0-0.1,0H11c-4.9,0-9.2-3.2-10.6-7.9L0,57.2z"/>
</svg>
