<?xml version="1.0" encoding="utf-8"?>
<!-- Generator: Adobe Illustrator 24.0.0, SVG Export Plug-In . SVG Version: 6.00 Build 0)  -->
<svg version="1.1" id="Layer_1" xmlns="http://www.w3.org/2000/svg" xmlns:xlink="http://www.w3.org/1999/xlink" x="0px" y="0px"
	 viewBox="0 0 100 100" style="enable-background:new 0 0 100 100;" xml:space="preserve">
<title>metronome</title>
<path d="M67.2,35.2l2-3.1c-0.6-0.4-0.9-1.3-0.5-2c0.2-1,0.4-2.1,0.7-3.2l2.3,1.2l7.8-12.3l2.3,1.3L74,29.4l2.2,1.7
	c-1.6,0.8-2.7,2.4-4.9,2.7c-0.8,1.2-1.7,2.6-2.6,4.2c-0.1,0.4-0.1,0.9,0.1,1.3c4,11.5,8,23,12.1,34.5l7.9,22.6
	c0.1,0.3,0.2,0.7,0.3,1.1c-0.2,0.1-0.4,0.1-0.7,0.1c-1.7-0.2-3.1,0-3.8,1.9c-0.2,0.2-0.5,0.4-0.8,0.4c-0.6,0.1-1.2,0-1.9,0
	c-1.4,0.4-2.9-0.4-3.4-1.7c-0.3-0.3-0.7-0.5-1.2-0.5c-4,0-8.1,0-12.1,0c-14,0-28,0-41.9,0c-0.8-0.1-1.7,0.3-2,1.1
	c-0.3,0.9-1.2,1.4-2.1,1.2c-0.3,0-0.7,0-1,0c-1.6,0.2-2.8-0.1-3.5-1.7c-0.2-0.3-0.6-0.5-1-0.5c-0.9-0.1-1.7,0-2.7,0
	c0.9-2.5,1.7-4.8,2.5-7.1C24,60.7,34.5,30.9,45,1c0.1-0.6,0.7-1.1,1.4-1c0,0,0,0,0,0c2.5,0.1,5,0.1,7.6,0c0.6-0.1,1.2,0.3,1.3,0.9
	c3.9,11,7.7,22,11.6,33C66.9,34.3,67.1,34.6,67.2,35.2z M29.7,64c0.3,0,0.5,0,0.6,0c6,0,11.9,0,17.9,0c0.5-0.1,0.9-0.3,1.2-0.7
	c4.4-6.8,8.7-13.6,13-20.4c0.3-0.5,0.3-1,0.2-1.5c-2.8-8.7-5.7-17.3-8.6-25.9c-0.1-0.6-0.6-1.1-1.2-1c0,0,0,0-0.1,0
	c-1.7,0.1-3.3,0.1-5,0c-0.7-0.1-1.4,0.4-1.5,1.1c0,0,0,0,0,0.1C41.6,29.4,36.9,43.2,32.1,57L29.7,64z M63.9,45.3L52,63.9h18
	L63.9,45.3z"/>
</svg>
