<svg id="Layer_1" data-name="Layer 1" xmlns="http://www.w3.org/2000/svg" viewBox="0 0 78.16 100"><title>metronome</title><path d="M77.25,45.17l2-3.15a1.58,1.58,0,0,1-.53-2c0.25-1,.45-2.08.7-3.23L81.75,38l7.8-12.34L91.86,27,84,39.36l2.15,1.71c-1.63.82-2.68,2.44-4.94,2.73C80.46,45,79.47,46.45,78.57,48a1.81,1.81,0,0,0,.11,1.26q6,17.27,12.11,34.53l7.95,22.63c0.12,0.35.22,0.72,0.35,1.13a2.8,2.8,0,0,1-.66.09c-1.69-.21-3.12,0-3.82,1.88a1.17,1.17,0,0,1-.85.39c-0.62.06-1.25-.05-1.86,0a2.78,2.78,0,0,1-3.38-1.75,1.52,1.52,0,0,0-1.18-.52c-4,0-8.08,0-12.12,0q-21,0-41.94,0a1.84,1.84,0,0,0-2,1.12,1.73,1.73,0,0,1-2.11,1.18,3.51,3.51,0,0,0-1,0c-1.56.21-2.82-.09-3.47-1.75a1.33,1.33,0,0,0-1-.51c-0.85-.07-1.7,0-2.7,0,0.87-2.47,1.67-4.77,2.48-7.07Q39.22,55.79,55,11a1.19,1.19,0,0,1,1.36-1q3.78,0.09,7.56,0a1.14,1.14,0,0,1,1.29.95Q71,27.44,76.8,43.92C76.92,44.27,77.05,44.62,77.25,45.17ZM39.75,74c0.34,0,.47.05,0.61,0.05,6,0,11.94,0,17.9,0a1.7,1.7,0,0,0,1.18-.73q6.53-10.18,13-20.42a2,2,0,0,0,.17-1.5C69.76,42.71,66.87,34.09,64,25.46a1.12,1.12,0,0,0-1.29-1c-1.65.06-3.31,0.08-5,0a1.3,1.3,0,0,0-1.51,1.11Q49.23,46.33,42.12,67ZM73.89,55.25L62,73.95h18Z" transform="translate(-20.92 -10)"/></svg>