<?xml version="1.0" encoding="utf-8"?>
<!-- Generator: Adobe Illustrator 19.2.1, SVG Export Plug-In . SVG Version: 6.00 Build 0)  -->
<svg version="1.1" id="Layer_1" xmlns="http://www.w3.org/2000/svg" xmlns:xlink="http://www.w3.org/1999/xlink" x="0px" y="0px"
	 viewBox="0 0 100 85.8" style="enable-background:new 0 0 100 85.8;" xml:space="preserve">
<title>metronome</title>
<path d="M0,45.8c5.3,0,10.6,0,16,0c0.7,0.1,1.3-0.3,1.5-1c7-14.5,14-28.9,21.1-43.4C38.8,1,39,0.7,39.3,0l7.9,49.3l15.7-22.1
	l1.7,1.6c5.6,5.4,11.2,10.9,16.9,16.3c0.5,0.5,1.2,0.8,1.9,0.8c5.1,0,10.3,0,15.4,0h1.3v14.3H99c-7.4,0-14.7,0-22.1,0
	c-0.7,0-1.4-0.3-1.9-0.8c-3.2-3-6.4-6-9.6-9c-0.3-0.3-0.6-0.5-1-0.9L38.6,85.8l-6.4-38.5c-0.3,0.6-0.5,1-0.7,1.3
	c-1.7,3.5-3.5,7-5.2,10.5c-0.2,0.7-0.9,1.1-1.6,1c-8.2,0-16.5,0-24.7,0C0,60.1,0,45.8,0,45.8z"/>
</svg>
