<?xml version="1.0" encoding="utf-8"?>
<!-- Generator: Adobe Illustrator 24.0.0, SVG Export Plug-In . SVG Version: 6.00 Build 0)  -->
<svg version="1.1" id="Layer_1" xmlns:serif="http://www.serif.com/"
	 xmlns="http://www.w3.org/2000/svg" xmlns:xlink="http://www.w3.org/1999/xlink" x="0px" y="0px" viewBox="0 0 100 100"
	 style="enable-background:new 0 0 100 100;" xml:space="preserve">
<g transform="matrix(0.223217,0,0,0.223217,-7.14343,-8.93144)">
	<path d="M454.4,208.9c34.9-37.7,34.3-96.3-2.4-132.9c-36.6-36.6-95.3-37.2-133-2.3c-19.9-6.3-41-9.6-63-9.6s-43.2,3.3-63,9.6
		C155.3,38.8,96.6,39.4,60,76c-36.6,36.6-37.2,95.3-2.4,132.9c-6.3,19.9-9.6,41-9.6,63c0,51.4,18.6,98.4,49.6,134.8
		c-19.3,38.7-22.6,62.7-9.9,70.9c2.4,1.6,5.3,2.4,8.3,2.4c11.5,0,27-11.5,46.3-33.9C175,467.5,214,480,256,480s81-12.5,113.7-33.9
		C389,468.5,404.5,480,416,480c3.1,0,5.9-0.8,8.3-2.4c12.8-8.2,9.4-32.2-9.9-70.9c31-36.3,49.6-83.3,49.6-134.8
		C464,250,460.7,228.8,454.4,208.9z M256,431.9c-88.2,0-160-71.7-160-160c0-88.2,71.8-160,160-160s160,71.8,160,160
		C416,360.2,344.2,431.9,256,431.9z M346.6,181.4c7.2,7.2,7.2,18.8,0,26l-59.1,59.1c0.3,1.8,0.5,3.6,0.5,5.5c0,1.9-0.2,3.7-0.5,5.4
		l35.2,35.2c7.2,7.2,7.2,18.8,0,26c-7.2,7.2-18.8,7.2-26,0l-35.2-35.2c-1.8,0.3-3.6,0.6-5.5,0.6c-17.7,0-32-14.3-32-32
		c0-17.6,14.3-32,32-32c1.9,0,3.7,0.2,5.4,0.5l59.2-59.2C327.8,174.2,339.4,174.2,346.6,181.4z"/>
</g>
</svg>
