<?xml version="1.0" encoding="utf-8"?>
<!-- Generator: Adobe Illustrator 24.0.0, SVG Export Plug-In . SVG Version: 6.00 Build 0)  -->
<svg version="1.1" id="Layer_1" xmlns:serif="http://www.serif.com/"
	 xmlns="http://www.w3.org/2000/svg" xmlns:xlink="http://www.w3.org/1999/xlink" x="0px" y="0px" viewBox="0 0 100 100"
	 style="enable-background:new 0 0 100 100;" xml:space="preserve">
<style type="text/css">
	.st0{fill-rule:evenodd;clip-rule:evenodd;}
</style>
<g id="my-list" transform="matrix(3.57143,0,0,3.57143,-7.14286,-7.14286)">
	<path class="st0" d="M22,19v7c0,0.6-0.4,1-1,1s-1-0.4-1-1v-7h-7c-0.6,0-1-0.4-1-1s0.4-1,1-1h7v-7c0-0.6,0.4-1,1-1s1,0.4,1,1v7h7
		c0.6,0,1,0.4,1,1s-0.4,1-1,1H22z M9,17c0.6,0,1,0.4,1,1s-0.4,1-1,1H3c-0.6,0-1-0.4-1-1s0.4-1,1-1H9z M17,11c0.6,0,1,0.4,1,1
		c0,0.6-0.4,1-1,1H3c-0.6,0-1-0.4-1-1c0-0.6,0.4-1,1-1H17z M17,5c0.6,0,1,0.4,1,1s-0.4,1-1,1H3C2.4,7,2,6.6,2,6s0.4-1,1-1H17z"/>
</g>
</svg>
