<?xml version="1.0" encoding="utf-8"?>
<!-- Generator: Adobe Illustrator 23.0.6, SVG Export Plug-In . SVG Version: 6.00 Build 0)  -->
<svg version="1.1" id="Layer_1" xmlns:serif="http://www.serif.com/"
	 xmlns="http://www.w3.org/2000/svg" xmlns:xlink="http://www.w3.org/1999/xlink" x="0px" y="0px" viewBox="0 0 100 100"
	 style="enable-background:new 0 0 100 100;" xml:space="preserve">
<style type="text/css">
	.st0{fill-rule:evenodd;clip-rule:evenodd;fill:#010101;}
</style>
<path class="st0" d="M80.2,2.1c9.8,4.1,16.7,13.7,16.7,25c0,15-12.1,27.1-27.1,27.1c-4.5,0-8.7-1.1-12.4-3L40.1,68.5l9.7,9.7
	c1.7,1.7,1.7,4.3,0,6L35.3,98.8c-1.7,1.7-4.3,1.7-6,0L19.6,89l-2.3,2.3c-3.2,3.2-8.5,3.2-11.7,0c-3.2-3.2-3.2-8.5,0-11.7l40.2-40.1
	c-1.9-3.7-3-7.9-3-12.4C42.7,12.1,54.8,0,69.8,0c1.3,0,2.6,0.1,3.8,0.3v17.1c-1.2-0.5-2.5-0.7-3.8-0.7c-5.8,0-10.4,4.7-10.4,10.4
	S64,37.5,69.8,37.5s10.4-4.7,10.4-10.4c0-0.2,0-0.4,0-0.6V2.1L80.2,2.1z"/>
</svg>
