<?xml version="1.0" encoding="utf-8"?>
<!-- Generator: Adobe Illustrator 23.0.6, SVG Export Plug-In . SVG Version: 6.00 Build 0)  -->
<svg version="1.1" id="Layer_1" xmlns="http://www.w3.org/2000/svg" xmlns:xlink="http://www.w3.org/1999/xlink" x="0px" y="0px"
	 viewBox="0 0 100 100" style="enable-background:new 0 0 100 100;" xml:space="preserve">
<title>note</title>
<path d="M77.8,60.6c-0.1,1-0.1,2-0.2,3c-0.2,4.2-1,8.4-2.3,12.4c-0.1,0.2-0.1,0.3-0.2,0.5L72.6,76c0.5-2.3,1.2-4.4,1.6-6.7
	c0.7-4.1,1-8.2,0.8-12.3c-0.2-5.9-1.6-11.7-4-17.1c-1.9-4.4-4.9-8.3-8.8-11.3c-2.6-1.9-5.6-3-8.8-3.2v1.1c0,18.3-0.1,36.5,0.1,54.9
	c0.1,6.6-2.8,11.1-7.9,14.6c-3,2.1-6.6,3.4-10.3,3.8c-0.2,0-0.3,0.1-0.5,0.2h-3.2c-0.8-0.2-1.6-0.3-2.4-0.6c-3.5-1.1-6-3.2-6.7-6.9
	c-0.4-2.4,0.1-4.8,1.3-6.8c2.8-5.1,7.2-8.2,12.5-9.9c3.5-1.2,7.3-1.3,10.9-0.2V0h6c0.4,2,0.6,3.9,1.1,5.7c1.2,4.5,3.7,8.3,6.5,11.9
	c3.8,4.9,7.6,9.9,10.5,15.5c2.4,4.5,4.2,9.4,5.3,14.4c0.6,2.8,0.7,5.7,1,8.5c0.1,0.7,0.1,1.4,0.2,2.1V60.6L77.8,60.6z"/>
</svg>
