<?xml version="1.0" encoding="utf-8"?>
<!-- Generator: Adobe Illustrator 24.0.0, SVG Export Plug-In . SVG Version: 6.00 Build 0)  -->
<svg version="1.1" id="Layer_1" xmlns="http://www.w3.org/2000/svg" xmlns:xlink="http://www.w3.org/1999/xlink" x="0px" y="0px"
	 viewBox="0 0 100 100" style="enable-background:new 0 0 100 100;" xml:space="preserve">
<title>notifications</title>
<path d="M3,84.4v-2.2c1.2-1.8,2.3-3.6,3.2-5.5c2.9-6.8,5.9-13.6,8.3-20.7c2.1-6.4,3.3-13.1,4.9-19.6c1-4.2,2.2-8.3,3.6-12.4
	c2.7-7.7,9-13.5,16.8-15.5c0.7-0.2,1.4-0.4,2-0.6C42,5,43.6,2.4,46.2,1.1C51.5-1.6,56.9,1.9,58,6.9c0,0.6,0.5,1.2,1.1,1.2
	c1.8,0.2,3.5,0.8,5,1.7c6.5,2.9,11.5,8.5,13.5,15.4c1.5,3.9,2.5,8.2,3.5,12.4c2.1,9.2,4.2,18.3,7.8,27c2.4,5.8,4.1,11.9,8.2,16.8
	v2.2c-0.5,1.6-1.4,3.1-2.6,4.4c-2,1.9-4.4,3.4-6.9,4.6c-9.6,4.3-19.7,6.3-30.2,7c-0.9,0.1-1.8,0.2-2.7,0.4h-7.4
	c-0.7-0.1-1.5-0.2-2.2-0.3c-3-0.3-5.9-0.5-8.8-0.8c-6-0.7-12-1.9-17.8-3.8C12.1,93.3,6.6,90.2,3,84.4z M86.8,79.7
	c-0.3-0.3-0.5-0.6-0.7-0.8c-2.5-2.5-5.6-4.2-9-5.2c-5.9-1.8-12-2.9-18.1-3.1C51,70.1,43,70.3,35,71c-5.7,0.6-11.2,2.1-16.4,4.6
	c-2.1,1-4,2.4-5.4,4.2c0.3,0.3,0.6,0.7,0.9,1s0.6,0.6,1,0.8c3.6,2.9,7.9,4.2,12.2,5.4c6.9,2.1,14.1,2.2,21.2,2.6
	c5.8,0.3,11.6-0.5,17.3-1.3c4.9-0.6,9.7-1.9,14.2-3.8C82.6,83.3,84.9,81.7,86.8,79.7L86.8,79.7z M42.8,75.3c0.4-0.2,0.8-0.3,1.3-0.4
	c4.2-0.3,8.4-0.3,12.5,0.3c0.6,0,1,0.5,1,1c0,0.1,0,0.2,0,0.3c-1.2,5.3-4.7,8.9-10.3,7.1c-2.8-0.9-4.1-3.5-4.6-6.4
	c-0.1-0.4-0.1-0.7-0.1-1.1C42.8,75.7,42.8,75.5,42.8,75.3z"/>
</svg>
