<?xml version="1.0" encoding="utf-8"?>
<!-- Generator: Adobe Illustrator 19.2.1, SVG Export Plug-In . SVG Version: 6.00 Build 0)  -->
<svg version="1.1" id="Layer_1" xmlns="http://www.w3.org/2000/svg" xmlns:xlink="http://www.w3.org/1999/xlink" x="0px" y="0px"
	 viewBox="0 0 93.5 100" style="enable-background:new 0 0 93.5 100;" xml:space="preserve">
<title>packs</title>
<path d="M47,0c5,0.8,9.2,3.7,13.7,5.9c9.4,4.6,18.8,9.4,28.2,14.1c1,0.3,1.6,1.2,1.7,2.2c0,1-0.7,1.9-1.7,2.3
	c-12.8,6.4-25.6,12.9-38.4,19.3c-1.7,0.8-3.6,1-5.3,0.5c-1.2-0.3-2.4-0.7-3.6-1.3C29.5,36.9,17.4,30.9,5.3,24.8
	c-0.6-0.3-1.1-0.6-1.6-1.1c-0.8-0.7-1-2-0.3-2.8c0.1-0.1,0.1-0.1,0.2-0.2c0.3-0.3,0.7-0.6,1.1-0.8C16.8,13.8,28.9,7.8,41,1.7
	C42.6,1,44.2,0.5,45.8,0H47z M40.1,100c-12-5.5-23.9-11-35.9-16.6c-2.7-1.2-4.4-3.9-4.2-6.9c0-5.9,0.1-11.8,0.1-17.7
	c0.1-7.3,0.2-14.7,0.3-22.1c0-1.8,0.9-3,2.4-3c0.8,0,1.6,0.2,2.3,0.6c9.4,4.3,18.8,8.7,28.2,13L39,50c3,1.2,4.9,4.2,4.7,7.4
	c-0.1,9-0.1,18.1-0.2,27.1c0,4.1-0.1,8.1-0.2,12.2c0.2,1.5-0.7,2.9-2.1,3.4H40.1z M93.5,77.5c-0.2,0.8-0.5,1.6-0.8,2.3
	c-0.8,1.6-2.1,3-3.8,3.7c-11.3,5.2-22.5,10.4-33.8,15.6c-0.4,0.2-0.8,0.3-1.2,0.5c-1.3,0.4-2.7-0.3-3.1-1.6c0-0.1-0.1-0.2-0.1-0.4
	c-0.1-0.5-0.2-1-0.2-1.6c-0.1-12.9-0.1-25.9-0.2-38.8c-0.2-3.2,1.7-6.2,4.7-7.5c11.1-5.2,22.3-10.3,33.4-15.4l0.3-0.2
	c2.7-1.2,4.5,0,4.5,2.9c0,8.4,0,16.8,0.1,25.1c0,1.2,0.1,2.3,0.1,3.5V77.5z"/>
</svg>
