<?xml version="1.0" encoding="utf-8"?>
<!-- Generator: Adobe Illustrator 23.0.6, SVG Export Plug-In . SVG Version: 6.00 Build 0)  -->
<svg version="1.1" id="Layer_1" xmlns:serif="http://www.serif.com/"
	 xmlns="http://www.w3.org/2000/svg" xmlns:xlink="http://www.w3.org/1999/xlink" x="0px" y="0px" viewBox="0 0 100 100"
	 style="enable-background:new 0 0 100 100;" xml:space="preserve">
<path id="XMLID_874_" d="M3.1,75H1.6C0.7,75,0,74.3,0,73.4V26.6C0,11.9,11.9,0,26.6,0c14.6,0,26.6,11.9,26.6,26.6
	c0,4.8,3.3,9,7.9,10.3L78,41.4c13,3.5,22,15.3,22,28.7v3.4c0,0.9-0.7,1.6-1.6,1.6h-1.6v17.2c0,4.3-3.5,7.8-7.8,7.8H10.9
	c-4.3,0-7.8-3.5-7.8-7.8L3.1,75L3.1,75z M12.5,75H6.2v17.2c0,2.6,2.1,4.7,4.7,4.7h6.2v-7.8h-3.1c-0.9,0-1.6-0.7-1.6-1.6L12.5,75
	L12.5,75z M28.1,75H25v12.5c0,0.9-0.7,1.6-1.6,1.6h-3.1v7.8h12.5v-7.8h-3.1c-0.9,0-1.6-0.7-1.6-1.6L28.1,75L28.1,75z M43.8,75h-3.1
	v12.5c0,0.9-0.7,1.6-1.6,1.6h-3.1v7.8h12.5v-7.8h-3.1c-0.9,0-1.6-0.7-1.6-1.6V75L43.8,75z M59.4,75h-3.1v12.5c0,0.9-0.7,1.6-1.6,1.6
	h-3.1v7.8h12.5v-7.8h-3.1c-0.9,0-1.6-0.7-1.6-1.6L59.4,75L59.4,75z M75,75h-3.1v12.5c0,0.9-0.7,1.6-1.6,1.6h-3.1v7.8h12.5v-7.8h-3.1
	c-0.9,0-1.6-0.7-1.6-1.6V75L75,75z M93.8,75h-6.2v12.5c0,0.9-0.7,1.6-1.6,1.6h-3.1v7.8h6.2c2.6,0,4.7-2.1,4.7-4.7V75z M78.1,85.9
	h6.2V75h-6.2V85.9z M62.5,85.9h6.2V75h-6.2V85.9z M46.9,85.9h6.2V75h-6.2V85.9z M31.3,85.9h6.2V75h-6.2V85.9z M15.6,85.9h6.2V75
	h-6.2L15.6,85.9L15.6,85.9z M3.1,71.9h93.7V70c0-12-8.1-22.6-19.7-25.7l-16.9-4.5c-6-1.6-10.2-7.1-10.2-13.3
	C50,13.6,39.5,3.1,26.6,3.1C13.6,3.1,3.1,13.6,3.1,26.6L3.1,71.9L3.1,71.9z M46.9,68.7c-0.4,0-0.8-0.2-1.1-0.5
	c-0.3-0.3-0.5-0.7-0.5-1.1c0-0.4,0.2-0.8,0.5-1.1c0.6-0.6,1.6-0.6,2.2,0c0.3,0.3,0.5,0.7,0.5,1.1c0,0.4-0.2,0.8-0.5,1.1
	C47.7,68.6,47.3,68.7,46.9,68.7z M53.1,68.7c-0.4,0-0.8-0.2-1.1-0.5c-0.3-0.3-0.5-0.7-0.5-1.1c0-0.4,0.2-0.8,0.5-1.1
	c0.6-0.6,1.6-0.6,2.2,0c0.3,0.3,0.5,0.7,0.5,1.1c0,0.4-0.2,0.8-0.5,1.1C53.9,68.6,53.5,68.7,53.1,68.7z M40.6,68.7
	c-0.4,0-0.8-0.2-1.1-0.5c-0.3-0.3-0.5-0.7-0.5-1.1c0-0.4,0.2-0.8,0.5-1.1c0.6-0.6,1.6-0.6,2.2,0c0.3,0.3,0.5,0.7,0.5,1.1
	c0,0.4-0.2,0.8-0.5,1.1C41.4,68.6,41,68.7,40.6,68.7z M65.6,68.7c-0.4,0-0.8-0.2-1.1-0.5c-0.3-0.3-0.5-0.7-0.5-1.1
	c0-0.4,0.2-0.8,0.5-1.1c0.6-0.6,1.6-0.6,2.2,0c0.3,0.3,0.5,0.7,0.5,1.1c0,0.4-0.2,0.8-0.5,1.1C66.4,68.6,66,68.7,65.6,68.7z
	 M59.4,68.7c-0.4,0-0.8-0.2-1.1-0.5c-0.3-0.3-0.5-0.7-0.5-1.1c0-0.4,0.2-0.8,0.5-1.1c0.6-0.6,1.6-0.6,2.2,0c0.3,0.3,0.5,0.7,0.5,1.1
	c0,0.4-0.2,0.8-0.5,1.1C60.2,68.6,59.8,68.7,59.4,68.7z M34.4,68.7c-0.4,0-0.8-0.2-1.1-0.5c-0.3-0.3-0.5-0.7-0.5-1.1
	c0-0.4,0.2-0.8,0.5-1.1c0.6-0.6,1.6-0.6,2.2,0c0.3,0.3,0.5,0.7,0.5,1.1c0,0.4-0.2,0.8-0.5,1.1C35.2,68.6,34.8,68.7,34.4,68.7z
	 M59.4,62.5c-0.4,0-0.8-0.2-1.1-0.5c-0.3-0.3-0.5-0.7-0.5-1.1c0-0.4,0.2-0.8,0.5-1.1c0.6-0.6,1.6-0.6,2.2,0c0.3,0.3,0.5,0.7,0.5,1.1
	s-0.2,0.8-0.5,1.1C60.2,62.3,59.8,62.5,59.4,62.5z M65.6,62.5c-0.4,0-0.8-0.2-1.1-0.5c-0.3-0.3-0.5-0.7-0.5-1.1
	c0-0.4,0.2-0.8,0.5-1.1c0.6-0.6,1.6-0.6,2.2,0c0.3,0.3,0.5,0.7,0.5,1.1S67,61.7,66.7,62C66.4,62.3,66,62.5,65.6,62.5z M53.1,62.5
	c-0.4,0-0.8-0.2-1.1-0.5c-0.3-0.3-0.5-0.7-0.5-1.1s0.2-0.8,0.5-1.1c0.6-0.6,1.6-0.6,2.2,0c0.3,0.3,0.5,0.7,0.5,1.1s-0.2,0.8-0.5,1.1
	C53.9,62.3,53.5,62.5,53.1,62.5z M46.9,62.5c-0.4,0-0.8-0.2-1.1-0.5c-0.3-0.3-0.5-0.7-0.5-1.1s0.2-0.8,0.5-1.1
	c0.6-0.6,1.6-0.6,2.2,0c0.3,0.3,0.5,0.7,0.5,1.1S48.3,61.7,48,62C47.7,62.3,47.3,62.5,46.9,62.5z M34.4,62.5c-0.4,0-0.8-0.2-1.1-0.5
	c-0.3-0.3-0.5-0.7-0.5-1.1s0.2-0.8,0.5-1.1c0.6-0.6,1.6-0.6,2.2,0c0.3,0.3,0.5,0.7,0.5,1.1s-0.2,0.8-0.5,1.1
	C35.2,62.3,34.8,62.5,34.4,62.5z M40.6,62.5c-0.4,0-0.8-0.2-1.1-0.5c-0.3-0.3-0.5-0.7-0.5-1.1s0.2-0.8,0.5-1.1
	c0.6-0.6,1.6-0.6,2.2,0c0.3,0.3,0.5,0.7,0.5,1.1S42,61.7,41.7,62C41.4,62.3,41,62.5,40.6,62.5L40.6,62.5z M7.8,58.6
	c-0.9,0-1.6-0.7-1.6-1.6V26.6c0-2.7,0.5-5.4,1.6-7.9c0.3-0.8,1.3-1.2,2.1-0.8c0.8,0.3,1.2,1.2,0.8,2c-0.9,2.1-1.4,4.4-1.4,6.7V57
	C9.4,57.9,8.7,58.6,7.8,58.6z M12.6,15.6c-0.4,0-0.7-0.1-1-0.4c-0.6-0.6-0.7-1.6-0.1-2.2c0.3-0.3,0.5-0.5,0.8-0.8
	c0.6-0.6,1.6-0.6,2.2,0c0.6,0.6,0.6,1.6,0,2.2c-0.2,0.2-0.4,0.5-0.6,0.7C13.5,15.4,13,15.6,12.6,15.6L12.6,15.6z"/>
</svg>
