<?xml version="1.0" encoding="utf-8"?>
<!-- Generator: Adobe Illustrator 23.0.6, SVG Export Plug-In . SVG Version: 6.00 Build 0)  -->
<svg version="1.1" id="Layer_1" xmlns:serif="http://www.serif.com/"
	 xmlns="http://www.w3.org/2000/svg" xmlns:xlink="http://www.w3.org/1999/xlink" x="0px" y="0px" viewBox="0 0 100 100"
	 style="enable-background:new 0 0 100 100;" xml:space="preserve">
<style type="text/css">
	.st0{fill-rule:evenodd;clip-rule:evenodd;}
</style>
<path class="st0" d="M88.5,100h-77C5.2,100,0,94.8,0,88.5v-77C0,5.2,5.2,0,11.5,0h77C94.8,0,100,5.2,100,11.5v77
	C100,94.8,94.8,100,88.5,100z M34.6,89.4v-27c2.8,2.7,5.6,4.6,8.5,5.8c2.8,1.2,5.9,1.8,9.2,1.8c7.4,0,13.8-2.9,19.2-8.6
	c5.4-5.7,8.1-12.9,8.1-21.4c0-8.8-2.6-16.1-7.8-21.7c-5.2-5.6-11.6-8.5-19-8.5c-3.4,0-6.7,0.7-9.7,1.9c-3,1.3-5.8,3.2-8.4,5.8v-6.3
	H20.4v78.2L34.6,89.4L34.6,89.4z M49.7,23c-4.5,0-8.3,1.5-11.3,4.6c-3,3.1-4.5,7.1-4.5,12.1c0,5.1,1.5,9.2,4.5,12.3
	c3,3.1,6.7,4.7,11.3,4.7c4.4,0,8.1-1.6,11.1-4.8c3-3.2,4.5-7.3,4.5-12.2c0-4.9-1.5-8.9-4.4-12.1C57.9,24.6,54.2,23,49.7,23L49.7,23z
	"/>
</svg>
