<?xml version="1.0" encoding="utf-8"?>
<!-- Generator: Adobe Illustrator 19.2.1, SVG Export Plug-In . SVG Version: 6.00 Build 0)  -->
<svg version="1.1" id="Layer_1" xmlns="http://www.w3.org/2000/svg" xmlns:xlink="http://www.w3.org/1999/xlink" x="0px" y="0px"
	 viewBox="0 0 84.6 99.7" style="enable-background:new 0 0 84.6 99.7;" xml:space="preserve">
<path d="M0,88.9v-1.3c0.1-0.1,0.1-0.3,0.2-0.4c0.2-2.1,1-4.1,2.3-5.8c4.4-5.4,10.3-7.4,17.1-6.8c1.1,0.1,2.1,0.4,3.3,0.6V10.8
	l8.6-1.5l14.8-2.6L61,4.1l14.8-2.6L84.6,0v78.4c-0.1,0.2-0.1,0.5-0.2,0.7c-0.3,3.7-2.3,6.5-5,8.8c-2.8,2.2-6.1,3.6-9.6,4
	c-3.9,0.6-7.8-0.2-11.2-2.2c-5.6-3.4-7-9.8-3.3-15.2c3.4-4.9,8.3-7,14-7.4c2.5-0.2,5,0.2,7.4,1.1l-0.3-47.9l-45.1,7.9v57.1
	c0.1,3.2-1.1,6.3-3.3,8.6c-5.5,5.6-12.2,7.2-19.7,5c-3.8-1-6.9-3.8-8-7.6C0.2,90.4,0.2,89.7,0,88.9z"/>
</svg>
