<?xml version="1.0" encoding="utf-8"?>
<!-- Generator: Adobe Illustrator 24.0.0, SVG Export Plug-In . SVG Version: 6.00 Build 0)  -->
<svg version="1.1" id="Layer_1" xmlns="http://www.w3.org/2000/svg" xmlns:xlink="http://www.w3.org/1999/xlink" x="0px" y="0px"
	 viewBox="0 0 100 100" style="enable-background:new 0 0 100 100;" xml:space="preserve">
<path d="M7.7,89.1v-1.3c0.1-0.1,0.1-0.3,0.2-0.4c0.2-2.1,1-4.1,2.3-5.8c4.4-5.4,10.3-7.4,17.1-6.8c1.1,0.1,2.1,0.4,3.3,0.6V10.9
	l8.6-1.5L54,6.8l14.7-2.6l14.8-2.6l8.8-1.5v78.5c-0.1,0.2-0.1,0.5-0.2,0.7c-0.3,3.7-2.3,6.5-5,8.8c-2.8,2.2-6.1,3.6-9.6,4
	c-3.9,0.6-7.8-0.2-11.2-2.2c-5.6-3.4-7-9.8-3.3-15.2c3.4-4.9,8.3-7,14-7.4c2.5-0.2,5,0.2,7.4,1.1l-0.3-48L39,28.3v57.2
	c0.1,3.2-1.1,6.3-3.3,8.6c-5.5,5.6-12.2,7.2-19.7,5c-3.8-1-6.9-3.8-8-7.6C7.9,90.6,7.9,89.9,7.7,89.1z"/>
</svg>
