<?xml version="1.0" encoding="utf-8"?>
<!-- Generator: Adobe Illustrator 23.0.6, SVG Export Plug-In . SVG Version: 6.00 Build 0)  -->
<svg version="1.1" id="Layer_1" xmlns:serif="http://www.serif.com/"
	 xmlns="http://www.w3.org/2000/svg" xmlns:xlink="http://www.w3.org/1999/xlink" x="0px" y="0px" viewBox="0 0 100 100"
	 style="enable-background:new 0 0 100 100;" xml:space="preserve">
<style type="text/css">
	.st0{fill-rule:evenodd;clip-rule:evenodd;}
</style>
<path id="Podcast" class="st0" d="M50,49.4c5.8,0,10.5-4.4,10.5-9.9c0-5.5-4.7-9.9-10.5-9.9S39.5,34,39.5,39.5S44.2,49.4,50,49.4z
	 M50,14.8c-14.5,0-26.2,11.1-26.2,24.7c0,6.6,2.8,12.7,7.3,17.1c1.3-2,3.1-3.8,5.5-5.3c-3.1-3.1-5-7.3-5-11.8
	c0-9.6,8.2-17.3,18.4-17.3s18.4,7.7,18.4,17.3c0,4.6-1.9,8.8-5,11.9c2.5,1.4,4.2,3.3,5.5,5.3c4.5-4.4,7.3-10.5,7.3-17.1
	C76.2,25.9,64.5,14.8,50,14.8L50,14.8z M50,0C26.8,0,8.1,17.7,8.1,39.5c0,14.2,8,26.7,20,33.7c-0.2-1.7-0.4-3.5-0.4-5.4
	c0,0,0-1.5,0.4-3.6c-7.4-5.9-12.2-14.7-12.2-24.6C15.9,21.7,31.2,7.4,50,7.4s34.1,14.4,34.1,32.1c0,9.9-4.8,18.8-12.2,24.7
	c0.4,2.1,0.4,3.6,0.4,3.6c0,1.9-0.2,3.8-0.4,5.5c12-6.9,20-19.4,20-33.7C91.9,17.7,73.2,0,50,0L50,0z M50,54.3
	c-8,0-14.4,6.1-14.4,13.6C35.6,75.4,42,100,50,100c8,0,14.4-24.6,14.4-32.1C64.4,60.4,58,54.3,50,54.3L50,54.3z"/>
</svg>
