<?xml version="1.0" encoding="utf-8"?>
<!-- Generator: Adobe Illustrator 19.2.1, SVG Export Plug-In . SVG Version: 6.00 Build 0)  -->
<svg version="1.1" id="Layer_1" xmlns="http://www.w3.org/2000/svg" xmlns:xlink="http://www.w3.org/1999/xlink" x="0px" y="0px"
	 viewBox="0 0 100 100" style="enable-background:new 0 0 100 100;" xml:space="preserve">
<title>print</title>
<path d="M100,35.2v30.5c-4,3.9-8.8,2.2-13.4,2.4l-0.4-8.6H13.5v8.2c-7.4,1.2-10.1,0.8-13.6-2V35.2c1.4-2.6,3.6-3.3,6.5-3.3
	c29,0.1,58.1,0.1,87.1,0C96.4,31.8,98.6,32.6,100,35.2z M50,50c10.7,0,21.3,0,32,0c1.8,0,4.2,0.4,4-2.3c-0.1-0.9-2.6-2.2-4-2.2
	c-21.3-0.1-42.7-0.1-64.1,0c-1.4,0-2.8,1.5-4.2,2.2c1.4,0.8,2.8,2.2,4.2,2.2C28.7,50.1,39.3,50,50,50z M82,100H18V63.9h64V100z
	 M72.5,72.9h-45v4.2h45V72.9z M72.6,82.1H27.3l0.3,4h45L72.6,82.1L72.6,82.1z M18,0h64v27.1H18V0z"/>
</svg>
