<svg viewBox="0 0 16.66 23.79">
<path id="Path_68459" d="M4.71,20.97c0,0.28,0.09,0.56,0.24,0.8l0.78,1.17c0.27,0.41,0.72,0.65,1.21,0.65h2.8
            c0.49,0,0.94-0.24,1.21-0.65l0.78-1.17c0.16-0.24,0.24-0.52,0.24-0.8v-1.74H4.7L4.71,20.97z"></path>
<path id="Path_68460" d="M13.61,2.29c-3.33-2.9-8.39-2.55-11.29,0.78c-2.62,3.01-2.62,7.49,0,10.5c1.04,1.23,1.84,2.64,2.37,4.16
            c0,0.01,0,0.02,0,0.03h7.28c0-0.01,0-0.02,0-0.03c0.53-1.52,1.33-2.93,2.37-4.16C17.26,10.26,16.93,5.21,13.61,2.29 M11.97,7.83
            l-3.39,5.86c-0.13,0.22-0.41,0.3-0.63,0.17c-0.18-0.1-0.27-0.31-0.22-0.51L8.62,9.6H6.33c-0.26,0-0.46-0.21-0.46-0.46
            c0-0.02,0-0.04,0-0.06l0.62-4.63c0.03-0.23,0.23-0.4,0.46-0.4h2.78c0.26,0,0.46,0.21,0.46,0.47c0,0.04-0.01,0.08-0.02,0.12
            l-0.82,2.5h2.22c0.26,0,0.46,0.21,0.46,0.46C12.03,7.68,12.01,7.76,11.97,7.83"></path>
</svg>
