<?xml version="1.0" encoding="utf-8"?>
<!-- Generator: Adobe Illustrator 23.0.6, SVG Export Plug-In . SVG Version: 6.00 Build 0)  -->
<svg version="1.1" id="Layer_1" xmlns:serif="http://www.serif.com/"
	 xmlns="http://www.w3.org/2000/svg" xmlns:xlink="http://www.w3.org/1999/xlink" x="0px" y="0px" viewBox="0 0 100 100"
	 style="enable-background:new 0 0 100 100;" xml:space="preserve">
<style type="text/css">
	.st0{fill-rule:evenodd;clip-rule:evenodd;}
</style>
<path class="st0" d="M88.5,100h-77C5.2,100,0,94.8,0,88.5v-77C0,5.2,5.2,0,11.5,0h77C94.8,0,100,5.2,100,11.5v77
	C100,94.8,94.8,100,88.5,100z M50.6,89.4V49.9c0-1.9,0.2-3.8,0.5-5.4c1.3-6.2,5.7-10.5,12.2-11.9l0.1,0l0,0c0.4-0.1,0.9-0.2,1.3-0.2
	v0c0.9-0.1,1.9-0.2,2.9-0.2c2.7,0,4.8,0.3,6.5,0.6V10.5l0,0v0c-1.9-0.6-3.3-0.7-5.1-0.7c-7.5,0-16.9,2.4-22.2,10.6l-0.2-8.3l0-0.6
	H25.8v0l0,0c0.3,6.7,0.6,14.2,0.6,25.6v52.2l0,0v0.1L50.6,89.4L50.6,89.4z"/>
</svg>
