<svg id="Layer_1" data-name="Layer 1" xmlns="http://www.w3.org/2000/svg" viewBox="0 0 64.44 81.59"><title>resources</title><path d="M27.81,59.95q0-17,0-34.08a6.31,6.31,0,0,1,4.77-6.44,8.7,8.7,0,0,1,2.12-.22H85.39c4.18,0,6.81,2.66,6.81,6.85q0,33.93,0,67.87a6.65,6.65,0,0,1-6.83,6.87q-25.39-.12-50.78,0a6.64,6.64,0,0,1-6.83-6.87C27.85,82.6,27.81,71.28,27.81,59.95Zm11.73,1.79h40.9V55.63H39.54v6.11Zm0,17H80.44v-6.1H39.53v6.1ZM80.45,38.59H39.58v6.1H80.45v-6.1Z" transform="translate(-27.78 -19.2)"/></svg>