<?xml version="1.0" encoding="utf-8"?>
<!-- Generator: Adobe Illustrator 24.0.0, SVG Export Plug-In . SVG Version: 6.00 Build 0)  -->
<svg version="1.1" id="Layer_1" xmlns="http://www.w3.org/2000/svg" xmlns:xlink="http://www.w3.org/1999/xlink" x="0px" y="0px"
	 viewBox="0 0 100 100" style="enable-background:new 0 0 100 100;" xml:space="preserve">
<title>resources</title>
<path d="M10.6,49.9c0-13.9,0-27.8,0-41.8c-0.2-3.7,2.3-7,5.8-7.9C17.3,0.1,18.1,0,19,0h62.1c5.1,0,8.3,3.3,8.3,8.4
	c0,27.7,0,55.4,0,83.2c0.2,4.5-3.4,8.3-7.9,8.4c-0.2,0-0.3,0-0.5,0c-20.7-0.1-41.5-0.1-62.2,0c-4.5,0.1-8.2-3.4-8.4-7.9
	c0-0.2,0-0.3,0-0.5C10.6,77.7,10.6,63.8,10.6,49.9z M24.9,52.1h50.1v-7.5H24.9V52.1z M24.9,73h50.1v-7.5H24.9L24.9,73L24.9,73z
	 M75.1,23.8H25v7.5h50.1V23.8z"/>
</svg>
