<?xml version="1.0" encoding="utf-8"?>
<!-- Generator: Adobe Illustrator 23.0.6, SVG Export Plug-In . SVG Version: 6.00 Build 0)  -->
<svg version="1.1" id="Layer_1" xmlns:serif="http://www.serif.com/"
	 xmlns="http://www.w3.org/2000/svg" xmlns:xlink="http://www.w3.org/1999/xlink" x="0px" y="0px" viewBox="0 0 100 100"
	 style="enable-background:new 0 0 100 100;" xml:space="preserve">
<path id="Drum" d="M99.9,49.9c0-2.8-1.9-5.3-4.6-6c-1-8-4.2-15.5-9.1-21.9c0.6-0.9,0.9-2,0.9-3.1c0-3.3-2.7-6.1-6.1-6.1
	c-1.1,0-2.2,0.3-3.1,0.9C71.6,8.8,64,5.7,56,4.6C55.3,1.9,52.8,0,50,0s-5.3,1.9-6,4.6c-8,1-15.6,4.2-21.9,9.1
	c-0.9-0.6-2-0.9-3.1-0.9c-3.3,0-6.1,2.7-6.1,6.1c0,1.1,0.3,2.2,0.9,3.1c-4.9,6.4-8.1,13.9-9.1,21.9c-2.7,0.7-4.6,3.2-4.6,6
	c0,2.8,1.9,5.3,4.6,6c1,8,4.2,15.6,9.1,21.9c-0.6,1-0.9,2.1-0.9,3.2c0,3.3,2.7,6,6,6.1l-1,2.4l-0.7,1.8c-0.3,0.7-0.4,1.5-0.4,2.3
	c0,3.4,2.8,6.2,6.2,6.2c2.5,0,4.7-1.5,5.7-3.7c0-0.4,0.8-2.2,1.6-4.8c4.3,2.1,8.9,3.5,13.7,4.2c0.7,2.7,3.2,4.6,6,4.6
	c2.8,0,5.3-1.9,6-4.6c5.4-0.7,10.7-2.4,15.5-5c1,3.2,1.7,5.3,1.9,5.7c1,2.3,3.2,3.7,5.7,3.7c3.4,0,6.2-2.8,6.2-6.2
	c0-0.8-0.1-1.6-0.4-2.3l-0.8-1.8L83,86.7c0.9-0.3,1.6-0.8,2.3-1.4c2-2,2.4-5.1,1-7.5c4.9-6.3,8-13.9,9-21.8
	C98.1,55.3,100,52.8,99.9,49.9L99.9,49.9z M78.1,74.6c-5.8-14-10.1-23.8-12.8-29.1c1.4-1.7,1.7-4.1,0.8-6.2c-0.8-1.9-3.7-6-7.1-6
	c-0.5,0-1,0.1-1.5,0.3c-3.6,1.5-4.2,7.8-2.9,10.6c0.7,1.8,2.3,3.1,4.2,3.6c1.8,8.1,6.4,23.3,9.9,34.6c-11,6.4-24.6,6.8-35.9,0.9
	c3.5-11.3,8.3-27.2,10.2-35.5c1.9-0.5,3.4-1.8,4.2-3.6c1.1-2.8,0.7-9.1-2.9-10.6c-0.4-0.1-0.9-0.2-1.4-0.2c-3.4,0-6.3,4.2-7.1,5.9
	c-0.9,2-0.5,4.4,0.8,6.1c-2.8,5.6-7.3,16-13.4,30.8c-6.9-7-10.8-16.5-10.8-26.3c0-20.5,16.9-37.5,37.5-37.5
	c20.6,0,37.5,16.9,37.5,37.5C87.4,59,84.1,67.7,78.1,74.6L78.1,74.6L78.1,74.6z"/>
</svg>
