<?xml version="1.0" encoding="utf-8"?>
<!-- Generator: Adobe Illustrator 19.2.1, SVG Export Plug-In . SVG Version: 6.00 Build 0)  -->
<svg version="1.1" id="Layer_1" xmlns="http://www.w3.org/2000/svg" xmlns:xlink="http://www.w3.org/1999/xlink" x="0px" y="0px"
	 viewBox="0 0 92.9 100" style="enable-background:new 0 0 92.9 100;" xml:space="preserve">
<title>satellite</title>
<path d="M51.8,31.3c8.7-6.8,17.3-13.3,25.7-20.1c1.1-1.1,1.7-2.5,1.8-4c0.2-2.8,1.4-4.4,4-4.5C85.3,2.5,87,4,87.2,6
	c0,0.2,0,0.5,0,0.7c-0.1,3-1.8,4.1-4.8,4.1c-1.3,0-2.5,0.6-3.4,1.5c-6.7,8.4-13.3,17-20.2,25.8c1.1,1.2,2.1,2.4,3.2,3.5
	c9.3,9.4,18.7,18.7,28.1,28.1c3.9,3.9,3.7,5.6-1.1,8.4c-5.6,3.3-11.7,3.4-17.8,2c-10.8-2.4-20.1-7.7-28.5-14.8
	c-13.5-11.4-25-24.4-29.6-42c-1.8-6.9-2-13.7,2-20.1c2.7-4.3,4.2-4.4,7.8-0.8c8.4,8.4,16.9,16.9,25.3,25.3
	C49.3,29,50.5,30.1,51.8,31.3z M20.3,51.8c6.9,6.6,13.4,12.8,19.9,19.1c0.7,0.8,1.2,1.8,1.3,2.9c0.8,7.4,1.5,14.8,2.4,22.1
	c0.3,2.8-0.8,4-3.4,4c-12.4,0-24.9,0.1-37.3,0c-3.2,0-3.9-1.4-2.6-4.5C7.1,80.9,13.8,66.4,20.3,51.8z"/>
</svg>
