<?xml version="1.0" encoding="utf-8"?>
<!-- Generator: Adobe Illustrator 19.2.1, SVG Export Plug-In . SVG Version: 6.00 Build 0)  -->
<svg version="1.1" id="Layer_1" xmlns="http://www.w3.org/2000/svg" xmlns:xlink="http://www.w3.org/1999/xlink" x="0px" y="0px"
	 viewBox="0 0 87.9 100" style="enable-background:new 0 0 87.9 100;" xml:space="preserve">
<path d="M80.7,100H7.3c-1.8-0.4-3.5-1.2-4.8-2.5c-1.2-1.3-2.1-3-2.5-4.8V31.9c0.4,0,0.7,0,1.1,0h85.7c0.4,0,0.7,0,1.1,0v60.9
	C87.3,96.5,84.4,99.4,80.7,100z M14.5,73.8c2.3,0,4.5,0,6.8,0c0.5,0.1,0.9-0.1,1.1-0.6c0-0.1,0-0.3,0-0.4c0-4.6,0-9.2,0-13.7
	c0.1-0.4-0.1-0.9-0.6-1c-0.1,0-0.3,0-0.4,0c-4.6,0-9.2,0-13.7,0c-0.4-0.1-0.9,0.1-1,0.6c0,0.1,0,0.3,0,0.4c0,4.6,0,9.2,0,13.8
	c-0.1,0.4,0.1,0.8,0.5,1c0.2,0,0.3,0,0.5,0C9.9,73.8,12.2,73.8,14.5,73.8z M34,73.8c2.3,0,4.6,0,6.9,0c0.7,0,1-0.2,1-1
	c0-4.6,0-9.2,0-13.8c0.1-0.4-0.1-0.9-0.5-1c-0.1,0-0.3-0.1-0.4,0c-4.6,0-9.2,0-13.8,0c-0.4-0.1-0.9,0.1-1,0.6c0,0.1,0,0.3,0,0.4
	c0,4.6,0,9.2,0,13.7c0,0.9,0.3,1,1.1,1C29.5,73.8,31.8,73.8,34,73.8L34,73.8z M22.4,85.8c0-2.3,0-4.6,0-6.9c0-0.7-0.1-1.1-1-1
	c-4.6,0-9.2,0-13.8,0c-0.4-0.1-0.9,0.1-1,0.5c0,0.1-0.1,0.3,0,0.4c0,4.6,0,9.2,0,13.8c-0.1,0.4,0.1,0.9,0.6,1c0.1,0,0.3,0,0.4,0
	c4.6,0,9.1,0,13.7,0c0.9,0,1-0.3,1-1.1C22.4,90.3,22.4,88,22.4,85.8z M41.9,85.8c0-2.3,0-4.7,0-7c0.1-0.4-0.1-0.8-0.6-1
	c-0.1,0-0.3,0-0.4,0c-4.6,0-9.2,0-13.8,0c-0.4-0.1-0.9,0.1-1,0.5c0,0.1-0.1,0.3,0,0.4c0,4.6,0,9.2,0,13.8c-0.1,0.4,0.1,0.9,0.6,1
	c0.1,0,0.3,0,0.4,0c4.6,0,9.1,0,13.7,0c0.4,0.1,0.9-0.1,1-0.6c0-0.1,0-0.3,0-0.4C41.9,90.3,42,88.1,41.9,85.8L41.9,85.8z M6.7,53.8
	h15.6V38.3H6.7L6.7,53.8L6.7,53.8z M26.3,53.8h15.6V38.3H26.3V53.8L26.3,53.8z M46.2,58.2v15.6h15.5V58.1L46.2,58.2L46.2,58.2z
	 M66,73.7h15.5V58.1H66V73.7L66,73.7z M46.2,93.5h15.5V77.9H46.2C46.2,77.9,46.2,93.5,46.2,93.5z M81.5,77.9H66v15.6h15.5V77.9z
	 M46.2,38.3v15.5h15.5V38.3H46.2z M66,38.3v15.5h15.5V38.3H66L66,38.3z M0,28.6v-9.2c0.1-0.1,0.1-0.2,0.2-0.3c0.7-4.2,4.4-7.2,8.6-7
	h12.3c0-2.7,0.1-5.3,0-7.9c-0.1-2,0.6-3.4,2.5-4.2h1.5c1.8,0.6,2.8,2.4,2.5,4.2c-0.1,1.4,0,2.7,0,4.1s0,2.5,0,3.7h33.1
	c0-2.6,0.1-5.2,0-7.8c-0.1-2,0.6-3.4,2.5-4.2h1.5c1.8,0.6,2.8,2.4,2.5,4.2c-0.1,0.7,0,1.4,0,2.1c0,1.9,0,3.8,0,5.8h1.3
	c3.7,0,7.4,0,11.1,0c2.3,0,4.5,0.9,6.1,2.5c1.2,1.3,2,2.9,2.4,4.7v9.2c-0.4,0-0.7,0-1.1,0H1.1C0.7,28.6,0.4,28.6,0,28.6z M27.5,15.2
	c0,1,0,1.8,0,2.6s0,1.7,0,2.5c-0.2,1.7-1.7,3-3.4,2.9c-0.2,0-0.4-0.1-0.6-0.1C22,22.9,21,21.5,21.1,20c0-1.6,0-3.2,0-4.8
	c-2.3,1.3-3.3,4-2.6,6.6c0.8,3.2,4,5.2,7.2,4.5c2.2-0.5,3.9-2.3,4.5-4.5C30.8,19.2,29.8,16.6,27.5,15.2z M60.6,15.1
	c-2.4,1.5-3.5,4.4-2.6,7.1c0.9,2.5,3.2,4.1,5.9,4.1c2.8-0.1,5.1-2.1,5.8-4.7c0.5-2.5-0.6-5.2-2.4-6.1c0,0-0.1,0-0.1,0.1
	c0,1.5,0,2.9-0.1,4.4c0.1,1.8-1.3,3.3-3.1,3.4c-0.1,0-0.1,0-0.2,0c-1.8,0-3.2-1.5-3.2-3.3c0,0,0-0.1,0-0.1
	C60.7,18.3,60.6,16.8,60.6,15.1z"/>
</svg>
