<?xml version="1.0" encoding="utf-8"?>
<!-- Generator: Adobe Illustrator 24.0.0, SVG Export Plug-In . SVG Version: 6.00 Build 0)  -->
<svg version="1.1" id="Layer_1" xmlns="http://www.w3.org/2000/svg" xmlns:xlink="http://www.w3.org/1999/xlink" x="0px" y="0px"
	 viewBox="0 0 100 100" style="enable-background:new 0 0 100 100;" xml:space="preserve">
<path d="M86.8,100H13.3c-1.8-0.4-3.5-1.2-4.8-2.5c-1.2-1.3-2.1-3-2.5-4.8V31.9c0.4,0,0.7,0,1.1,0h85.7c0.4,0,0.7,0,1.1,0v60.9
	C93.4,96.5,90.4,99.4,86.8,100z M20.5,73.8c2.3,0,4.5,0,6.8,0c0.5,0.1,0.9-0.1,1.1-0.6c0-0.1,0-0.3,0-0.4c0-4.6,0-9.2,0-13.7
	c0.1-0.4-0.1-0.9-0.6-1c-0.1,0-0.3,0-0.4,0c-4.6,0-9.2,0-13.7,0c-0.4-0.1-0.9,0.1-1,0.6c0,0.1,0,0.3,0,0.4c0,4.6,0,9.2,0,13.8
	c-0.1,0.4,0.1,0.8,0.5,1c0.2,0,0.3,0,0.5,0C15.9,73.8,18.2,73.8,20.5,73.8z M40,73.8c2.3,0,4.6,0,6.9,0c0.7,0,1-0.2,1-1
	c0-4.6,0-9.2,0-13.8c0.1-0.4-0.1-0.9-0.5-1c-0.1,0-0.3-0.1-0.4,0c-4.6,0-9.2,0-13.8,0c-0.4-0.1-0.9,0.1-1,0.6c0,0.1,0,0.3,0,0.4
	c0,4.6,0,9.2,0,13.7c0,0.9,0.3,1,1.1,1C35.5,73.8,37.8,73.8,40,73.8L40,73.8z M28.4,85.8c0-2.3,0-4.6,0-6.9c0-0.7-0.1-1.1-1-1
	c-4.6,0-9.2,0-13.8,0c-0.4-0.1-0.9,0.1-1,0.5c0,0.1-0.1,0.3,0,0.4c0,4.6,0,9.2,0,13.8c-0.1,0.4,0.1,0.9,0.6,1c0.1,0,0.3,0,0.4,0
	c4.6,0,9.1,0,13.7,0c0.9,0,1-0.3,1-1.1C28.4,90.3,28.4,88,28.4,85.8z M48,85.8c0-2.3,0-4.7,0-7c0.1-0.4-0.1-0.8-0.6-1
	c-0.1,0-0.3,0-0.4,0c-4.6,0-9.2,0-13.8,0c-0.4-0.1-0.9,0.1-1,0.5c0,0.1-0.1,0.3,0,0.4c0,4.6,0,9.2,0,13.8c-0.1,0.4,0.1,0.9,0.6,1
	c0.1,0,0.3,0,0.4,0c4.6,0,9.1,0,13.7,0c0.4,0.1,0.9-0.1,1-0.6c0-0.1,0-0.3,0-0.4C48,90.3,48,88.1,48,85.8L48,85.8z M12.7,53.8h15.6
	V38.3H12.7V53.8L12.7,53.8z M32.3,53.8H48V38.3H32.3V53.8L32.3,53.8z M52.2,58.2v15.6h15.5V58.1L52.2,58.2L52.2,58.2z M72.1,73.7
	h15.5V58.1H72.1V73.7L72.1,73.7z M52.2,93.5h15.5V77.9H52.2V93.5z M87.6,77.9H72.1v15.6h15.5V77.9z M52.2,38.3v15.5h15.5V38.3H52.2z
	 M72.1,38.3v15.5h15.5V38.3H72.1L72.1,38.3z M6,28.6v-9.2c0.1-0.1,0.1-0.2,0.2-0.3c0.7-4.2,4.4-7.2,8.6-7h12.3c0-2.7,0.1-5.3,0-7.9
	c-0.1-2,0.6-3.4,2.5-4.2h1.5c1.8,0.6,2.8,2.4,2.5,4.2c-0.1,1.4,0,2.7,0,4.1s0,2.5,0,3.7h33.1c0-2.6,0.1-5.2,0-7.8
	c-0.1-2,0.6-3.4,2.5-4.2h1.5c1.8,0.6,2.8,2.4,2.5,4.2c-0.1,0.7,0,1.4,0,2.1c0,1.9,0,3.8,0,5.8h1.3c3.7,0,7.4,0,11.1,0
	c2.3,0,4.5,0.9,6.1,2.5c1.2,1.3,2,2.9,2.4,4.7v9.2c-0.4,0-0.7,0-1.1,0H7.1C6.7,28.6,6.4,28.6,6,28.6z M33.5,15.2c0,1,0,1.8,0,2.6
	s0,1.7,0,2.5c-0.2,1.7-1.7,3-3.4,2.9c-0.2,0-0.4-0.1-0.6-0.1C28,22.9,27,21.5,27.1,20c0-1.6,0-3.2,0-4.8c-2.3,1.3-3.3,4-2.6,6.6
	c0.8,3.2,4,5.2,7.2,4.5c2.2-0.5,3.9-2.3,4.5-4.5C36.8,19.2,35.8,16.6,33.5,15.2z M66.6,15.1c-2.4,1.5-3.5,4.4-2.6,7.1
	c0.9,2.5,3.2,4.1,5.9,4.1c2.8-0.1,5.1-2.1,5.8-4.7c0.5-2.5-0.6-5.2-2.4-6.1c0,0-0.1,0-0.1,0.1c0,1.5,0,2.9-0.1,4.4
	c0.1,1.8-1.3,3.3-3.1,3.4c-0.1,0-0.1,0-0.2,0c-1.8,0-3.2-1.5-3.2-3.3V20C66.8,18.3,66.6,16.8,66.6,15.1z"/>
</svg>
