<?xml version="1.0" encoding="utf-8"?>
<!-- Generator: Adobe Illustrator 24.0.0, SVG Export Plug-In . SVG Version: 6.00 Build 0)  -->
<svg version="1.1" id="Layer_1" xmlns="http://www.w3.org/2000/svg" xmlns:xlink="http://www.w3.org/1999/xlink" x="0px" y="0px"
	 viewBox="0 0 100 100" style="enable-background:new 0 0 100 100;" xml:space="preserve">
<path d="M0,42.3V37c0.2-1.1,0.3-2.3,0.6-3.4c3-16.5,12.6-27,28.5-32c2.6-0.7,5.2-1.2,7.9-1.5h5.3c1.8,0.3,3.4,0.5,5.1,0.9
	c21.4,4.2,35.3,25,31.1,46.3c-0.4,1.8-0.8,3.6-1.5,5.3c-1.3,3.5-3.1,6.8-4.9,10.6c0.4,0.2,0.7,0.4,1,0.7
	c7.8,7.8,15.5,15.5,23.3,23.3c1.6,1.6,3.2,3.3,3.6,5.6v1.2c-0.3,0.7-0.4,1.5-0.8,2.2c-1,2.3-3,3.4-5.4,4h-1.2
	c-2.4-0.5-4-2.1-5.7-3.7c-7.6-8-15.4-15.8-23.1-23.5c-0.4-0.4-0.7-0.7-1.1-1c-8.9,6-18.5,8.6-29.1,6.8c-16.5-3-27.1-12.7-32.1-28.5
	C0.8,47.6,0.3,44.9,0,42.3z M9.3,39.6c0.1,16.8,13.8,30.2,30.5,30.1S70.1,56,70,39.2S56.3,9.1,39.5,9.2C22.9,9.3,9.4,22.7,9.3,39.2
	C9.3,39.4,9.3,39.5,9.3,39.6z"/>
</svg>
