<?xml version="1.0" encoding="utf-8"?>
<!-- Generator: Adobe Illustrator 23.0.6, SVG Export Plug-In . SVG Version: 6.00 Build 0)  -->
<svg version="1.1" id="Layer_1" xmlns:serif="http://www.serif.com/"
	 xmlns="http://www.w3.org/2000/svg" xmlns:xlink="http://www.w3.org/1999/xlink" x="0px" y="0px" viewBox="0 0 100 100"
	 style="enable-background:new 0 0 100 100;" xml:space="preserve">
<style type="text/css">
	.st0{fill-rule:evenodd;clip-rule:evenodd;}
</style>
<path id="shows" class="st0" d="M71.7,88.7H28.3c-0.5,0-0.9-0.2-1.2-0.5c-0.3-0.3-0.5-0.7-0.5-1.2v-3.3c0-0.5,0.2-0.9,0.5-1.2
	c0.3-0.3,0.7-0.5,1.2-0.5h18.3v-4H8.3c-2.3,0-4.3-0.8-5.9-2.4C0.8,73.9,0,72,0,69.7v-50c0-2.3,0.8-4.3,2.4-5.9
	c1.6-1.6,3.6-2.4,5.9-2.4h83.3c2.3,0,4.3,0.8,5.9,2.4c1.6,1.6,2.4,3.6,2.4,5.9v50c0,2.3-0.8,4.3-2.4,5.9C95.9,77.2,94,78,91.7,78
	H53.3v4h18.3c0.5,0,0.9,0.2,1.2,0.5c0.3,0.3,0.5,0.7,0.5,1.2V87c0,0.5-0.2,0.9-0.5,1.2C72.6,88.5,72.2,88.7,71.7,88.7L71.7,88.7z
	 M89.1,16.3c3.3,0.1,6.2,2.9,6.3,6.3c0.3,14.6,0.3,29.2,0,43.8c-0.1,3.3-3,6.2-6.3,6.3c-26.1,0.5-52.3,0.5-78.5,0
	c-3.3-0.1-6.2-3-6.3-6.3c-0.3-14.6-0.3-29.2,0-43.8c0.1-3.3,3-6.2,6.3-6.3C36.9,15.8,63,16.2,89.1,16.3z M89.1,19.3
	c1.8,0,3.4,1.5,3.4,3.3c0.5,14.5,0.1,29.1,0,43.7c0,1.8-1.6,3.3-3.3,3.4c-26.1,0.8-52.2,0.2-78.3,0c-1.8,0-3.3-1.6-3.4-3.3
	C7,51.8,7.2,37.2,7.5,22.7c0.1-1.8,1.7-3.3,3.4-3.3L89.1,19.3L89.1,19.3z M61.1,46L39.4,58.1c-0.3,0.1-0.5,0.2-0.6,0
	c-0.2-0.1-0.3-0.3-0.3-0.6V33.5c0-0.3,0.1-0.5,0.3-0.6c0.2-0.1,0.4-0.1,0.6,0L61.1,45c0.3,0.1,0.4,0.3,0.4,0.5
	C61.5,45.7,61.4,45.9,61.1,46L61.1,46z"/>
</svg>
