<?xml version="1.0" encoding="utf-8"?>
<!-- Generator: Adobe Illustrator 23.0.6, SVG Export Plug-In . SVG Version: 6.00 Build 0)  -->
<svg version="1.1" id="Layer_1" xmlns:serif="http://www.serif.com/"
	 xmlns="http://www.w3.org/2000/svg" xmlns:xlink="http://www.w3.org/1999/xlink" x="0px" y="0px" viewBox="0 0 100 100"
	 style="enable-background:new 0 0 100 100;" xml:space="preserve">
<style type="text/css">
	.st0{fill-rule:evenodd;clip-rule:evenodd;}
</style>
<path class="st0" d="M71.7,88.7H28.3c-0.5,0-0.9-0.2-1.2-0.5c-0.3-0.3-0.5-0.7-0.5-1.2v-3.3c0-0.5,0.2-0.9,0.5-1.2
	c0.3-0.3,0.7-0.5,1.2-0.5h18.3v-4H8.3c-2.3,0-4.3-0.8-5.9-2.4C0.8,73.9,0,72,0,69.7v-50c0-2.3,0.8-4.3,2.4-5.9s3.6-2.4,5.9-2.4h83.3
	c2.3,0,4.3,0.8,5.9,2.4c1.6,1.6,2.4,3.6,2.4,5.9v50c0,2.3-0.8,4.3-2.4,5.9C95.9,77.2,94,78,91.7,78H53.3v4h18.3
	c0.5,0,0.9,0.2,1.2,0.5c0.3,0.3,0.5,0.7,0.5,1.2V87c0,0.5-0.2,0.9-0.5,1.2C72.6,88.5,72.2,88.7,71.7,88.7z M91.7,18H8.3
	c-0.5,0-0.8,0.2-1.2,0.5c-0.3,0.3-0.5,0.7-0.5,1.2v50c0,0.5,0.2,0.8,0.5,1.2c0.3,0.3,0.7,0.5,1.2,0.5h83.3c0.5,0,0.8-0.2,1.2-0.5
	c0.3-0.3,0.5-0.7,0.5-1.2v-50c0-0.5-0.2-0.8-0.5-1.2C92.5,18.2,92.1,18,91.7,18L91.7,18z M59.4,45.8L41,56.1c-0.2,0.1-0.4,0.1-0.5,0
	c-0.2-0.1-0.2-0.3-0.2-0.5V35.2c0-0.2,0.1-0.4,0.2-0.5c0.2-0.1,0.3-0.1,0.5,0L59.4,45c0.2,0.1,0.3,0.3,0.3,0.4
	C59.8,45.6,59.6,45.7,59.4,45.8z"/>
</svg>
