<?xml version="1.0" encoding="UTF-8" standalone="no"?>
<!DOCTYPE svg PUBLIC "-//W3C//DTD SVG 1.1//EN" "http://www.w3.org/Graphics/SVG/1.1/DTD/svg11.dtd">
<svg width="100%" height="100%" viewBox="0 0 100 100" version="1.1" xmlns="http://www.w3.org/2000/svg" xmlns:xlink="http://www.w3.org/1999/xlink" xml:space="preserve" xmlns:serif="http://www.serif.com/" style="fill-rule:evenodd;clip-rule:evenodd;stroke-linejoin:round;stroke-miterlimit:2;">
    <path d="M88.5,100L11.5,100C5.2,100 0,94.8 0,88.5L0,11.5C0,5.2 5.2,0 11.5,0L88.5,0C94.8,0 100,5.2 100,11.5L100,88.5C100,94.8 94.8,100 88.5,100ZM19.897,83.926C25.858,86.982 35.178,89.267 45.723,89.267C68.948,89.267 80.103,78.428 80.103,64.055C79.949,53.215 74.296,45.563 59.474,40.675C50.611,37.779 48.167,36.239 48.167,33.794C48.167,30.739 50.917,29.517 55.653,29.517C61.767,29.517 68.796,31.961 72.311,33.661L76.743,15.011C71.851,12.859 63.6,10.733 54.432,10.733C34.567,10.733 21.733,21.573 21.733,36.557C21.578,45.271 27.232,54.278 43.887,59.617C51.987,62.062 53.669,63.284 53.669,66.047C53.669,68.943 51.376,70.165 45.417,70.165C38.693,70.165 28.913,67.11 24.634,64.506L19.897,83.926Z"/>
</svg>
