<?xml version="1.0" encoding="utf-8"?>
<!-- Generator: Adobe Illustrator 24.0.0, SVG Export Plug-In . SVG Version: 6.00 Build 0)  -->
<svg version="1.1" id="Layer_1" xmlns:serif="http://www.serif.com/"
	 xmlns="http://www.w3.org/2000/svg" xmlns:xlink="http://www.w3.org/1999/xlink" x="0px" y="0px" viewBox="0 0 100 100"
	 style="enable-background:new 0 0 100 100;" xml:space="preserve">
<style type="text/css">
	.st0{fill-rule:evenodd;clip-rule:evenodd;}
</style>
<path class="st0" d="M93.9,6.5c3.4,0,6.1,2.7,6.1,6.1v74.7c0,3.4-2.7,6.1-6.1,6.1H81.6c-3.4,0-6.1-2.7-6.1-6.1V12.7
	c0-3.4,2.7-6.1,6.1-6.1H93.9z M18.4,41.3c3.4,0,6.1,2.7,6.1,6.1v39.9c0,3.4-2.7,6.1-6.1,6.1H6.1c-3.4,0-6.1-2.7-6.1-6.1V47.4
	c0-3.4,2.7-6.1,6.1-6.1H18.4z M56.1,23.9c3.4,0,6.1,2.7,6.1,6.1v57.3c0,3.4-2.7,6.1-6.1,6.1H43.9c-3.4,0-6.1-2.7-6.1-6.1V30
	c0-3.4,2.7-6.1,6.1-6.1H56.1z"/>
</svg>
