<?xml version="1.0" encoding="utf-8"?>
<!-- Generator: Adobe Illustrator 24.0.0, SVG Export Plug-In . SVG Version: 6.00 Build 0)  -->
<svg version="1.1" id="Layer_1" xmlns="http://www.w3.org/2000/svg" xmlns:xlink="http://www.w3.org/1999/xlink" x="0px" y="0px"
	 viewBox="0 0 100 100" style="enable-background:new 0 0 100 100;" xml:space="preserve">
<title>student</title>
<path d="M6.6,99.9c-1.4-0.1-2.9-0.1-4.3-0.2s-2.5-0.8-2.3-2.4c0.3-2.5,0.7-5.1,1.3-7.5c0.8-3.7,2.3-7.3,4.4-10.5
	c2.4-3.5,5.8-5.8,9.2-8c5.6-3.7,11.9-5.8,18.2-7.8l2.9-0.9c0.2,4.9,1.6,9.1,5.7,11.8c2.8,2,6.1,2.9,9.5,2.6c3.5-0.4,6.7-2,9.2-4.5
	c2.6-2.7,3.1-6.2,3.3-9.9c2.8,0.7,5.6,1.3,8.3,2.2c2.9,0.8,5.8,1.9,8.7,2.9C87,70,91.6,74.5,95,80.5c2.4,4.4,4,9.3,4.6,14.3
	c0.1,0.6,0.2,1.1,0.4,1.8v0.6c-0.2,0.4-0.4,0.8-0.7,1.2c-0.9,1.2-2.2,1-3.5,1l-47,0.3c-2,0-4,0.1-5.9,0.2L6.6,99.9L6.6,99.9z
	 M51.7,0c1.8,0.4,3.6,0.8,5.4,1.3c4,1.3,7.9,3.2,10.8,6.4c3.9,4.2,6.3,9.7,6.7,15.6c0.3,6.2-0.8,12.3-3.2,18
	C68.9,48.2,65,54.5,60,59.8c-2.8,3-6.7,4.7-10.7,4.5c-3.1-0.2-6-1.4-8.4-3.4c-4.7-3.8-8.4-8.9-10.7-14.6c-2.1-4.9-3.6-9.9-4.4-15.1
	c-1-7.6-0.3-15,4.7-21.4c2.9-3.7,6.8-6.5,11.2-7.9c2.2-0.8,4.5-1.3,6.8-2C48.5,0,51.7,0,51.7,0z M34.2,20.5l-0.3-0.2
	c-0.6,0.4-1.2,0.8-1.8,1.2c-3.3,2.8-5.4,6.2-4.3,10.8c1.2,5.7,3.3,11,6.2,15.9c2.4,3.7,4.9,7.2,8.9,9.4c2.3,1.2,4.7,2.4,7.4,2.2
	c3.6-0.4,7-2.2,9.6-4.9c3.3-3.4,5.9-7.3,7.9-11.7c1.9-3.9,3.3-8,4.1-12.4c0.3-2,0.5-3.9,0.8-6c0.1-0.5-0.2-1-0.7-1.2
	c-0.1,0-0.3,0-0.5,0c-1.3,0-2.5-0.2-3.8-0.5c-3.7-1.2-7.3-2.5-10.9-4c-2-1-4.4-0.6-5.9,1c-3.5,3.3-6.6,7.2-9,11.6
	c-0.4,0.7-0.9,1.3-1.4,2.1l-0.4-0.2c-0.9-5.1,0.3-9.7,2.6-14.2c-0.5,0.1-0.9,0.2-1.3,0.5c-1,0.8-1.9,1.8-2.8,2.8
	c-1.6,2.2-3.1,4.4-4.6,6.7c-0.3,0.3-0.6,0.5-0.9,0.7c-0.2-0.3-0.4-0.7-0.6-1c0-0.1,0-0.2,0-0.4c-0.2-2.2,0.1-4.4,1-6.4
	C33.9,21.8,34.1,21.2,34.2,20.5z"/>
</svg>
