<?xml version="1.0" encoding="utf-8"?>
<!-- Generator: Adobe Illustrator 24.0.0, SVG Export Plug-In . SVG Version: 6.00 Build 0)  -->
<svg version="1.1" id="Layer_1" xmlns="http://www.w3.org/2000/svg" xmlns:xlink="http://www.w3.org/1999/xlink" x="0px" y="0px"
	 viewBox="0 0 100 100" style="enable-background:new 0 0 100 100;" xml:space="preserve">
<title>teacher</title>
<path d="M72,100h-7.8c-9.1-3.5-19.1-3.5-28.2,0h-7.8c-2.8-1.6-5.8-2.9-8.3-4.9C10.8,87.8,4.3,77.6,1.5,66.2c-0.6-2.1-1-4.2-1.5-6.3
	V48.8c0.3-0.7,0.5-1.4,0.7-2.2c3-20.4,24-31.8,41.4-22.4c1,0.5,2.1,0.9,3.2,1.3c0-2.3-0.1-4.3,0-6.2s-0.4-3-2.5-2.5
	C33.6,18.4,25.1,10.3,22,2.5c10.3-2.2,19-0.1,24.5,9.4c2.5-3.6,4.9-7.1,7.3-10.7c1.1-1.6,2.3-1.5,3.4,0c1,1.3,3.2,1.9,1.2,4.4
	c-2.3,2.8-4.2,5.9-5.6,9.2c-1.5,3.9-2.5,8.1-0.8,12.7c1.8-1.1,3.7-2.1,5.7-3c3.1-1.2,6.3-2.6,9.5-3.1c15.2-2.4,28.4,8.5,31.5,22
	c0.4,1.9,0.7,3.9,1.2,5.8v11c-0.2,0.2-0.3,0.5-0.4,0.7C96.7,78.3,88.2,91.9,72,100z"/>
</svg>
