<?xml version="1.0" encoding="utf-8"?>
<!-- Generator: Adobe Illustrator 24.0.0, SVG Export Plug-In . SVG Version: 6.00 Build 0)  -->
<svg version="1.1" id="Layer_1" xmlns="http://www.w3.org/2000/svg" xmlns:xlink="http://www.w3.org/1999/xlink" x="0px" y="0px"
	 viewBox="0 0 100 100" style="enable-background:new 0 0 100 100;" xml:space="preserve">
<title>tools</title>
<path d="M78.2,93c-2.4-2-4.5-4.2-6.3-6.8c-3.7-4.7-7.7-9.1-12.2-13.1c-4.3-3.8-8.4-7.8-12.5-11.8c-1.8-1.8-2.9-4.1-3.3-6.5
	c-0.1-0.6,0-1.2,0.2-1.7c0.1-0.4,0-0.9-0.4-1.2c-6-5.8-11.9-11.6-17.7-17.5c-1.5-1.6-3.6-2.5-5.7-2.7c-0.3,0-0.7-0.1-1-0.1
	c-1.4-0.2-2.8,0.3-3.7,1.3c-0.8,0.9-1.6,1.8-2.3,2.6c0,0.1,0,0.2,0,0.3c1,1.4,1.1,1.5-0.1,2.7c-1.7,1.7-3.5,3.3-5.3,4.9
	c-0.4,0.4-1,0.4-1.4,0l0,0l-6-5.5C0.1,37.6,0,37,0.3,36.6l0.1-0.1c1.7-2.1,3.4-4.2,5.1-6.3c0.3-0.5,1-0.6,1.5-0.3c0-0.1,0,0,0.1,0
	c0.3,0.3,0.7,0.3,1,0l0.1-0.1c0.7-0.7,1.3-1.5,1.9-2.3c0.2-0.4,0.3-0.9,0.1-1.4c-0.6-1-0.6-2.2-0.1-3.2c0.7-2.1,1.8-4,3.4-5.6
	c4.9-5.5,11.5-9,18.8-10.1c5.6-0.9,11.1-0.5,16.2,2.3c0.3,0.1,0.5,0.3,0.8,0.5c0.1,0.1,0.3,0.3,0.4,0.4c-0.3,0.1-0.5,0.1-0.8,0.1
	c-6.7-0.7-12.6,1.4-18,5.3c-1.3,0.9-2.2,2.2-2.6,3.7c-0.5,2.4,0.3,4.8,2.1,6.5c5.4,5.5,10.9,10.9,16.4,16.4c1.2,1.2,2.4,2.4,3.6,3.6
	c0.3,0.2,0.6,0.4,1,0.3c1.6-0.3,3.2,0.1,4.6,1c3,2,5.8,4.3,8.2,7c4.1,4.4,8.1,8.9,12.4,13.1c3.2,3.1,6.8,5.8,10.2,8.7
	c0.9,0.8,1.8,1.5,2.6,2.3c1.2,1,1.4,2.9,0.4,4.1c-0.1,0.1-0.2,0.2-0.3,0.3c-3.3,3.7-7,7.1-10.9,10.1L78.2,93L78.2,93z M65.1,51.1
	c-1.6-1.6-3.3-3.1-5.1-4.5c-2-1.3-4-2.5-6.1-3.6c0.2-0.2,0.3-0.4,0.5-0.6c2.4-2.1,4.7-4.3,7.1-6.4c4-3.7,7-8.4,8.7-13.5
	c0.7-2,1.5-4,2.3-6.1c1.1-2.9,3.2-5.3,5.9-6.7c2.2-1.3,4.7-2.2,7.2-2.6c2.2-0.3,4.3,0.4,5.9,1.9c0.8,0.7,1.5,1.5,2.4,2.4
	c-0.4,0.2-0.6,0.3-0.9,0.4c-3,1.4-6,2.8-8.9,4.2c-1.2,0.6-1.2,0.6-0.7,1.8c1.4,2.9,2.9,5.8,4.3,8.8c0.1,0.5,0.7,0.9,1.2,0.7
	c0.2,0,0.3-0.1,0.4-0.2c2.5-1.3,5-2.5,7.6-3.7c0.3-0.2,0.7-0.3,1-0.4c1.2-0.6,1.3-0.1,1.7,0.7c0.5,1.1,0.6,2.2,0.3,3.3
	c-0.6,2.6-2.1,4.8-4.4,6.2c-3.1,2-6.6,3.4-10.1,4.4c-1.9,0.5-3.7,1.2-5.6,1.9c-3.8,1.4-6.6,4.2-9.4,6.9C68.6,48,66.8,49.6,65.1,51.1
	z M85.9,31.6c0-0.2,0-0.3-0.1-0.3c-0.7-2.6-1.9-5-3.5-7.1c-0.2-0.2-0.6-0.3-0.9-0.3c-2.9,0.8-5.7,2.1-8.2,3.8
	c-0.3,0.3-0.4,0.6-0.3,1c0.8,2.5,1.9,4.9,3.4,7.1c0.3,0.3,0.6,0.4,1,0.3c2.9-0.9,5.6-2.2,8.2-3.9C85.7,32,85.8,31.8,85.9,31.6z
	 M41,55c1.3,5.2,4.5,9.7,8.9,12.8c-0.1,0.1-0.2,0.3-0.3,0.4c-7,7.3-13.9,14.6-20.9,21.8c-1,1-2.2,1.8-3.5,2.3
	c-1.3,0.4-2.6,0.4-3.9,0c-4-1.2-6.6-3.5-7-7.9c-0.4-3,0.8-6,3.2-7.9c7.2-6.6,14.4-13.2,21.6-19.9L41,55z M23.1,79.8
	c-2,0-3.7,1.7-3.7,3.7s1.7,3.7,3.7,3.7s3.7-1.6,3.7-3.7C26.9,81.5,25.3,79.8,23.1,79.8C23.2,79.8,23.2,79.8,23.1,79.8z M84.1,30.6
	c-0.2,0.3-0.4,0.5-0.6,0.7c-1.8,0.9-3.7,1.8-5.6,2.6c-0.3,0.1-0.6,0-0.8-0.3c-0.7-1.4-1.4-2.8-2-4.2c0-0.3,0.1-0.6,0.4-0.8
	c1.7-0.9,3.5-1.7,5.3-2.5c0.4-0.2,0.9-0.1,1.2,0.3v0.1L84.1,30.6z"/>
</svg>
