<?xml version="1.0" encoding="utf-8"?>
<!-- Generator: Adobe Illustrator 23.0.6, SVG Export Plug-In . SVG Version: 6.00 Build 0)  -->
<svg version="1.1" id="Layer_1" xmlns:serif="http://www.serif.com/"
	 xmlns="http://www.w3.org/2000/svg" xmlns:xlink="http://www.w3.org/1999/xlink" x="0px" y="0px" viewBox="0 0 100 100"
	 style="enable-background:new 0 0 100 100;" xml:space="preserve">
<path d="M31.8,52.3v9.1c0,5,4.1,9.1,9.1,9.1h18.2c5,0,9.1-4.1,9.1-9.1v-9.1h27.3v31.8c0,5-4.1,9.1-9.1,9.1H13.6
	c-5,0-9.1-4.1-9.1-9.1V52.3H31.8L31.8,52.3z M40.9,47.7h18.2v13.6H40.9L40.9,47.7L40.9,47.7z M63.6,6.8c5,0,9.1,4.1,9.1,9.1V25h18.2
	c5,0,9.1,4.1,9.1,9.1v13.6H68.2c0-5-4.1-9.1-9.1-9.1H40.9c-5,0-9.1,4.1-9.1,9.1H0V34.1c0-5,4.1-9.1,9.1-9.1h18.2v-9.1
	c0-5,4.1-9.1,9.1-9.1L63.6,6.8L63.6,6.8z M63.6,25v-9.1H36.4V25H63.6z"/>
</svg>
