<?xml version="1.0" encoding="utf-8"?>
<!-- Generator: Adobe Illustrator 23.0.6, SVG Export Plug-In . SVG Version: 6.00 Build 0)  -->
<svg version="1.1" id="Layer_1" xmlns:serif="http://www.serif.com/"
	 xmlns="http://www.w3.org/2000/svg" xmlns:xlink="http://www.w3.org/1999/xlink" x="0px" y="0px" viewBox="0 0 100 100"
	 style="enable-background:new 0 0 100 100;" xml:space="preserve">
<path d="M50.1,22.3c-0.7-6.5,1.4-13.1,7.7-18C61.5,1.4,66.2,0,71,0c19.4,0.3,37.7,24.9,24.1,41.4c-4.2,5.1-11,7.5-17.7,7.2
	L24.7,88.6l-6.4-6.3C10.1,85.8-2.5,89,7.4,94.5c9,5,23.6-3.9,33-7.3c17.1-6.2,37.3-4.1,51.2,8l-2.7,3.1c-0.6-0.5-0.6-0.5-1.2-1
	C74.6,86.9,56,85.6,41,91.4c-11.5,4.4-22.9,11.5-34.2,7.4c-1-0.4-2-0.9-2.9-1.6c-4.2-3.1-6.8-10.1,2.9-14.4c2.7-1.2,6-2.6,8.3-3.6
	l-5.1-5L50.1,22.3L50.1,22.3z M51.3,27.5L15.6,73.8l9.5,9.3l46.7-35.5C62.5,44.9,54.4,36.6,51.3,27.5L51.3,27.5z M56.3,12.5
	c-0.6,1-1,2.2-1.3,3.4c-3.8,14.9,13.1,33.3,29.8,27.7c0.7-0.2,1.4-0.5,2.1-0.9C72.8,37.4,61.2,25.3,56.3,12.5z M91,39.7
	c1.7-1.8,3-3.9,3.7-6.4C98.6,19.9,85.6,4,70.4,4.2c-4.1,0.1-8.2,1.7-11.1,4.4C63.8,23.2,77.1,35.5,91,39.7z"/>
</svg>
