<?xml version="1.0" encoding="utf-8"?>
<!-- Generator: Adobe Illustrator 19.2.1, SVG Export Plug-In . SVG Version: 6.00 Build 0)  -->
<svg version="1.1" id="Layer_1" xmlns="http://www.w3.org/2000/svg" xmlns:xlink="http://www.w3.org/1999/xlink" x="0px" y="0px"
	 viewBox="0 0 100 100" style="enable-background:new 0 0 100 100;" xml:space="preserve">
<title>wrench</title>
<path d="M100,21.9V32c-0.1,0.1-0.1,0.2-0.2,0.3C96.6,47.8,81.1,56.5,66,52.3c-0.7-0.3-1.5-0.1-2,0.5C48.8,68,33.6,83.2,18.4,98.4
	l-1.6,1.6h-6.1c-0.7-0.4-1.4-0.9-2-1.5c-3-3.1-6.5-5.7-8.7-9.5V84c0.5-0.6,1-1.2,1.5-1.8c2.1-2.1,4.2-4.2,6.3-6.3l39.8-39.8
	c0.5-0.3,0.7-0.9,0.5-1.4c-1.2-4-1.5-8.3-0.8-12.4c1.6-10.5,9.4-19,19.8-21.5c1.3-0.3,2.6-0.5,3.9-0.8h4.9l0.9,0.2l5.6,1.1
	c-0.5,0.5-0.7,0.7-0.9,1c-3.9,3.8-7.7,7.7-11.6,11.5c-0.5,0.4-0.7,1.1-0.6,1.7c0.5,4.4,1,8.7,1.4,13.1c-0.1,0.5,0.2,1,0.7,1.1
	c0.1,0,0.1,0,0.2,0c4.4,0.4,8.8,0.9,13.2,1.3c0.5,0.1,1.1-0.1,1.5-0.5c3.9-3.9,7.8-7.8,11.7-11.8c0.2-0.3,0.4-0.6,0.6-0.9l0.4,0.2
	L100,21.9z"/>
</svg>
